Coda Normal-Light.ufo
<glyph name="exclam" format="1">
  <advance width="468"/>
  <unicode hex="0021"/>
  <outline>
    <contour>
      <point x="234" y="492" type="curve" smooth="yes"/>
      <point x="244" y="492"/>
      <point x="257" y="494"/>
      <point x="258" y="523" type="curve" smooth="yes"/>
      <point x="290" y="923"/>
      <point x="321" y="1406"/>
      <point x="321" y="1419" type="curve" smooth="yes"/>
      <point x="321" y="1503"/>
      <point x="311" y="1545"/>
      <point x="234" y="1545" type="curve" smooth="yes"/>
      <point x="157" y="1545"/>
      <point x="146" y="1503"/>
      <point x="146" y="1419" type="curve" smooth="yes"/>
      <point x="146" y="1405"/>
      <point x="175" y="923"/>
      <point x="209" y="523" type="curve" smooth="yes"/>
      <point x="211" y="494"/>
      <point x="224" y="492"/>
    </contour>
    <contour>
      <point x="237" y="-18" type="curve" smooth="yes"/>
      <point x="303" y="-18"/>
      <point x="366" y="26"/>
      <point x="366" y="120" type="curve" smooth="yes"/>
      <point x="366" y="210"/>
      <point x="297" y="258"/>
      <point x="230" y="258" type="curve" smooth="yes"/>
      <point x="166" y="258"/>
      <point x="103" y="213"/>
      <point x="103" y="120" type="curve" smooth="yes"/>
      <point x="103" y="30"/>
      <point x="171" y="-18"/>
    </contour>
  </outline>
</glyph>
<glyph name="quotedbl" format="1">
  <advance width="646"/>
  <unicode hex="0022"/>
  <outline>
    <contour>
      <point x="191" y="939" type="curve"/>
      <point x="188" y="939"/>
      <point x="199" y="933"/>
      <point x="197" y="927" type="curve"/>
      <point x="191" y="899"/>
      <point x="261" y="1288"/>
      <point x="261" y="1367" type="curve" smooth="yes"/>
      <point x="261" y="1444"/>
      <point x="241" y="1481"/>
      <point x="190" y="1481" type="curve" smooth="yes"/>
      <point x="120" y="1481"/>
      <point x="117" y="1443"/>
      <point x="117" y="1349" type="curve" smooth="yes"/>
      <point x="117" y="1274"/>
      <point x="191" y="905"/>
      <point x="184" y="934" type="curve"/>
      <point x="183" y="940"/>
      <point x="194" y="939"/>
    </contour>
    <contour>
      <point x="474" y="939" type="curve"/>
      <point x="471" y="939"/>
      <point x="481" y="933"/>
      <point x="480" y="927" type="curve"/>
      <point x="474" y="899"/>
      <point x="544" y="1288"/>
      <point x="544" y="1367" type="curve" smooth="yes"/>
      <point x="544" y="1444"/>
      <point x="523" y="1481"/>
      <point x="473" y="1481" type="curve" smooth="yes"/>
      <point x="403" y="1481"/>
      <point x="400" y="1443"/>
      <point x="400" y="1349" type="curve" smooth="yes"/>
      <point x="400" y="1274"/>
      <point x="473" y="905"/>
      <point x="467" y="934" type="curve"/>
      <point x="465" y="940"/>
      <point x="477" y="939"/>
    </contour>
  </outline>
</glyph>
<glyph name="numbersign" format="1">
  <advance width="1596"/>
  <unicode hex="0023"/>
  <outline>
    <contour>
      <point x="360" y="0" type="line"/>
      <point x="491" y="0" type="line"/>
      <point x="565" y="403" type="line"/>
      <point x="911" y="403" type="line"/>
      <point x="840" y="0" type="line"/>
      <point x="970" y="0" type="line"/>
      <point x="1042" y="402" type="line"/>
      <point x="1337" y="402" type="line"/>
      <point x="1359" y="552" type="line"/>
      <point x="1066" y="552" type="line"/>
      <point x="1135" y="958" type="line"/>
      <point x="1431" y="958" type="line"/>
      <point x="1453" y="1121" type="line"/>
      <point x="1163" y="1121" type="line"/>
      <point x="1225" y="1474" type="line"/>
      <point x="1094" y="1474" type="line"/>
      <point x="1031" y="1121" type="line"/>
      <point x="691" y="1121" type="line"/>
      <point x="756" y="1474" type="line"/>
      <point x="618" y="1474" type="line"/>
      <point x="553" y="1121" type="line"/>
      <point x="264" y="1121" type="line"/>
      <point x="237" y="959" type="line"/>
      <point x="524" y="959" type="line"/>
      <point x="455" y="552" type="line"/>
      <point x="162" y="552" type="line"/>
      <point x="135" y="403" type="line"/>
      <point x="430" y="403" type="line"/>
    </contour>
    <contour>
      <point x="591" y="552" type="line"/>
      <point x="663" y="959" type="line"/>
      <point x="1005" y="959" type="line"/>
      <point x="934" y="552" type="line"/>
    </contour>
  </outline>
</glyph>
<glyph name="dollar" format="1">
  <advance width="1313"/>
  <unicode hex="0024"/>
  <outline>
    <contour>
      <point x="597" y="42" type="line"/>
      <point x="597" y="-273" type="line"/>
      <point x="685" y="-273" type="line"/>
      <point x="685" y="42" type="line"/>
    </contour>
    <contour>
      <point x="597" y="1736" type="line"/>
      <point x="597" y="1421" type="line"/>
      <point x="685" y="1421" type="line"/>
      <point x="685" y="1736" type="line"/>
    </contour>
    <component base="S"/>
  </outline>
</glyph>
<glyph name="percent" format="1">
  <advance width="2192"/>
  <unicode hex="0025"/>
  <outline>
    <contour>
      <point x="454" y="698" type="curve" smooth="yes"/>
      <point x="268" y="698"/>
      <point x="257" y="715"/>
      <point x="257" y="949" type="curve" smooth="yes"/>
      <point x="257" y="995"/>
      <point x="258" y="969"/>
      <point x="258" y="1034" type="curve" smooth="yes"/>
      <point x="258" y="1295"/>
      <point x="271" y="1296"/>
      <point x="473" y="1296" type="curve" smooth="yes"/>
      <point x="684" y="1296"/>
      <point x="684" y="1293"/>
      <point x="684" y="1030" type="curve" smooth="yes"/>
      <point x="684" y="945" type="line" smooth="yes"/>
      <point x="684" y="716"/>
      <point x="673" y="698"/>
    </contour>
    <contour>
      <point x="473" y="579" type="curve" smooth="yes"/>
      <point x="737" y="579"/>
      <point x="814" y="655"/>
      <point x="814" y="893" type="curve" smooth="yes"/>
      <point x="814" y="996"/>
      <point x="814" y="1030"/>
      <point x="810" y="1103" type="curve" smooth="yes"/>
      <point x="795" y="1343"/>
      <point x="751" y="1414"/>
      <point x="473" y="1414" type="curve" smooth="yes"/>
      <point x="215" y="1414"/>
      <point x="136" y="1346"/>
      <point x="136" y="1100" type="curve" smooth="yes"/>
      <point x="136" y="999"/>
      <point x="136" y="968"/>
      <point x="140" y="897" type="curve" smooth="yes"/>
      <point x="153" y="651"/>
      <point x="193" y="579"/>
    </contour>
    <contour>
      <point x="1701" y="291" type="curve" smooth="yes"/>
      <point x="1515" y="291"/>
      <point x="1505" y="307"/>
      <point x="1505" y="541" type="curve" smooth="yes"/>
      <point x="1505" y="587"/>
      <point x="1506" y="561"/>
      <point x="1506" y="626" type="curve" smooth="yes"/>
      <point x="1506" y="887"/>
      <point x="1519" y="889"/>
      <point x="1720" y="889" type="curve" smooth="yes"/>
      <point x="1931" y="889"/>
      <point x="1931" y="885"/>
      <point x="1931" y="622" type="curve" smooth="yes"/>
      <point x="1931" y="537" type="line" smooth="yes"/>
      <point x="1931" y="308"/>
      <point x="1920" y="291"/>
    </contour>
    <contour>
      <point x="1720" y="172" type="curve" smooth="yes"/>
      <point x="1984" y="172"/>
      <point x="2061" y="246"/>
      <point x="2061" y="486" type="curve" smooth="yes"/>
      <point x="2061" y="585"/>
      <point x="2061" y="615"/>
      <point x="2058" y="686" type="curve" smooth="yes"/>
      <point x="2044" y="933"/>
      <point x="2001" y="1007"/>
      <point x="1720" y="1007" type="curve" smooth="yes"/>
      <point x="1462" y="1007"/>
      <point x="1384" y="938"/>
      <point x="1384" y="692" type="curve" smooth="yes"/>
      <point x="1384" y="593"/>
      <point x="1384" y="563"/>
      <point x="1387" y="492" type="curve" smooth="yes"/>
      <point x="1399" y="243"/>
      <point x="1439" y="172"/>
    </contour>
    <contour>
      <point x="832" y="7" type="line"/>
      <point x="978" y="7" type="line"/>
      <point x="1360" y="1564" type="line"/>
      <point x="1210" y="1564" type="line"/>
    </contour>
  </outline>
</glyph>
<glyph name="ampersand" format="1">
  <advance width="1443"/>
  <unicode hex="0026"/>
  <outline>
    <contour>
      <point x="659" y="-23" type="curve" smooth="yes"/>
      <point x="1079" y="-23"/>
      <point x="1175" y="84"/>
      <point x="1174" y="347" type="curve" smooth="yes"/>
      <point x="1173" y="726" type="line"/>
      <point x="1305" y="727" type="line"/>
      <point x="1305" y="842" type="line"/>
      <point x="1174" y="842" type="line"/>
      <point x="1174" y="946" type="line"/>
      <point x="1042" y="946" type="line"/>
      <point x="1042" y="842" type="line"/>
      <point x="508" y="842" type="line" smooth="yes"/>
      <point x="409" y="842"/>
      <point x="364" y="890"/>
      <point x="360" y="1149" type="curve" smooth="yes"/>
      <point x="360" y="1111" type="line" smooth="yes"/>
      <point x="360" y="1295"/>
      <point x="430" y="1354"/>
      <point x="694" y="1354" type="curve" smooth="yes"/>
      <point x="861" y="1354"/>
      <point x="942" y="1349"/>
      <point x="993" y="1322" type="curve" smooth="yes"/>
      <point x="1045" y="1294"/>
      <point x="1051" y="1270"/>
      <point x="1057" y="1179" type="curve"/>
      <point x="1154" y="1195" type="line"/>
      <point x="1154" y="1308" type="line" smooth="yes"/>
      <point x="1154" y="1482"/>
      <point x="976" y="1508"/>
      <point x="692" y="1508" type="curve" smooth="yes"/>
      <point x="315" y="1508"/>
      <point x="220" y="1409"/>
      <point x="220" y="1139" type="curve" smooth="yes"/>
      <point x="220" y="1040"/>
      <point x="235" y="940"/>
      <point x="283" y="876" type="curve" smooth="yes"/>
      <point x="302" y="854"/>
      <point x="329" y="838"/>
      <point x="353" y="827" type="curve"/>
      <point x="353" y="824" type="line"/>
      <point x="321" y="817"/>
      <point x="307" y="807"/>
      <point x="281" y="789" type="curve" smooth="yes"/>
      <point x="197" y="720"/>
      <point x="148" y="590"/>
      <point x="148" y="368" type="curve" smooth="yes"/>
      <point x="148" y="115"/>
      <point x="293" y="-23"/>
    </contour>
    <contour>
      <point x="655" y="122" type="curve" smooth="yes"/>
      <point x="351" y="122"/>
      <point x="287" y="211"/>
      <point x="287" y="403" type="curve" smooth="yes"/>
      <point x="287" y="662"/>
      <point x="290" y="727"/>
      <point x="459" y="727" type="curve" smooth="yes"/>
      <point x="1042" y="727" type="line"/>
      <point x="1042" y="374" type="line" smooth="yes"/>
      <point x="1042" y="206"/>
      <point x="1023" y="122"/>
    </contour>
  </outline>
</glyph>
<glyph name="quotesingle" format="1">
  <advance width="393"/>
  <unicode hex="0027"/>
  <outline>
    <contour>
      <point x="208" y="927" type="curve"/>
      <point x="204" y="899"/>
      <point x="275" y="1288"/>
      <point x="275" y="1367" type="curve" smooth="yes"/>
      <point x="275" y="1444"/>
      <point x="251" y="1481"/>
      <point x="200" y="1481" type="curve" smooth="yes"/>
      <point x="129" y="1481"/>
      <point x="122" y="1443"/>
      <point x="122" y="1349" type="curve" smooth="yes"/>
      <point x="122" y="1274"/>
      <point x="196" y="905"/>
      <point x="192" y="934" type="curve"/>
      <point x="191" y="940"/>
      <point x="203" y="939"/>
      <point x="200" y="939" type="curve"/>
      <point x="198" y="939"/>
      <point x="209" y="933"/>
    </contour>
  </outline>
</glyph>
<glyph name="parenleft" format="1">
  <advance width="744"/>
  <unicode hex="0028"/>
  <outline>
    <contour>
      <point x="636" y="-238" type="curve"/>
      <point x="654" y="-122" type="line"/>
      <point x="380" y="-75"/>
      <point x="292" y="230"/>
      <point x="292" y="713" type="curve" smooth="yes"/>
      <point x="292" y="1196"/>
      <point x="380" y="1499"/>
      <point x="654" y="1546" type="curve"/>
      <point x="636" y="1662" type="line"/>
      <point x="254" y="1623"/>
      <point x="131" y="1226"/>
      <point x="131" y="714" type="curve" smooth="yes"/>
      <point x="131" y="201"/>
      <point x="254" y="-199"/>
    </contour>
  </outline>
</glyph>
<glyph name="parenright" format="1">
  <advance width="744"/>
  <unicode hex="0029"/>
  <outline>
    <contour>
      <point x="108" y="-238" type="line"/>
      <point x="490" y="-199"/>
      <point x="614" y="203"/>
      <point x="614" y="714" type="curve"/>
      <point x="614" y="1226"/>
      <point x="490" y="1623"/>
      <point x="108" y="1662" type="curve"/>
      <point x="91" y="1546" type="line"/>
      <point x="365" y="1499"/>
      <point x="452" y="1196"/>
      <point x="452" y="713" type="curve" smooth="yes"/>
      <point x="452" y="230"/>
      <point x="365" y="-75"/>
      <point x="91" y="-122" type="curve"/>
    </contour>
  </outline>
</glyph>
<glyph name="asterisk" format="1">
  <advance width="1134"/>
  <unicode hex="002A"/>
  <outline>
    <contour>
      <point x="392" y="596" type="curve" smooth="yes"/>
      <point x="479" y="596"/>
      <point x="495" y="730"/>
      <point x="571" y="1010" type="curve"/>
      <point x="601" y="877"/>
      <point x="638" y="703"/>
      <point x="696" y="628" type="curve" smooth="yes"/>
      <point x="755" y="555"/>
      <point x="829" y="610"/>
      <point x="829" y="676" type="curve" smooth="yes"/>
      <point x="829" y="708"/>
      <point x="746" y="819"/>
      <point x="575" y="1012" type="curve"/>
      <point x="648" y="990"/>
      <point x="816" y="930"/>
      <point x="898" y="930" type="curve" smooth="yes"/>
      <point x="965" y="930"/>
      <point x="998" y="953"/>
      <point x="998" y="1013" type="curve" smooth="yes"/>
      <point x="998" y="1070"/>
      <point x="966" y="1094"/>
      <point x="903" y="1094" type="curve" smooth="yes"/>
      <point x="822" y="1094"/>
      <point x="764" y="1067"/>
      <point x="575" y="1010" type="curve"/>
      <point x="789" y="1240"/>
      <point x="813" y="1301"/>
      <point x="813" y="1353" type="curve" smooth="yes"/>
      <point x="813" y="1391"/>
      <point x="795" y="1418"/>
      <point x="759" y="1435" type="curve" smooth="yes"/>
      <point x="618" y="1445"/>
      <point x="579" y="1043"/>
      <point x="571" y="1013" type="curve"/>
      <point x="527" y="1212"/>
      <point x="477" y="1445"/>
      <point x="375" y="1435" type="curve" smooth="yes"/>
      <point x="324" y="1417"/>
      <point x="314" y="1386"/>
      <point x="314" y="1343" type="curve" smooth="yes"/>
      <point x="314" y="1312"/>
      <point x="394" y="1201"/>
      <point x="568" y="1010" type="curve"/>
      <point x="502" y="1027"/>
      <point x="316" y="1094"/>
      <point x="236" y="1094" type="curve" smooth="yes"/>
      <point x="172" y="1094"/>
      <point x="141" y="1070"/>
      <point x="141" y="1013" type="curve" smooth="yes"/>
      <point x="141" y="953"/>
      <point x="174" y="930"/>
      <point x="238" y="930" type="curve" smooth="yes"/>
      <point x="314" y="930"/>
      <point x="443" y="974"/>
      <point x="568" y="1012" type="curve"/>
      <point x="430" y="855"/>
      <point x="326" y="745"/>
      <point x="326" y="658" type="curve" smooth="yes"/>
      <point x="326" y="629"/>
      <point x="363" y="596"/>
    </contour>
  </outline>
</glyph>
<glyph name="plus" format="1">
  <advance width="962"/>
  <unicode hex="002B"/>
  <outline>
    <contour>
      <point x="413" y="241" type="line"/>
      <point x="547" y="241" type="line"/>
      <point x="547" y="601" type="line"/>
      <point x="847" y="601" type="line"/>
      <point x="847" y="745" type="line"/>
      <point x="547" y="745" type="line"/>
      <point x="547" y="1106" type="line"/>
      <point x="413" y="1106" type="line"/>
      <point x="413" y="745" type="line"/>
      <point x="114" y="745" type="line"/>
      <point x="114" y="601" type="line"/>
      <point x="413" y="601" type="line"/>
    </contour>
  </outline>
</glyph>
<glyph name="comma" format="1">
  <advance width="502"/>
  <unicode hex="002C"/>
  <outline>
    <contour>
      <point x="154" y="-231" type="curve" smooth="yes"/>
      <point x="283" y="-231"/>
      <point x="398" y="-43"/>
      <point x="398" y="124" type="curve" smooth="yes"/>
      <point x="398" y="214"/>
      <point x="346" y="294"/>
      <point x="266" y="294" type="curve" smooth="yes"/>
      <point x="175" y="294"/>
      <point x="127" y="225"/>
      <point x="127" y="146" type="curve" smooth="yes"/>
      <point x="127" y="69"/>
      <point x="182" y="-2"/>
      <point x="266" y="0" type="curve"/>
      <point x="267" y="-91"/>
      <point x="181" y="-165"/>
      <point x="92" y="-165" type="curve"/>
      <point x="92" y="-226" type="line"/>
      <point x="103" y="-230"/>
      <point x="123" y="-231"/>
    </contour>
  </outline>
</glyph>
<glyph name="hyphen" format="1">
  <advance width="803"/>
  <unicode hex="002D"/>
  <outline>
    <contour>
      <point x="398" y="601" type="move" name="_mid"/>
    </contour>
    <contour>
      <point x="121" y="543" type="line"/>
      <point x="680" y="543" type="line"/>
      <point x="680" y="659" type="line"/>
      <point x="121" y="659" type="line"/>
    </contour>
  </outline>
</glyph>
<glyph name="period" format="1">
  <advance width="474"/>
  <unicode hex="002E"/>
  <outline>
    <contour>
      <point x="240" y="-30" type="curve" smooth="yes"/>
      <point x="306" y="-30"/>
      <point x="369" y="15"/>
      <point x="369" y="109" type="curve" smooth="yes"/>
      <point x="369" y="198"/>
      <point x="300" y="246"/>
      <point x="233" y="246" type="curve" smooth="yes"/>
      <point x="169" y="246"/>
      <point x="106" y="202"/>
      <point x="106" y="109" type="curve" smooth="yes"/>
      <point x="106" y="18"/>
      <point x="173" y="-30"/>
    </contour>
  </outline>
</glyph>
<glyph name="slash" format="1">
  <advance width="726"/>
  <unicode hex="002F"/>
  <outline>
    <contour>
      <point x="102" y="-30" type="line"/>
      <point x="244" y="-30" type="line"/>
      <point x="623" y="1504" type="line"/>
      <point x="470" y="1504" type="line"/>
    </contour>
  </outline>
</glyph>
<glyph name="zero" format="1">
  <advance width="1272"/>
  <unicode hex="0030"/>
  <outline>
    <contour>
      <point x="636" y="117" type="curve" smooth="yes"/>
      <point x="400" y="117"/>
      <point x="307" y="173"/>
      <point x="299" y="304" type="curve" smooth="yes"/>
      <point x="289" y="466"/>
      <point x="286" y="559"/>
      <point x="286" y="736" type="curve" smooth="yes"/>
      <point x="286" y="909"/>
      <point x="290" y="996"/>
      <point x="300" y="1159" type="curve" smooth="yes"/>
      <point x="308" y="1304"/>
      <point x="410" y="1364"/>
      <point x="636" y="1364" type="curve" smooth="yes"/>
      <point x="861" y="1364"/>
      <point x="963" y="1304"/>
      <point x="972" y="1159" type="curve" smooth="yes"/>
      <point x="981" y="996"/>
      <point x="986" y="909"/>
      <point x="986" y="736" type="curve" smooth="yes"/>
      <point x="986" y="559"/>
      <point x="984" y="466"/>
      <point x="973" y="304" type="curve" smooth="yes"/>
      <point x="965" y="173"/>
      <point x="872" y="117"/>
    </contour>
    <contour>
      <point x="636" y="-20" type="curve" smooth="yes"/>
      <point x="1155" y="-20"/>
      <point x="1118" y="260"/>
      <point x="1118" y="842" type="curve" smooth="yes"/>
      <point x="1118" y="774" type="line" smooth="yes"/>
      <point x="1118" y="1266"/>
      <point x="1094" y="1494"/>
      <point x="636" y="1494" type="curve" smooth="yes"/>
      <point x="155" y="1494"/>
      <point x="154" y="1248"/>
      <point x="154" y="713" type="curve" smooth="yes"/>
      <point x="154" y="765" type="line" smooth="yes"/>
      <point x="154" y="236"/>
      <point x="139" y="-20"/>
    </contour>
  </outline>
</glyph>
<glyph name="one" format="1">
  <advance width="627"/>
  <unicode hex="0031"/>
  <outline>
    <contour>
      <point x="304" y="0" type="line"/>
      <point x="433" y="0" type="line"/>
      <point x="433" y="1474" type="line"/>
      <point x="323" y="1474" type="line"/>
      <point x="291" y="1372"/>
      <point x="221" y="1324"/>
      <point x="124" y="1319" type="curve"/>
      <point x="124" y="1246" type="line"/>
      <point x="304" y="1246" type="line"/>
    </contour>
  </outline>
</glyph>
<glyph name="two" format="1">
  <advance width="1266"/>
  <unicode hex="0032"/>
  <outline>
    <contour>
      <point x="199" y="0" type="line"/>
      <point x="1028" y="0" type="line"/>
      <point x="1028" y="123" type="line"/>
      <point x="342" y="123" type="line"/>
      <point x="342" y="348"/>
      <point x="383" y="371"/>
      <point x="600" y="511" type="curve" smooth="yes"/>
      <point x="890" y="696"/>
      <point x="1052" y="746"/>
      <point x="1052" y="1099" type="curve" smooth="yes"/>
      <point x="1052" y="1416"/>
      <point x="939" y="1494"/>
      <point x="617" y="1494" type="curve" smooth="yes"/>
      <point x="313" y="1494"/>
      <point x="201" y="1413"/>
      <point x="201" y="1203" type="curve" smooth="yes"/>
      <point x="200" y="1181" type="line"/>
      <point x="322" y="1141" type="line"/>
      <point x="332" y="1264"/>
      <point x="332" y="1287"/>
      <point x="381" y="1326" type="curve" smooth="yes"/>
      <point x="430" y="1365"/>
      <point x="523" y="1377"/>
      <point x="635" y="1377" type="curve" smooth="yes"/>
      <point x="765" y="1377"/>
      <point x="829" y="1355"/>
      <point x="863" y="1304" type="curve" smooth="yes"/>
      <point x="897" y="1253"/>
      <point x="913" y="1216"/>
      <point x="913" y="1107" type="curve" smooth="yes"/>
      <point x="913" y="792"/>
      <point x="804" y="794"/>
      <point x="532" y="618" type="curve" smooth="yes"/>
      <point x="331" y="489"/>
      <point x="199" y="437"/>
      <point x="199" y="121" type="curve" smooth="yes"/>
    </contour>
  </outline>
</glyph>
<glyph name="three" format="1">
  <advance width="1266"/>
  <unicode hex="0033"/>
  <outline>
    <contour>
      <point x="589" y="-20" type="curve" smooth="yes"/>
      <point x="899" y="-20"/>
      <point x="1068" y="25"/>
      <point x="1068" y="387" type="curve" smooth="yes"/>
      <point x="1068" y="714"/>
      <point x="979" y="737"/>
      <point x="900" y="761" type="curve"/>
      <point x="971" y="779"/>
      <point x="1058" y="785"/>
      <point x="1058" y="1147" type="curve" smooth="yes"/>
      <point x="1058" y="1397"/>
      <point x="924" y="1494"/>
      <point x="626" y="1494" type="curve" smooth="yes"/>
      <point x="245" y="1494"/>
      <point x="157" y="1420"/>
      <point x="158" y="1221" type="curve" smooth="yes"/>
      <point x="158" y="1176" type="line"/>
      <point x="285" y="1167" type="line"/>
      <point x="285" y="1306"/>
      <point x="296" y="1306"/>
      <point x="314" y="1325" type="curve" smooth="yes"/>
      <point x="352" y="1367"/>
      <point x="473" y="1376"/>
      <point x="626" y="1376" type="curve" smooth="yes"/>
      <point x="894" y="1376"/>
      <point x="911" y="1322"/>
      <point x="911" y="1113" type="curve" smooth="yes"/>
      <point x="911" y="875"/>
      <point x="907" y="826"/>
      <point x="849" y="826" type="curve" smooth="yes"/>
      <point x="481" y="826" type="line"/>
      <point x="490" y="697" type="line"/>
      <point x="856" y="694" type="line" smooth="yes"/>
      <point x="907" y="694"/>
      <point x="919" y="695"/>
      <point x="919" y="439" type="curve" smooth="yes"/>
      <point x="919" y="165"/>
      <point x="908" y="98"/>
      <point x="593" y="98" type="curve" smooth="yes"/>
      <point x="434" y="98"/>
      <point x="332" y="105"/>
      <point x="295" y="155" type="curve" smooth="yes"/>
      <point x="265" y="196"/>
      <point x="266" y="199"/>
      <point x="266" y="307" type="curve"/>
      <point x="139" y="294" type="line"/>
      <point x="138" y="223" type="line" smooth="yes"/>
      <point x="135" y="14"/>
      <point x="319" y="-20"/>
    </contour>
  </outline>
</glyph>
<glyph name="four" format="1">
  <advance width="1256"/>
  <unicode hex="0034"/>
  <outline>
    <contour>
      <point x="705" y="1474" type="line"/>
      <point x="147" y="521" type="line"/>
      <point x="147" y="411" type="line"/>
      <point x="813" y="411" type="line"/>
      <point x="813" y="0" type="line"/>
      <point x="953" y="0" type="line"/>
      <point x="953" y="1029" type="line"/>
      <point x="813" y="1029" type="line"/>
      <point x="813" y="509" type="line"/>
      <point x="286" y="509" type="line"/>
      <point x="397" y="721" type="line"/>
      <point x="847" y="1474" type="line"/>
    </contour>
  </outline>
</glyph>
<glyph name="five" format="1">
  <advance width="1256"/>
  <unicode hex="0035"/>
  <outline>
    <contour>
      <point x="623" y="-20" type="curve" smooth="yes"/>
      <point x="993" y="-20"/>
      <point x="1108" y="52"/>
      <point x="1108" y="441" type="curve" smooth="yes"/>
      <point x="1108" y="788"/>
      <point x="1053" y="928"/>
      <point x="669" y="928" type="curve" smooth="yes"/>
      <point x="432" y="928"/>
      <point x="384" y="837"/>
      <point x="343" y="722" type="curve"/>
      <point x="380" y="1342" type="line"/>
      <point x="1028" y="1342" type="line"/>
      <point x="1028" y="1474" type="line"/>
      <point x="221" y="1474" type="line"/>
      <point x="228" y="663" type="line"/>
      <point x="352" y="648" type="line"/>
      <point x="365" y="717"/>
      <point x="391" y="731"/>
      <point x="430" y="756" type="curve" smooth="yes"/>
      <point x="485" y="792"/>
      <point x="552" y="794"/>
      <point x="653" y="794" type="curve" smooth="yes"/>
      <point x="988" y="794"/>
      <point x="982" y="741"/>
      <point x="982" y="475" type="curve" smooth="yes"/>
      <point x="982" y="415"/>
      <point x="986" y="446"/>
      <point x="986" y="396" type="curve" smooth="yes"/>
      <point x="986" y="223"/>
      <point x="959" y="110"/>
      <point x="625" y="110" type="curve" smooth="yes"/>
      <point x="378" y="110"/>
      <point x="342" y="139"/>
      <point x="320" y="302" type="curve" smooth="yes"/>
      <point x="317" y="328"/>
      <point x="313" y="323"/>
      <point x="311" y="356" type="curve"/>
      <point x="216" y="331" type="line"/>
      <point x="216" y="305"/>
      <point x="214" y="292"/>
      <point x="214" y="268" type="curve" smooth="yes"/>
      <point x="214" y="5"/>
      <point x="396" y="-20"/>
    </contour>
  </outline>
</glyph>
<glyph name="six" format="1">
  <advance width="1266"/>
  <unicode hex="0036"/>
  <outline>
    <contour>
      <point x="710" y="-20" type="curve" smooth="yes"/>
      <point x="1084" y="-20"/>
      <point x="1162" y="81"/>
      <point x="1162" y="478" type="curve" smooth="yes"/>
      <point x="1162" y="869"/>
      <point x="1030" y="936"/>
      <point x="681" y="936" type="curve" smooth="yes"/>
      <point x="471" y="936"/>
      <point x="400" y="894"/>
      <point x="340" y="814" type="curve"/>
      <point x="341" y="1127" type="line" smooth="yes"/>
      <point x="342" y="1318"/>
      <point x="401" y="1377"/>
      <point x="663" y="1377" type="curve" smooth="yes"/>
      <point x="793" y="1377"/>
      <point x="913" y="1372"/>
      <point x="946" y="1340" type="curve" smooth="yes"/>
      <point x="979" y="1307"/>
      <point x="980" y="1255"/>
      <point x="980" y="1142" type="curve"/>
      <point x="1112" y="1149" type="line"/>
      <point x="1112" y="1291" type="line" smooth="yes"/>
      <point x="1111" y="1473"/>
      <point x="895" y="1494"/>
      <point x="665" y="1494" type="curve" smooth="yes"/>
      <point x="179" y="1494"/>
      <point x="187" y="1314"/>
      <point x="187" y="768" type="curve" smooth="yes"/>
      <point x="187" y="660" type="line" smooth="yes"/>
      <point x="187" y="82"/>
      <point x="215" y="-20"/>
    </contour>
    <contour>
      <point x="670" y="97" type="curve" smooth="yes"/>
      <point x="346" y="97"/>
      <point x="341" y="189"/>
      <point x="339" y="383" type="curve" smooth="yes"/>
      <point x="337" y="489" type="line" smooth="yes"/>
      <point x="335" y="697"/>
      <point x="320" y="799"/>
      <point x="671" y="799" type="curve" smooth="yes"/>
      <point x="1005" y="799"/>
      <point x="1019" y="747"/>
      <point x="1019" y="496" type="curve" smooth="yes"/>
      <point x="1019" y="340" type="line" smooth="yes"/>
      <point x="1019" y="161"/>
      <point x="995" y="97"/>
    </contour>
  </outline>
</glyph>
<glyph name="seven" format="1">
  <advance width="1256"/>
  <unicode hex="0037"/>
  <outline>
    <contour>
      <point x="413" y="0" type="line"/>
      <point x="554" y="0" type="line"/>
      <point x="1081" y="1323" type="line"/>
      <point x="1081" y="1474" type="line"/>
      <point x="213" y="1474" type="line"/>
      <point x="213" y="1344" type="line"/>
      <point x="952" y="1344" type="line"/>
    </contour>
  </outline>
</glyph>
<glyph name="eight" format="1">
  <advance width="1256"/>
  <unicode hex="0038"/>
  <outline>
    <contour>
      <point x="629" y="-20" type="curve" smooth="yes"/>
      <point x="965" y="-20"/>
      <point x="1097" y="49"/>
      <point x="1097" y="378" type="curve" smooth="yes"/>
      <point x="1097" y="651"/>
      <point x="1031" y="725"/>
      <point x="917" y="790" type="curve"/>
      <point x="997" y="835"/>
      <point x="1026" y="958"/>
      <point x="1026" y="1126" type="curve" smooth="yes"/>
      <point x="1026" y="1408"/>
      <point x="961" y="1494"/>
      <point x="628" y="1494" type="curve" smooth="yes"/>
      <point x="297" y="1494"/>
      <point x="233" y="1408"/>
      <point x="233" y="1126" type="curve" smooth="yes"/>
      <point x="233" y="958"/>
      <point x="261" y="835"/>
      <point x="341" y="790" type="curve"/>
      <point x="228" y="725"/>
      <point x="163" y="651"/>
      <point x="163" y="378" type="curve" smooth="yes"/>
      <point x="163" y="48"/>
      <point x="294" y="-20"/>
    </contour>
    <contour>
      <point x="628" y="104" type="curve" smooth="yes"/>
      <point x="335" y="104"/>
      <point x="299" y="178"/>
      <point x="299" y="298" type="curve" smooth="yes"/>
      <point x="299" y="494" type="line" smooth="yes"/>
      <point x="299" y="711"/>
      <point x="374" y="713"/>
      <point x="629" y="713" type="curve" smooth="yes"/>
      <point x="884" y="713"/>
      <point x="959" y="710"/>
      <point x="959" y="494" type="curve" smooth="yes"/>
      <point x="959" y="298" type="line" smooth="yes"/>
      <point x="959" y="178"/>
      <point x="923" y="104"/>
    </contour>
    <contour>
      <point x="442" y="846" type="line"/>
      <point x="379" y="882"/>
      <point x="364" y="976"/>
      <point x="364" y="1139" type="curve" smooth="yes"/>
      <point x="364" y="1343"/>
      <point x="370" y="1365"/>
      <point x="629" y="1365" type="curve" smooth="yes"/>
      <point x="888" y="1365"/>
      <point x="894" y="1342"/>
      <point x="894" y="1139" type="curve" smooth="yes"/>
      <point x="894" y="966"/>
      <point x="880" y="882"/>
      <point x="818" y="846" type="curve"/>
    </contour>
  </outline>
</glyph>
<glyph name="nine" format="1">
  <advance width="1266"/>
  <unicode hex="0039"/>
  <outline>
    <contour>
      <point x="642" y="-9" type="curve" smooth="yes"/>
      <point x="1131" y="-9"/>
      <point x="1120" y="173"/>
      <point x="1120" y="711" type="curve" smooth="yes"/>
      <point x="1120" y="812" type="line" smooth="yes"/>
      <point x="1120" y="1380"/>
      <point x="1088" y="1484"/>
      <point x="598" y="1484" type="curve" smooth="yes"/>
      <point x="218" y="1484"/>
      <point x="145" y="1380"/>
      <point x="145" y="988" type="curve" smooth="yes"/>
      <point x="145" y="595"/>
      <point x="282" y="544"/>
      <point x="638" y="544" type="curve" smooth="yes"/>
      <point x="848" y="544"/>
      <point x="908" y="585"/>
      <point x="968" y="666" type="curve"/>
      <point x="967" y="357" type="line" smooth="yes"/>
      <point x="966" y="166"/>
      <point x="907" y="108"/>
      <point x="645" y="108" type="curve" smooth="yes"/>
      <point x="515" y="108"/>
      <point x="392" y="112"/>
      <point x="359" y="145" type="curve" smooth="yes"/>
      <point x="326" y="178"/>
      <point x="325" y="209"/>
      <point x="325" y="322" type="curve"/>
      <point x="194" y="314" type="line"/>
      <point x="194" y="198" type="line" smooth="yes"/>
      <point x="195" y="9"/>
      <point x="411" y="-9"/>
    </contour>
    <contour>
      <point x="637" y="680" type="curve" smooth="yes"/>
      <point x="303" y="680"/>
      <point x="289" y="732"/>
      <point x="289" y="984" type="curve" smooth="yes"/>
      <point x="289" y="1123" type="line" smooth="yes"/>
      <point x="289" y="1303"/>
      <point x="313" y="1367"/>
      <point x="639" y="1367" type="curve" smooth="yes"/>
      <point x="962" y="1367"/>
      <point x="968" y="1275"/>
      <point x="970" y="1081" type="curve" smooth="yes"/>
      <point x="972" y="991" type="line" smooth="yes"/>
      <point x="974" y="782"/>
      <point x="988" y="680"/>
    </contour>
  </outline>
</glyph>
<glyph name="colon" format="1">
  <advance width="515"/>
  <unicode hex="003A"/>
  <outline>
    <contour>
      <point x="258" y="139" type="curve" smooth="yes"/>
      <point x="324" y="139"/>
      <point x="390" y="188"/>
      <point x="390" y="283" type="curve" smooth="yes"/>
      <point x="390" y="378"/>
      <point x="324" y="427"/>
      <point x="257" y="427" type="curve" smooth="yes"/>
      <point x="193" y="427"/>
      <point x="128" y="380"/>
      <point x="128" y="283" type="curve" smooth="yes"/>
      <point x="128" y="186"/>
      <point x="193" y="139"/>
    </contour>
    <contour>
      <point x="261" y="925" type="curve" smooth="yes"/>
      <point x="326" y="925"/>
      <point x="390" y="973"/>
      <point x="390" y="1071" type="curve" smooth="yes"/>
      <point x="390" y="1166"/>
      <point x="324" y="1215"/>
      <point x="258" y="1215" type="curve" smooth="yes"/>
      <point x="193" y="1215"/>
      <point x="128" y="1168"/>
      <point x="128" y="1071" type="curve" smooth="yes"/>
      <point x="128" y="975"/>
      <point x="195" y="925"/>
    </contour>
  </outline>
</glyph>
<glyph name="semicolon" format="1">
  <advance width="540"/>
  <unicode hex="003B"/>
  <outline>
    <contour>
      <point x="174" y="-97" type="curve" smooth="yes"/>
      <point x="302" y="-97"/>
      <point x="419" y="88"/>
      <point x="419" y="255" type="curve" smooth="yes"/>
      <point x="419" y="341"/>
      <point x="365" y="420"/>
      <point x="286" y="420" type="curve" smooth="yes"/>
      <point x="196" y="420"/>
      <point x="147" y="349"/>
      <point x="147" y="276" type="curve" smooth="yes"/>
      <point x="147" y="200"/>
      <point x="206" y="131"/>
      <point x="287" y="134" type="curve"/>
      <point x="288" y="42"/>
      <point x="202" y="-34"/>
      <point x="113" y="-34" type="curve"/>
      <point x="113" y="-92" type="line"/>
      <point x="124" y="-96"/>
      <point x="143" y="-97"/>
    </contour>
    <contour>
      <point x="284" y="925" type="curve" smooth="yes"/>
      <point x="370" y="925"/>
      <point x="415" y="991"/>
      <point x="415" y="1067" type="curve" smooth="yes"/>
      <point x="415" y="1138"/>
      <point x="363" y="1208"/>
      <point x="284" y="1208" type="curve" smooth="yes"/>
      <point x="197" y="1208"/>
      <point x="153" y="1140"/>
      <point x="153" y="1067" type="curve" smooth="yes"/>
      <point x="153" y="995"/>
      <point x="202" y="925"/>
    </contour>
  </outline>
</glyph>
<glyph name="less" format="1">
  <advance width="918"/>
  <unicode hex="003C"/>
  <outline>
    <contour>
      <point x="782" y="269" type="line"/>
      <point x="782" y="456" type="line"/>
      <point x="274" y="763" type="line"/>
      <point x="782" y="1060" type="line"/>
      <point x="782" y="1256" type="line"/>
      <point x="111" y="803" type="line"/>
      <point x="111" y="704" type="line"/>
    </contour>
  </outline>
</glyph>
<glyph name="equal" format="1">
  <advance width="1105"/>
  <unicode hex="003D"/>
  <outline>
    <contour>
      <point x="135" y="361" type="line"/>
      <point x="964" y="361" type="line"/>
      <point x="964" y="528" type="line"/>
      <point x="135" y="528" type="line"/>
    </contour>
    <contour>
      <point x="135" y="712" type="line"/>
      <point x="964" y="712" type="line"/>
      <point x="964" y="879" type="line"/>
      <point x="135" y="879" type="line"/>
    </contour>
  </outline>
</glyph>
<glyph name="greater" format="1">
  <advance width="921"/>
  <unicode hex="003E"/>
  <outline>
    <contour>
      <point x="135" y="269" type="line"/>
      <point x="809" y="704" type="line"/>
      <point x="809" y="803" type="line"/>
      <point x="135" y="1256" type="line"/>
      <point x="135" y="1060" type="line"/>
      <point x="644" y="762" type="line"/>
      <point x="135" y="455" type="line"/>
    </contour>
  </outline>
</glyph>
<glyph name="question" format="1">
  <advance width="866"/>
  <unicode hex="003F"/>
  <outline>
    <contour>
      <point x="348" y="431" type="curve" smooth="yes"/>
      <point x="388" y="431"/>
      <point x="400" y="450"/>
      <point x="400" y="470" type="curve"/>
      <point x="407" y="583"/>
      <point x="481" y="682"/>
      <point x="581" y="804" type="curve" smooth="yes"/>
      <point x="693" y="932"/>
      <point x="744" y="1049"/>
      <point x="744" y="1166" type="curve" smooth="yes"/>
      <point x="744" y="1411"/>
      <point x="599" y="1506"/>
      <point x="369" y="1506" type="curve" smooth="yes"/>
      <point x="292" y="1506"/>
      <point x="214" y="1483"/>
      <point x="125" y="1441" type="curve"/>
      <point x="145" y="1305" type="line"/>
      <point x="261" y="1332"/>
      <point x="328" y="1343"/>
      <point x="375" y="1343" type="curve" smooth="yes"/>
      <point x="496" y="1343"/>
      <point x="559" y="1266"/>
      <point x="559" y="1149" type="curve" smooth="yes"/>
      <point x="559" y="1049"/>
      <point x="536" y="1005"/>
      <point x="476" y="932" type="curve" smooth="yes"/>
      <point x="357" y="775"/>
      <point x="299" y="676"/>
      <point x="299" y="468" type="curve"/>
      <point x="299" y="453"/>
      <point x="313" y="431"/>
    </contour>
    <contour>
      <point x="342" y="-30" type="curve" smooth="yes"/>
      <point x="409" y="-30"/>
      <point x="473" y="15"/>
      <point x="473" y="109" type="curve" smooth="yes"/>
      <point x="473" y="198"/>
      <point x="403" y="246"/>
      <point x="335" y="246" type="curve" smooth="yes"/>
      <point x="270" y="246"/>
      <point x="205" y="202"/>
      <point x="205" y="109" type="curve" smooth="yes"/>
      <point x="205" y="18"/>
      <point x="274" y="-30"/>
    </contour>
  </outline>
</glyph>
<glyph name="at" format="1">
  <advance width="2008"/>
  <unicode hex="0040"/>
  <outline>
    <contour>
      <point x="1008" y="-197" type="curve" smooth="yes"/>
      <point x="1253" y="-197"/>
      <point x="1405" y="-167"/>
      <point x="1583" y="-103" type="curve"/>
      <point x="1548" y="-12" type="line"/>
      <point x="1356" y="-81"/>
      <point x="1121" y="-101"/>
      <point x="1000" y="-101" type="curve" smooth="yes"/>
      <point x="474" y="-101"/>
      <point x="329" y="145"/>
      <point x="329" y="650" type="curve" smooth="yes"/>
      <point x="329" y="1167"/>
      <point x="499" y="1381"/>
      <point x="1033" y="1381" type="curve" smooth="yes"/>
      <point x="1610" y="1381"/>
      <point x="1678" y="1159"/>
      <point x="1678" y="630" type="curve" smooth="yes"/>
      <point x="1678" y="234"/>
      <point x="1679" y="313"/>
      <point x="1608" y="259" type="curve"/>
      <point x="1566" y="229"/>
      <point x="1516" y="228"/>
      <point x="1409" y="228" type="curve"/>
      <point x="1409" y="932" type="line" smooth="yes"/>
      <point x="1409" y="1092"/>
      <point x="1290" y="1180"/>
      <point x="1066" y="1180" type="curve" smooth="yes"/>
      <point x="819" y="1180"/>
      <point x="676" y="1163"/>
      <point x="675" y="982" type="curve" smooth="yes"/>
      <point x="675" y="947"/>
      <point x="679" y="928"/>
      <point x="687" y="888" type="curve"/>
      <point x="777" y="888" type="line"/>
      <point x="773" y="947"/>
      <point x="759" y="994"/>
      <point x="788" y="1031" type="curve" smooth="yes"/>
      <point x="822" y="1074"/>
      <point x="900" y="1081"/>
      <point x="1033" y="1081" type="curve"/>
      <point x="1234" y="1081"/>
      <point x="1288" y="1061"/>
      <point x="1288" y="906" type="curve" smooth="yes"/>
      <point x="1288" y="692" type="line"/>
      <point x="1115" y="724"/>
      <point x="1070" y="737"/>
      <point x="953" y="737" type="curve" smooth="yes"/>
      <point x="753" y="737"/>
      <point x="638" y="660"/>
      <point x="637" y="441" type="curve" smooth="yes"/>
      <point x="636" y="195"/>
      <point x="747" y="134"/>
      <point x="1014" y="134" type="curve" smooth="yes"/>
      <point x="1258" y="134"/>
      <point x="1312" y="198"/>
      <point x="1344" y="310" type="curve"/>
      <point x="1353" y="232"/>
      <point x="1400" y="168"/>
      <point x="1477" y="169" type="curve" smooth="yes"/>
      <point x="1785" y="169"/>
      <point x="1800" y="268"/>
      <point x="1800" y="610" type="curve" smooth="yes"/>
      <point x="1800" y="1248"/>
      <point x="1666" y="1475"/>
      <point x="1012" y="1475" type="curve" smooth="yes"/>
      <point x="411" y="1475"/>
      <point x="204" y="1194"/>
      <point x="204" y="616" type="curve" smooth="yes"/>
      <point x="204" y="27"/>
      <point x="410" y="-197"/>
    </contour>
    <contour>
      <point x="1031" y="211" type="curve" smooth="yes"/>
      <point x="768" y="211"/>
      <point x="743" y="263"/>
      <point x="743" y="407" type="curve" smooth="yes"/>
      <point x="743" y="667"/>
      <point x="794" y="632"/>
      <point x="977" y="634" type="curve" smooth="yes"/>
      <point x="1288" y="636" type="line"/>
      <point x="1287" y="482" type="line" smooth="yes"/>
      <point x="1286" y="343"/>
      <point x="1211" y="211"/>
    </contour>
  </outline>
</glyph>
<glyph name="A" format="1">
  <advance width="1353"/>
  <unicode hex="0041"/>
  <outline>
    <contour>
      <point x="676" y="1480" type="move" name="top"/>
    </contour>
    <contour>
      <point x="1173" y="0" type="move" name="ogonek"/>
    </contour>
    <contour>
      <point x="676" y="0" type="move" name="bot"/>
    </contour>
    <contour>
      <point x="579" y="1474" type="line"/>
      <point x="99" y="0" type="line"/>
      <point x="255" y="0" type="line"/>
      <point x="374" y="383" type="line"/>
      <point x="965" y="383" type="line"/>
      <point x="1088" y="0" type="line"/>
      <point x="1256" y="0" type="line"/>
      <point x="786" y="1474" type="line"/>
    </contour>
    <contour>
      <point x="920" y="517" type="line"/>
      <point x="419" y="517" type="line"/>
      <point x="672" y="1357" type="line"/>
      <point x="671" y="1357" type="line"/>
    </contour>
  </outline>
</glyph>
<glyph name="B" format="1">
  <advance width="1330"/>
  <unicode hex="0042"/>
  <outline>
    <contour>
      <point x="682" y="1475" type="move" name="top"/>
    </contour>
    <contour>
      <point x="193" y="0" type="line"/>
      <point x="684" y="0" type="line" smooth="yes"/>
      <point x="1122" y="0"/>
      <point x="1196" y="15"/>
      <point x="1196" y="424" type="curve" smooth="yes"/>
      <point x="1196" y="621"/>
      <point x="1171" y="772"/>
      <point x="947" y="794" type="curve"/>
      <point x="947" y="795" type="line"/>
      <point x="1096" y="826"/>
      <point x="1142" y="880"/>
      <point x="1142" y="1087" type="curve"/>
      <point x="1141" y="1207" type="line" smooth="yes"/>
      <point x="1140" y="1425"/>
      <point x="1007" y="1474"/>
      <point x="720" y="1474" type="curve" smooth="yes"/>
      <point x="193" y="1474" type="line"/>
    </contour>
    <contour>
      <point x="338" y="138" type="line"/>
      <point x="338" y="723" type="line"/>
      <point x="594" y="723" type="line" smooth="yes"/>
      <point x="1084" y="723"/>
      <point x="1052" y="691"/>
      <point x="1056" y="433" type="curve" smooth="yes"/>
      <point x="1058" y="360" type="line" smooth="yes"/>
      <point x="1058" y="192"/>
      <point x="1022" y="138"/>
      <point x="762" y="138" type="curve" smooth="yes"/>
    </contour>
    <contour>
      <point x="338" y="846" type="line"/>
      <point x="338" y="1335" type="line"/>
      <point x="633" y="1335" type="line" smooth="yes"/>
      <point x="1003" y="1335"/>
      <point x="995" y="1324"/>
      <point x="995" y="1129" type="curve" smooth="yes"/>
      <point x="995" y="995" type="line" smooth="yes"/>
      <point x="995" y="898"/>
      <point x="961" y="846"/>
      <point x="555" y="846" type="curve" smooth="yes"/>
    </contour>
  </outline>
</glyph>
<glyph name="C" format="1">
  <advance width="1308"/>
  <unicode hex="0043"/>
  <outline>
    <contour>
      <point x="712" y="1475" type="move" name="top"/>
    </contour>
    <contour>
      <point x="712" y="0" type="move" name="bot"/>
    </contour>
    <contour>
      <point x="149" y="1044" type="curve" smooth="yes"/>
      <point x="143" y="941"/>
      <point x="140" y="885"/>
      <point x="140" y="741" type="curve" smooth="yes"/>
      <point x="140" y="606"/>
      <point x="141" y="548"/>
      <point x="150" y="447" type="curve" smooth="yes"/>
      <point x="184" y="108"/>
      <point x="260" y="-20"/>
      <point x="759" y="-20" type="curve" smooth="yes"/>
      <point x="1089" y="-20"/>
      <point x="1179" y="57"/>
      <point x="1206" y="327" type="curve" smooth="yes"/>
      <point x="1217" y="412" type="line"/>
      <point x="1103" y="421" type="line"/>
      <point x="1092" y="275"/>
      <point x="1092" y="257"/>
      <point x="1046" y="198" type="curve" smooth="yes"/>
      <point x="1001" y="139"/>
      <point x="922" y="116"/>
      <point x="726" y="116" type="curve" smooth="yes"/>
      <point x="385" y="116"/>
      <point x="305" y="179"/>
      <point x="297" y="299" type="curve" smooth="yes"/>
      <point x="288" y="440"/>
      <point x="287" y="502"/>
      <point x="287" y="649" type="curve" smooth="yes"/>
      <point x="287" y="859"/>
      <point x="288" y="977"/>
      <point x="297" y="1179" type="curve" smooth="yes"/>
      <point x="305" y="1345"/>
      <point x="438" y="1360"/>
      <point x="725" y="1360" type="curve" smooth="yes"/>
      <point x="884" y="1360"/>
      <point x="959" y="1359"/>
      <point x="1012" y="1313" type="curve" smooth="yes"/>
      <point x="1065" y="1267"/>
      <point x="1084" y="1247"/>
      <point x="1101" y="1068" type="curve"/>
      <point x="1216" y="1092" type="line"/>
      <point x="1206" y="1142" type="line" smooth="yes"/>
      <point x="1170" y="1432"/>
      <point x="1058" y="1494"/>
      <point x="739" y="1494" type="curve" smooth="yes"/>
      <point x="260" y="1494"/>
      <point x="181" y="1413"/>
    </contour>
  </outline>
</glyph>
<glyph name="D" format="1">
  <advance width="1404"/>
  <unicode hex="0044"/>
  <outline>
    <contour>
      <point x="724" y="1480" type="move" name="top"/>
    </contour>
    <contour>
      <point x="724" y="0" type="move" name="bot"/>
    </contour>
    <contour>
      <point x="321" y="763" type="move" name="mid"/>
    </contour>
    <contour>
      <point x="193" y="1474" type="line"/>
      <point x="193" y="0" type="line"/>
      <point x="516" y="0" type="line" smooth="yes"/>
      <point x="1198" y="0"/>
      <point x="1262" y="25"/>
      <point x="1271" y="731" type="curve"/>
      <point x="1273" y="803" type="line"/>
      <point x="1273" y="1319"/>
      <point x="1188" y="1474"/>
      <point x="685" y="1474" type="curve" smooth="yes"/>
    </contour>
    <contour>
      <point x="1112" y="862" type="curve" smooth="yes"/>
      <point x="1112" y="632" type="line" smooth="yes"/>
      <point x="1112" y="112"/>
      <point x="1036" y="141"/>
      <point x="603" y="141" type="curve" smooth="yes"/>
      <point x="356" y="141" type="line"/>
      <point x="356" y="1333" type="line"/>
      <point x="570" y="1333" type="line" smooth="yes"/>
      <point x="1112" y="1333"/>
      <point x="1112" y="1306"/>
    </contour>
  </outline>
</glyph>
<glyph name="E" format="1">
  <advance width="1123"/>
  <unicode hex="0045"/>
  <outline>
    <contour>
      <point x="580" y="1475" type="move" name="top"/>
    </contour>
    <contour>
      <point x="659" y="0" type="move" name="ogonek"/>
    </contour>
    <contour>
      <point x="580" y="0" type="move" name="bot"/>
    </contour>
    <contour>
      <point x="193" y="1474" type="line"/>
      <point x="193" y="0" type="line"/>
      <point x="1023" y="0" type="line"/>
      <point x="1046" y="138" type="line"/>
      <point x="340" y="138" type="line"/>
      <point x="340" y="693" type="line"/>
      <point x="931" y="693" type="line"/>
      <point x="931" y="841" type="line"/>
      <point x="340" y="841" type="line"/>
      <point x="340" y="1335" type="line"/>
      <point x="1034" y="1335" type="line"/>
      <point x="1013" y="1474" type="line"/>
    </contour>
  </outline>
</glyph>
<glyph name="F" format="1">
  <advance width="1041"/>
  <unicode hex="0046"/>
  <outline>
    <contour>
      <point x="594" y="1475" type="move" name="top"/>
    </contour>
    <contour>
      <point x="537" y="0" type="move" name="bot"/>
    </contour>
    <contour>
      <point x="193" y="1474" type="line"/>
      <point x="193" y="0" type="line"/>
      <point x="340" y="0" type="line"/>
      <point x="340" y="685" type="line"/>
      <point x="893" y="685" type="line"/>
      <point x="893" y="834" type="line"/>
      <point x="340" y="834" type="line"/>
      <point x="340" y="1335" type="line"/>
      <point x="992" y="1335" type="line"/>
      <point x="971" y="1474" type="line"/>
    </contour>
  </outline>
</glyph>
<glyph name="G" format="1">
  <advance width="1333"/>
  <unicode hex="0047"/>
  <outline>
    <contour>
      <point x="665" y="1475" type="move" name="top"/>
    </contour>
    <contour>
      <point x="665" y="0" type="move" name="bot"/>
    </contour>
    <contour>
      <point x="176" y="1208" type="curve" smooth="yes"/>
      <point x="146" y="1077"/>
      <point x="140" y="964"/>
      <point x="140" y="737" type="curve" smooth="yes"/>
      <point x="140" y="526"/>
      <point x="144" y="426"/>
      <point x="163" y="298" type="curve" smooth="yes"/>
      <point x="210" y="60"/>
      <point x="315" y="-20"/>
      <point x="640" y="-20" type="curve" smooth="yes"/>
      <point x="944" y="-20"/>
      <point x="1117" y="29"/>
      <point x="1205" y="110" type="curve"/>
      <point x="1205" y="741" type="line"/>
      <point x="708" y="741" type="line"/>
      <point x="727" y="593" type="line"/>
      <point x="1063" y="593" type="line"/>
      <point x="1063" y="171" type="line"/>
      <point x="1035" y="135"/>
      <point x="908" y="118"/>
      <point x="651" y="118" type="curve" smooth="yes"/>
      <point x="284" y="118"/>
      <point x="308" y="160"/>
      <point x="298" y="373" type="curve" smooth="yes"/>
      <point x="292" y="530"/>
      <point x="288" y="603"/>
      <point x="288" y="768" type="curve" smooth="yes"/>
      <point x="288" y="928"/>
      <point x="288" y="1009"/>
      <point x="298" y="1167" type="curve" smooth="yes"/>
      <point x="308" y="1313"/>
      <point x="360" y="1360"/>
      <point x="666" y="1360" type="curve" smooth="yes"/>
      <point x="950" y="1360"/>
      <point x="1040" y="1346"/>
      <point x="1044" y="1244" type="curve" smooth="yes"/>
      <point x="1056" y="1074" type="line"/>
      <point x="1176" y="1110" type="line"/>
      <point x="1177" y="1129"/>
      <point x="1178" y="1114"/>
      <point x="1178" y="1133" type="curve" smooth="yes"/>
      <point x="1178" y="1493"/>
      <point x="970" y="1494"/>
      <point x="698" y="1494" type="curve" smooth="yes"/>
      <point x="337" y="1494"/>
      <point x="235" y="1415"/>
    </contour>
  </outline>
</glyph>
<glyph name="H" format="1">
  <advance width="1425"/>
  <unicode hex="0048"/>
  <outline>
    <contour>
      <point x="713" y="1480" type="move" name="top"/>
    </contour>
    <contour>
      <point x="713" y="0" type="move" name="bot"/>
    </contour>
    <contour>
      <point x="718" y="740" type="move" name="center"/>
    </contour>
    <contour>
      <point x="1069" y="1474" type="line"/>
      <point x="1069" y="832" type="line"/>
      <point x="356" y="832" type="line"/>
      <point x="356" y="1474" type="line"/>
      <point x="193" y="1474" type="line"/>
      <point x="193" y="0" type="line"/>
      <point x="356" y="0" type="line"/>
      <point x="356" y="683" type="line"/>
      <point x="1069" y="683" type="line"/>
      <point x="1069" y="0" type="line"/>
      <point x="1232" y="0" type="line"/>
      <point x="1232" y="1474" type="line"/>
    </contour>
  </outline>
</glyph>
<glyph name="I" format="1">
  <advance width="480"/>
  <unicode hex="0049"/>
  <outline>
    <contour>
      <point x="241" y="1480" type="move" name="top"/>
    </contour>
    <contour>
      <point x="246" y="0" type="move" name="ogonek"/>
    </contour>
    <contour>
      <point x="241" y="0" type="move" name="bot"/>
    </contour>
    <contour>
      <point x="159" y="1474" type="line"/>
      <point x="159" y="0" type="line"/>
      <point x="321" y="0" type="line"/>
      <point x="321" y="1474" type="line"/>
    </contour>
  </outline>
</glyph>
<glyph name="J" format="1">
  <advance width="723"/>
  <unicode hex="004A"/>
  <outline>
    <contour>
      <point x="485" y="1480" type="move" name="top"/>
    </contour>
    <contour>
      <point x="362" y="0" type="move" name="bot"/>
    </contour>
    <contour>
      <point x="268" y="5" type="curve" smooth="yes"/>
      <point x="450" y="5"/>
      <point x="567" y="47"/>
      <point x="567" y="326" type="curve" smooth="yes"/>
      <point x="567" y="1474" type="line"/>
      <point x="405" y="1474" type="line"/>
      <point x="405" y="349" type="line" smooth="yes"/>
      <point x="405" y="194"/>
      <point x="399" y="159"/>
      <point x="262" y="143" type="curve" smooth="yes"/>
      <point x="218" y="137"/>
      <point x="181" y="136"/>
      <point x="106" y="136" type="curve"/>
      <point x="109" y="11" type="line"/>
      <point x="101" y="13"/>
      <point x="199" y="5"/>
    </contour>
  </outline>
</glyph>
<glyph name="K" format="1">
  <advance width="1212"/>
  <unicode hex="004B"/>
  <outline>
    <contour>
      <point x="601" y="1475" type="move" name="top"/>
    </contour>
    <contour>
      <point x="601" y="0" type="move" name="bot"/>
    </contour>
    <contour>
      <point x="958" y="1474" type="line"/>
      <point x="460" y="887" type="line"/>
      <point x="338" y="743" type="line"/>
      <point x="339" y="923" type="line"/>
      <point x="339" y="1474" type="line"/>
      <point x="193" y="1474" type="line"/>
      <point x="193" y="0" type="line"/>
      <point x="339" y="0" type="line"/>
      <point x="339" y="595" type="line"/>
      <point x="420" y="682" type="line"/>
      <point x="1026" y="0" type="line"/>
      <point x="1215" y="0" type="line"/>
      <point x="537" y="771" type="line"/>
      <point x="1146" y="1474" type="line"/>
    </contour>
  </outline>
</glyph>
<glyph name="L" format="1">
  <advance width="987"/>
  <unicode hex="004C"/>
  <outline>
    <contour>
      <point x="277" y="1480" type="move" name="top"/>
    </contour>
    <contour>
      <point x="324" y="1078" type="move" name="caron.alt"/>
    </contour>
    <contour>
      <point x="540" y="0" type="move" name="bot"/>
    </contour>
    <contour>
      <point x="193" y="1474" type="line"/>
      <point x="193" y="0" type="line"/>
      <point x="931" y="0" type="line"/>
      <point x="953" y="140" type="line"/>
      <point x="356" y="140" type="line"/>
      <point x="356" y="1474" type="line"/>
    </contour>
  </outline>
</glyph>
<glyph name="M" format="1">
  <advance width="1733"/>
  <unicode hex="004D"/>
  <outline>
    <contour>
      <point x="869" y="1475" type="move" name="top"/>
    </contour>
    <contour>
      <point x="869" y="0" type="move" name="bot"/>
    </contour>
    <contour>
      <point x="1334" y="1466" type="line"/>
      <point x="872" y="250" type="line"/>
      <point x="871" y="250" type="line"/>
      <point x="400" y="1466" type="line"/>
      <point x="243" y="1466" type="line"/>
      <point x="143" y="0" type="line"/>
      <point x="292" y="0" type="line"/>
      <point x="361" y="1232" type="line"/>
      <point x="362" y="1232" type="line"/>
      <point x="834" y="0" type="line"/>
      <point x="906" y="0" type="line"/>
      <point x="1352" y="1232" type="line"/>
      <point x="1356" y="1232" type="line"/>
      <point x="1429" y="0" type="line"/>
      <point x="1592" y="0" type="line"/>
      <point x="1491" y="1466" type="line"/>
    </contour>
  </outline>
</glyph>
<glyph name="N" format="1">
  <advance width="1456"/>
  <unicode hex="004E"/>
  <outline>
    <contour>
      <point x="750" y="1480" type="move" name="top"/>
    </contour>
    <contour>
      <point x="728" y="0" type="move" name="bot"/>
    </contour>
    <contour>
      <point x="1111" y="1474" type="line"/>
      <point x="1111" y="216" type="line"/>
      <point x="367" y="1474" type="line"/>
      <point x="193" y="1474" type="line"/>
      <point x="193" y="0" type="line"/>
      <point x="344" y="0" type="line"/>
      <point x="344" y="1247" type="line"/>
      <point x="1085" y="0" type="line"/>
      <point x="1263" y="0" type="line"/>
      <point x="1263" y="1474" type="line"/>
    </contour>
  </outline>
</glyph>
<glyph name="O" format="1">
  <advance width="1416"/>
  <unicode hex="004F"/>
  <outline>
    <contour>
      <point x="708" y="1480" type="move" name="top"/>
    </contour>
    <contour>
      <point x="802" y="0" type="move" name="ogonek"/>
    </contour>
    <contour>
      <point x="708" y="0" type="move" name="bot"/>
    </contour>
    <contour>
      <point x="708" y="116" type="curve" smooth="yes"/>
      <point x="341" y="116"/>
      <point x="315" y="170"/>
      <point x="309" y="419" type="curve" smooth="yes"/>
      <point x="305" y="523"/>
      <point x="305" y="547"/>
      <point x="305" y="735" type="curve" smooth="yes"/>
      <point x="305" y="927"/>
      <point x="305" y="951"/>
      <point x="309" y="1055" type="curve" smooth="yes"/>
      <point x="315" y="1304"/>
      <point x="341" y="1358"/>
      <point x="708" y="1358" type="curve" smooth="yes"/>
      <point x="1075" y="1358"/>
      <point x="1101" y="1304"/>
      <point x="1107" y="1055" type="curve" smooth="yes"/>
      <point x="1111" y="951"/>
      <point x="1111" y="927"/>
      <point x="1111" y="735" type="curve" smooth="yes"/>
      <point x="1111" y="547"/>
      <point x="1111" y="523"/>
      <point x="1107" y="419" type="curve" smooth="yes"/>
      <point x="1101" y="170"/>
      <point x="1075" y="116"/>
    </contour>
    <contour>
      <point x="708" y="-20" type="curve" smooth="yes"/>
      <point x="1227" y="-20"/>
      <point x="1275" y="145"/>
      <point x="1275" y="726" type="curve" smooth="yes"/>
      <point x="1275" y="748" type="line" smooth="yes"/>
      <point x="1275" y="1330"/>
      <point x="1230" y="1494"/>
      <point x="708" y="1494" type="curve" smooth="yes"/>
      <point x="190" y="1494"/>
      <point x="141" y="1330"/>
      <point x="141" y="748" type="curve" smooth="yes"/>
      <point x="141" y="726" type="line" smooth="yes"/>
      <point x="141" y="145"/>
      <point x="191" y="-20"/>
    </contour>
  </outline>
</glyph>
<glyph name="P" format="1">
  <advance width="1266"/>
  <unicode hex="0050"/>
  <outline>
    <contour>
      <point x="638" y="1480" type="move" name="top"/>
    </contour>
    <contour>
      <point x="638" y="0" type="move" name="bot"/>
    </contour>
    <contour>
      <point x="193" y="0" type="line"/>
      <point x="355" y="0" type="line"/>
      <point x="355" y="539" type="line"/>
      <point x="776" y="539" type="line" smooth="yes"/>
      <point x="1015" y="539"/>
      <point x="1154" y="595"/>
      <point x="1162" y="1006" type="curve" smooth="yes"/>
      <point x="1162" y="974" type="line" smooth="yes"/>
      <point x="1162" y="1392"/>
      <point x="1068" y="1474"/>
      <point x="712" y="1474" type="curve" smooth="yes"/>
      <point x="193" y="1474" type="line"/>
    </contour>
    <contour>
      <point x="355" y="679" type="line"/>
      <point x="355" y="1337" type="line"/>
      <point x="780" y="1337" type="line" smooth="yes"/>
      <point x="854" y="1337"/>
      <point x="896" y="1327"/>
      <point x="929" y="1300" type="curve" smooth="yes"/>
      <point x="986" y="1253"/>
      <point x="996" y="1210"/>
      <point x="1000" y="1018" type="curve" smooth="yes"/>
      <point x="1000" y="838"/>
      <point x="1001" y="780"/>
      <point x="923" y="723" type="curve" smooth="yes"/>
      <point x="883" y="693"/>
      <point x="829" y="679"/>
      <point x="735" y="679" type="curve" smooth="yes"/>
    </contour>
  </outline>
</glyph>
<glyph name="Q" format="1">
  <advance width="1405"/>
  <unicode hex="0051"/>
  <outline>
    <contour>
      <point x="866" y="19" type="line"/>
      <point x="1106" y="-342" type="line"/>
      <point x="1235" y="-275" type="line"/>
      <point x="1030" y="54" type="line"/>
    </contour>
    <component base="O"/>
  </outline>
</glyph>
<glyph name="R" format="1">
  <advance width="1332"/>
  <unicode hex="0052"/>
  <outline>
    <contour>
      <point x="680" y="1475" type="move" name="top"/>
    </contour>
    <contour>
      <point x="680" y="0" type="move" name="bot"/>
    </contour>
    <contour>
      <point x="193" y="0" type="line"/>
      <point x="339" y="0" type="line"/>
      <point x="339" y="640" type="line"/>
      <point x="667" y="640" type="line" smooth="yes"/>
      <point x="838" y="640"/>
      <point x="953" y="605"/>
      <point x="981" y="416" type="curve" smooth="yes"/>
      <point x="1051" y="0" type="line"/>
      <point x="1214" y="0" type="line"/>
      <point x="1126" y="469" type="line" smooth="yes"/>
      <point x="1099" y="601"/>
      <point x="1051" y="677"/>
      <point x="945" y="702" type="curve"/>
      <point x="945" y="702" type="line" smooth="yes"/>
      <point x="1081" y="729"/>
      <point x="1180" y="798"/>
      <point x="1180" y="1075" type="curve" smooth="yes"/>
      <point x="1180" y="1464"/>
      <point x="986" y="1474"/>
      <point x="584" y="1474" type="curve" smooth="yes"/>
      <point x="193" y="1474" type="line"/>
    </contour>
    <contour>
      <point x="339" y="788" type="line"/>
      <point x="339" y="1334" type="line"/>
      <point x="699" y="1334" type="line" smooth="yes"/>
      <point x="1018" y="1334"/>
      <point x="1034" y="1319"/>
      <point x="1034" y="1079" type="curve" smooth="yes"/>
      <point x="1034" y="818"/>
      <point x="1001" y="788"/>
      <point x="713" y="788" type="curve" smooth="yes"/>
    </contour>
  </outline>
</glyph>
<glyph name="S" format="1">
  <advance width="1265"/>
  <unicode hex="0053"/>
  <outline>
    <contour>
      <point x="626" y="1480" type="move" name="top"/>
    </contour>
    <contour>
      <point x="626" y="0" type="move" name="bot"/>
    </contour>
    <contour>
      <point x="623" y="-22" type="curve" smooth="yes"/>
      <point x="982" y="-22"/>
      <point x="1126" y="-5"/>
      <point x="1126" y="421" type="curve" smooth="yes"/>
      <point x="1126" y="770"/>
      <point x="1018" y="789"/>
      <point x="763" y="831" type="curve" smooth="yes"/>
      <point x="453" y="884" type="line"/>
      <point x="410" y="891"/>
      <point x="374" y="903"/>
      <point x="351" y="920" type="curve" smooth="yes"/>
      <point x="317" y="953"/>
      <point x="311" y="971"/>
      <point x="311" y="1050" type="curve" smooth="yes"/>
      <point x="311" y="1298"/>
      <point x="337" y="1342"/>
      <point x="653" y="1342" type="curve" smooth="yes"/>
      <point x="810" y="1342"/>
      <point x="873" y="1332"/>
      <point x="908" y="1296" type="curve" smooth="yes"/>
      <point x="945" y="1260"/>
      <point x="942" y="1225"/>
      <point x="951" y="1121" type="curve"/>
      <point x="1093" y="1169" type="line"/>
      <point x="1093" y="1453"/>
      <point x="961" y="1495"/>
      <point x="619" y="1495" type="curve" smooth="yes"/>
      <point x="254" y="1495"/>
      <point x="155" y="1426"/>
      <point x="155" y="1077" type="curve" smooth="yes"/>
      <point x="155" y="858"/>
      <point x="209" y="770"/>
      <point x="374" y="746" type="curve" smooth="yes"/>
      <point x="723" y="687" type="line"/>
      <point x="711" y="691"/>
      <point x="886" y="661"/>
      <point x="886" y="669" type="curve" smooth="yes"/>
      <point x="953" y="656"/>
      <point x="964" y="621"/>
      <point x="965" y="429" type="curve" smooth="yes"/>
      <point x="965" y="174"/>
      <point x="939" y="126"/>
      <point x="628" y="126" type="curve" smooth="yes"/>
      <point x="446" y="126"/>
      <point x="372" y="141"/>
      <point x="331" y="187" type="curve" smooth="yes"/>
      <point x="292" y="233"/>
      <point x="294" y="272"/>
      <point x="280" y="398" type="curve"/>
      <point x="133" y="364" type="line"/>
      <point x="148" y="70"/>
      <point x="156" y="-22"/>
    </contour>
  </outline>
</glyph>
<glyph name="T" format="1">
  <advance width="1058"/>
  <unicode hex="0054"/>
  <outline>
    <contour>
      <point x="530" y="1480" type="move" name="top"/>
    </contour>
    <contour>
      <point x="530" y="0" type="move" name="bot"/>
    </contour>
    <contour>
      <point x="527" y="903" type="move" name="mid"/>
    </contour>
    <contour>
      <point x="60" y="1474" type="line"/>
      <point x="60" y="1338" type="line"/>
      <point x="443" y="1338" type="line"/>
      <point x="443" y="0" type="line"/>
      <point x="606" y="0" type="line"/>
      <point x="606" y="1338" type="line"/>
      <point x="999" y="1338" type="line"/>
      <point x="999" y="1474" type="line"/>
    </contour>
  </outline>
</glyph>
<glyph name="U" format="1">
  <advance width="1389"/>
  <unicode hex="0055"/>
  <outline>
    <contour>
      <point x="695" y="1480" type="move" name="top"/>
    </contour>
    <contour>
      <point x="766" y="0" type="move" name="ogonek"/>
    </contour>
    <contour>
      <point x="695" y="0" type="move" name="bot"/>
    </contour>
    <contour>
      <point x="145" y="1474" type="line"/>
      <point x="145" y="587" type="line" smooth="yes"/>
      <point x="145" y="82"/>
      <point x="256" y="-20"/>
      <point x="693" y="-20" type="curve" smooth="yes"/>
      <point x="1150" y="-20"/>
      <point x="1244" y="104"/>
      <point x="1244" y="587" type="curve" smooth="yes"/>
      <point x="1244" y="1474" type="line"/>
      <point x="1083" y="1474" type="line"/>
      <point x="1083" y="467" type="line" smooth="yes"/>
      <point x="1083" y="183"/>
      <point x="1054" y="116"/>
      <point x="694" y="116" type="curve" smooth="yes"/>
      <point x="300" y="116"/>
      <point x="308" y="171"/>
      <point x="308" y="578" type="curve" smooth="yes"/>
      <point x="308" y="1474" type="line"/>
    </contour>
  </outline>
</glyph>
<glyph name="V" format="1">
  <advance width="1286"/>
  <unicode hex="0056"/>
  <outline>
    <contour>
      <point x="1058" y="1474" type="line"/>
      <point x="641" y="238" type="line"/>
      <point x="641" y="238" type="line"/>
      <point x="216" y="1474" type="line"/>
      <point x="39" y="1474" type="line"/>
      <point x="563" y="0" type="line"/>
      <point x="710" y="0" type="line"/>
      <point x="1241" y="1474" type="line"/>
    </contour>
  </outline>
</glyph>
<glyph name="W" format="1">
  <advance width="1895"/>
  <unicode hex="0057"/>
  <outline>
    <contour>
      <point x="945" y="1475" type="move" name="top"/>
    </contour>
    <contour>
      <point x="945" y="0" type="move" name="bot"/>
    </contour>
    <contour>
      <point x="1632" y="1474" type="line"/>
      <point x="1390" y="260" type="line"/>
      <point x="1376" y="261" type="line"/>
      <point x="1038" y="1474" type="line"/>
      <point x="876" y="1474" type="line"/>
      <point x="533" y="251" type="line"/>
      <point x="525" y="251" type="line"/>
      <point x="273" y="1474" type="line"/>
      <point x="119" y="1474" type="line"/>
      <point x="453" y="0" type="line"/>
      <point x="612" y="0" type="line"/>
      <point x="954" y="1197" type="line"/>
      <point x="969" y="1197" type="line"/>
      <point x="1284" y="0" type="line"/>
      <point x="1441" y="0" type="line"/>
      <point x="1777" y="1474" type="line"/>
    </contour>
  </outline>
</glyph>
<glyph name="X" format="1">
  <advance width="1218"/>
  <unicode hex="0058"/>
  <outline>
    <contour>
      <point x="988" y="1474" type="line"/>
      <point x="603" y="879" type="line"/>
      <point x="543" y="774" type="line"/>
      <point x="49" y="0" type="line"/>
      <point x="224" y="0" type="line"/>
      <point x="620" y="615" type="line"/>
      <point x="682" y="728" type="line"/>
      <point x="1158" y="1474" type="line"/>
    </contour>
    <contour>
      <point x="87" y="1474" type="line"/>
      <point x="1003" y="0" type="line"/>
      <point x="1167" y="0" type="line"/>
      <point x="246" y="1474" type="line"/>
    </contour>
  </outline>
</glyph>
<glyph name="Y" format="1">
  <advance width="1171"/>
  <unicode hex="0059"/>
  <outline>
    <contour>
      <point x="600" y="1475" type="move" name="top"/>
    </contour>
    <contour>
      <point x="600" y="0" type="move" name="bot"/>
    </contour>
    <contour>
      <point x="973" y="1474" type="line"/>
      <point x="588" y="694" type="line"/>
      <point x="587" y="694" type="line"/>
      <point x="214" y="1474" type="line"/>
      <point x="52" y="1474" type="line"/>
      <point x="506" y="515" type="line"/>
      <point x="506" y="0" type="line"/>
      <point x="652" y="0" type="line"/>
      <point x="652" y="516" type="line"/>
      <point x="1128" y="1474" type="line"/>
    </contour>
  </outline>
</glyph>
<glyph name="Z" format="1">
  <advance width="1099"/>
  <unicode hex="005A"/>
  <outline>
    <contour>
      <point x="554" y="1480" type="move" name="top"/>
    </contour>
    <contour>
      <point x="554" y="0" type="move" name="bot"/>
    </contour>
    <contour>
      <point x="150" y="1474" type="line"/>
      <point x="167" y="1343" type="line"/>
      <point x="855" y="1343" type="line"/>
      <point x="104" y="163" type="line"/>
      <point x="115" y="0" type="line"/>
      <point x="995" y="0" type="line"/>
      <point x="994" y="130" type="line"/>
      <point x="278" y="130" type="line"/>
      <point x="1017" y="1306" type="line"/>
      <point x="1004" y="1474" type="line"/>
    </contour>
  </outline>
</glyph>
<glyph name="bracketleft" format="1">
  <advance width="640"/>
  <unicode hex="005B"/>
  <outline>
    <contour>
      <point x="196" y="1611" type="line"/>
      <point x="196" y="-265" type="line"/>
      <point x="567" y="-265" type="line"/>
      <point x="567" y="-126" type="line"/>
      <point x="325" y="-126" type="line"/>
      <point x="325" y="1473" type="line"/>
      <point x="567" y="1473" type="line"/>
      <point x="567" y="1611" type="line"/>
    </contour>
  </outline>
</glyph>
<glyph name="backslash" format="1">
  <advance width="711"/>
  <unicode hex="005C"/>
  <outline>
    <contour>
      <point x="106" y="1504" type="line"/>
      <point x="460" y="-30" type="line"/>
      <point x="608" y="-30" type="line"/>
      <point x="267" y="1504" type="line"/>
    </contour>
  </outline>
</glyph>
<glyph name="bracketright" format="1">
  <advance width="595"/>
  <unicode hex="005D"/>
  <outline>
    <contour>
      <point x="60" y="1596" type="line"/>
      <point x="60" y="1466" type="line"/>
      <point x="302" y="1466" type="line"/>
      <point x="302" y="-130" type="line"/>
      <point x="60" y="-130" type="line"/>
      <point x="60" y="-261" type="line"/>
      <point x="431" y="-261" type="line"/>
      <point x="431" y="1596" type="line"/>
    </contour>
  </outline>
</glyph>
<glyph name="asciicircum" format="1">
  <advance width="915"/>
  <unicode hex="005E"/>
  <outline>
    <contour>
      <point x="459" y="1477" type="curve" smooth="yes"/>
      <point x="420" y="1477"/>
      <point x="405" y="1465"/>
      <point x="389" y="1434" type="curve" smooth="yes"/>
      <point x="48" y="762" type="line" smooth="yes"/>
      <point x="27" y="721"/>
      <point x="93" y="702"/>
      <point x="112" y="734" type="curve" smooth="yes"/>
      <point x="459" y="1331" type="line"/>
      <point x="806" y="734" type="line" smooth="yes"/>
      <point x="825" y="702"/>
      <point x="891" y="721"/>
      <point x="870" y="762" type="curve" smooth="yes"/>
      <point x="529" y="1434" type="line" smooth="yes"/>
      <point x="513" y="1465"/>
      <point x="498" y="1477"/>
    </contour>
  </outline>
</glyph>
<glyph name="underscore" format="1">
  <advance width="842"/>
  <unicode hex="005F"/>
  <outline>
    <contour>
      <point x="6" y="-102" type="line"/>
      <point x="6" y="-209" type="line"/>
      <point x="836" y="-209" type="line"/>
      <point x="836" y="-102" type="line"/>
    </contour>
  </outline>
</glyph>
<glyph name="grave" format="1">
  <advance width="594"/>
  <unicode hex="0060"/>
  <outline>
    <contour>
      <point x="282" y="1069" type="move" name="_top"/>
    </contour>
    <contour>
      <point x="53" y="1493" type="curve" smooth="yes"/>
      <point x="53" y="1458"/>
      <point x="73" y="1418"/>
      <point x="117" y="1401" type="curve" smooth="yes"/>
      <point x="131" y="1397"/>
      <point x="513" y="1249"/>
      <point x="485" y="1259" type="curve" smooth="yes"/>
      <point x="488" y="1258"/>
      <point x="491" y="1259"/>
      <point x="492" y="1261" type="curve" smooth="yes"/>
      <point x="493" y="1264"/>
      <point x="494" y="1267"/>
      <point x="495" y="1267" type="curve" smooth="yes"/>
      <point x="518" y="1245"/>
      <point x="253" y="1519"/>
      <point x="224" y="1547" type="curve" smooth="yes"/>
      <point x="203" y="1565"/>
      <point x="177" y="1582"/>
      <point x="146" y="1582" type="curve" smooth="yes"/>
      <point x="85" y="1582"/>
      <point x="53" y="1538"/>
    </contour>
  </outline>
</glyph>
<glyph name="a" format="1">
  <advance width="1062"/>
  <unicode hex="0061"/>
  <outline>
    <contour>
      <point x="506" y="1069" type="move" name="top"/>
    </contour>
    <contour>
      <point x="866" y="0" type="move" name="ogonek"/>
    </contour>
    <contour>
      <point x="535" y="0" type="move" name="bot"/>
    </contour>
    <contour>
      <point x="152" y="858" type="curve" smooth="yes"/>
      <point x="152" y="841"/>
      <point x="152" y="839"/>
      <point x="154" y="820" type="curve"/>
      <point x="254" y="810" type="line"/>
      <point x="255" y="848"/>
      <point x="256" y="852"/>
      <point x="259" y="876" type="curve" smooth="yes"/>
      <point x="272" y="955"/>
      <point x="307" y="974"/>
      <point x="515" y="974" type="curve" smooth="yes"/>
      <point x="701" y="974"/>
      <point x="776" y="950"/>
      <point x="776" y="870" type="curve" smooth="yes"/>
      <point x="776" y="577" type="line"/>
      <point x="681" y="577"/>
      <point x="628" y="580"/>
      <point x="548" y="576" type="curve" smooth="yes"/>
      <point x="293" y="564"/>
      <point x="134" y="507"/>
      <point x="134" y="351" type="curve" smooth="yes"/>
      <point x="134" y="85"/>
      <point x="189" y="-20"/>
      <point x="453" y="-20" type="curve" smooth="yes"/>
      <point x="639" y="-20"/>
      <point x="742" y="6"/>
      <point x="783" y="160" type="curve"/>
      <point x="811" y="0" type="line"/>
      <point x="920" y="0" type="line"/>
      <point x="920" y="692" type="line" smooth="yes"/>
      <point x="920" y="997"/>
      <point x="843" y="1086"/>
      <point x="530" y="1086" type="curve" smooth="yes"/>
      <point x="296" y="1086"/>
      <point x="152" y="1074"/>
    </contour>
    <contour>
      <point x="776" y="330" type="line"/>
      <point x="776" y="203"/>
      <point x="711" y="109"/>
      <point x="453" y="109" type="curve" smooth="yes"/>
      <point x="287" y="109"/>
      <point x="269" y="136"/>
      <point x="263" y="275" type="curve" smooth="yes"/>
      <point x="262" y="304"/>
      <point x="262" y="277"/>
      <point x="262" y="316" type="curve" smooth="yes"/>
      <point x="262" y="419"/>
      <point x="317" y="462"/>
      <point x="776" y="462" type="curve"/>
    </contour>
  </outline>
</glyph>
<glyph name="b" format="1">
  <advance width="1136"/>
  <unicode hex="0062"/>
  <outline>
    <contour>
      <point x="566" y="1069" type="move" name="top"/>
    </contour>
    <contour>
      <point x="158" y="1509" type="line"/>
      <point x="158" y="0" type="line"/>
      <point x="290" y="0" type="line"/>
      <point x="306" y="142" type="line"/>
      <point x="339" y="40"/>
      <point x="443" y="-20"/>
      <point x="621" y="-20" type="curve" smooth="yes"/>
      <point x="965" y="-20"/>
      <point x="994" y="137"/>
      <point x="999" y="525" type="curve" smooth="yes"/>
      <point x="1000" y="562" type="line" smooth="yes"/>
      <point x="1004" y="878"/>
      <point x="982" y="1086"/>
      <point x="602" y="1086" type="curve" smooth="yes"/>
      <point x="430" y="1086"/>
      <point x="343" y="1033"/>
      <point x="303" y="928" type="curve"/>
      <point x="303" y="1509" type="line"/>
    </contour>
    <contour>
      <point x="585" y="105" type="curve" smooth="yes"/>
      <point x="371" y="105"/>
      <point x="303" y="152"/>
      <point x="303" y="280" type="curve" smooth="yes"/>
      <point x="303" y="711" type="line" smooth="yes"/>
      <point x="303" y="935"/>
      <point x="335" y="960"/>
      <point x="584" y="960" type="curve" smooth="yes"/>
      <point x="866" y="960"/>
      <point x="859" y="914"/>
      <point x="859" y="697" type="curve" smooth="yes"/>
      <point x="859" y="366" type="line" smooth="yes"/>
      <point x="859" y="124"/>
      <point x="827" y="105"/>
    </contour>
  </outline>
</glyph>
<glyph name="c" format="1">
  <advance width="1028"/>
  <unicode hex="0063"/>
  <outline>
    <contour>
      <point x="503" y="1069" type="move" name="top"/>
    </contour>
    <contour>
      <point x="522" y="0" type="move" name="bot"/>
    </contour>
    <contour>
      <point x="136" y="569" type="curve" smooth="yes"/>
      <point x="136" y="540" type="line" smooth="yes"/>
      <point x="139" y="131"/>
      <point x="132" y="-20"/>
      <point x="550" y="-20" type="curve" smooth="yes"/>
      <point x="870" y="-20"/>
      <point x="902" y="46"/>
      <point x="925" y="236" type="curve" smooth="yes"/>
      <point x="934" y="311" type="line"/>
      <point x="827" y="330" type="line"/>
      <point x="813" y="227" type="line" smooth="yes"/>
      <point x="804" y="122"/>
      <point x="776" y="106"/>
      <point x="540" y="106" type="curve" smooth="yes"/>
      <point x="262" y="106"/>
      <point x="269" y="159"/>
      <point x="269" y="474" type="curve" smooth="yes"/>
      <point x="269" y="661" type="line" smooth="yes"/>
      <point x="269" y="897"/>
      <point x="268" y="959"/>
      <point x="561" y="959" type="curve" smooth="yes"/>
      <point x="807" y="959"/>
      <point x="793" y="919"/>
      <point x="805" y="838" type="curve" smooth="yes"/>
      <point x="829" y="737" type="line"/>
      <point x="934" y="767" type="line"/>
      <point x="916" y="878" type="line" smooth="yes"/>
      <point x="887" y="1044"/>
      <point x="856" y="1086"/>
      <point x="561" y="1086" type="curve" smooth="yes"/>
      <point x="129" y="1086"/>
      <point x="136" y="968"/>
    </contour>
  </outline>
</glyph>
<glyph name="d" format="1">
  <advance width="1135"/>
  <unicode hex="0064"/>
  <outline>
    <contour>
      <point x="607" y="1049" type="move" name="top"/>
    </contour>
    <contour>
      <point x="902" y="1069" type="move" name="caron.alt"/>
    </contour>
    <contour>
      <point x="876" y="1298" type="move" name="mid"/>
    </contour>
    <contour>
      <point x="833" y="1500" type="line"/>
      <point x="833" y="917" type="line"/>
      <point x="795" y="1021"/>
      <point x="709" y="1070"/>
      <point x="533" y="1070" type="curve" smooth="yes"/>
      <point x="165" y="1070"/>
      <point x="136" y="900"/>
      <point x="136" y="480" type="curve" smooth="yes"/>
      <point x="136" y="531" type="line" smooth="yes"/>
      <point x="136" y="182"/>
      <point x="153" y="-20"/>
      <point x="512" y="-20" type="curve" smooth="yes"/>
      <point x="690" y="-20"/>
      <point x="792" y="41"/>
      <point x="828" y="144" type="curve"/>
      <point x="845" y="0" type="line"/>
      <point x="977" y="0" type="line"/>
      <point x="977" y="1500" type="line"/>
    </contour>
    <contour>
      <point x="552" y="98" type="curve" smooth="yes"/>
      <point x="268" y="98"/>
      <point x="281" y="192"/>
      <point x="279" y="440" type="curve" smooth="yes"/>
      <point x="278" y="614" type="line" smooth="yes"/>
      <point x="277" y="892"/>
      <point x="305" y="950"/>
      <point x="552" y="950" type="curve" smooth="yes"/>
      <point x="778" y="950"/>
      <point x="833" y="906"/>
      <point x="833" y="763" type="curve" smooth="yes"/>
      <point x="833" y="268" type="line" smooth="yes"/>
      <point x="833" y="139"/>
      <point x="760" y="98"/>
    </contour>
  </outline>
</glyph>
<glyph name="e" format="1">
  <advance width="1090"/>
  <unicode hex="0065"/>
  <outline>
    <contour>
      <point x="527" y="1077" type="move" name="top"/>
    </contour>
    <contour>
      <point x="630" y="0" type="move" name="ogonek"/>
    </contour>
    <contour>
      <point x="551" y="0" type="move" name="bot"/>
    </contour>
    <contour>
      <point x="574" y="-20" type="curve" smooth="yes"/>
      <point x="826" y="-20"/>
      <point x="939" y="11"/>
      <point x="945" y="208" type="curve" smooth="yes"/>
      <point x="945" y="203"/>
      <point x="947" y="302"/>
      <point x="948" y="297" type="curve"/>
      <point x="835" y="306" type="line"/>
      <point x="824" y="208" type="line" smooth="yes"/>
      <point x="819" y="140"/>
      <point x="771" y="105"/>
      <point x="583" y="105" type="curve" smooth="yes"/>
      <point x="363" y="105"/>
      <point x="304" y="128"/>
      <point x="299" y="231" type="curve" smooth="yes"/>
      <point x="292" y="351"/>
      <point x="291" y="412"/>
      <point x="290" y="542" type="curve"/>
      <point x="974" y="542" type="line" smooth="yes"/>
      <point x="979" y="580" type="line"/>
      <point x="974" y="986"/>
      <point x="953" y="1086"/>
      <point x="566" y="1086" type="curve" smooth="yes"/>
      <point x="143" y="1086"/>
      <point x="132" y="977"/>
      <point x="132" y="540" type="curve" smooth="yes"/>
      <point x="132" y="471" type="line" smooth="yes"/>
      <point x="132" y="81"/>
      <point x="189" y="-20"/>
    </contour>
    <contour>
      <point x="291" y="637" type="line"/>
      <point x="293" y="711"/>
      <point x="290" y="774"/>
      <point x="310" y="852" type="curve" smooth="yes"/>
      <point x="332" y="939"/>
      <point x="348" y="961"/>
      <point x="564" y="961" type="curve" smooth="yes"/>
      <point x="751" y="961"/>
      <point x="802" y="938"/>
      <point x="809" y="844" type="curve" smooth="yes"/>
      <point x="816" y="757"/>
      <point x="819" y="716"/>
      <point x="820" y="637" type="curve"/>
    </contour>
  </outline>
</glyph>
<glyph name="f" format="1">
  <advance width="642"/>
  <unicode hex="0066"/>
  <outline>
    <contour>
      <point x="316" y="1376" type="move" name="top"/>
    </contour>
    <contour>
      <point x="238" y="1067" type="curve"/>
      <point x="120" y="1067" type="line"/>
      <point x="120" y="967" type="line"/>
      <point x="238" y="967" type="line"/>
      <point x="238" y="0" type="line"/>
      <point x="382" y="0" type="line"/>
      <point x="382" y="967" type="line"/>
      <point x="564" y="967" type="line"/>
      <point x="564" y="1067" type="line"/>
      <point x="382" y="1067" type="line"/>
      <point x="381" y="1185" type="line" smooth="yes"/>
      <point x="381" y="1328"/>
      <point x="379" y="1334"/>
      <point x="458" y="1334" type="curve" smooth="yes"/>
      <point x="522" y="1334"/>
      <point x="531" y="1333"/>
      <point x="572" y="1331" type="curve"/>
      <point x="572" y="1465" type="line"/>
      <point x="517" y="1473"/>
      <point x="471" y="1477"/>
      <point x="430" y="1477" type="curve" smooth="yes"/>
      <point x="222" y="1477"/>
      <point x="238" y="1371"/>
    </contour>
  </outline>
</glyph>
<glyph name="g" format="1">
  <advance width="1106"/>
  <unicode hex="0067"/>
  <outline>
    <contour>
      <point x="539" y="1069" type="move" name="top"/>
    </contour>
    <contour>
      <point x="562" y="0" type="move" name="bot"/>
    </contour>
    <contour>
      <point x="131" y="565" type="curve" smooth="yes"/>
      <point x="131" y="508" type="line" smooth="yes"/>
      <point x="131" y="146"/>
      <point x="125" y="6"/>
      <point x="546" y="6" type="curve" smooth="yes"/>
      <point x="710" y="6"/>
      <point x="785" y="48"/>
      <point x="818" y="143" type="curve"/>
      <point x="818" y="-103" type="line" smooth="yes"/>
      <point x="824" y="-214"/>
      <point x="812" y="-284"/>
      <point x="543" y="-284" type="curve" smooth="yes"/>
      <point x="439" y="-284"/>
      <point x="359" y="-274"/>
      <point x="288" y="-255" type="curve"/>
      <point x="281" y="-367" type="line"/>
      <point x="354" y="-395"/>
      <point x="451" y="-405"/>
      <point x="570" y="-405" type="curve" smooth="yes"/>
      <point x="924" y="-405"/>
      <point x="965" y="-293"/>
      <point x="965" y="74" type="curve" smooth="yes"/>
      <point x="967" y="1067" type="line"/>
      <point x="834" y="1067" type="line"/>
      <point x="817" y="943" type="line"/>
      <point x="771" y="1053"/>
      <point x="667" y="1086"/>
      <point x="494" y="1086" type="curve" smooth="yes"/>
      <point x="151" y="1086"/>
      <point x="131" y="965"/>
    </contour>
    <contour>
      <point x="567" y="130" type="curve" smooth="yes"/>
      <point x="207" y="130"/>
      <point x="279" y="252"/>
      <point x="276" y="397" type="curve" smooth="yes"/>
      <point x="272" y="526"/>
      <point x="273" y="532"/>
      <point x="273" y="683" type="curve" smooth="yes"/>
      <point x="273" y="933"/>
      <point x="293" y="964"/>
      <point x="544" y="964" type="curve" smooth="yes"/>
      <point x="767" y="964"/>
      <point x="822" y="918"/>
      <point x="822" y="792" type="curve" smooth="yes"/>
      <point x="821" y="232" type="line" smooth="yes"/>
      <point x="821" y="149"/>
      <point x="686" y="130"/>
    </contour>
  </outline>
</glyph>
<glyph name="h" format="1">
  <advance width="1117"/>
  <unicode hex="0068"/>
  <outline>
    <contour>
      <point x="615" y="1263" type="move" name="top"/>
    </contour>
    <contour>
      <point x="560" y="0" type="move" name="bot"/>
    </contour>
    <contour>
      <point x="558" y="535" type="move" name="center"/>
    </contour>
    <contour>
      <point x="233" y="1317" type="move" name="mid"/>
    </contour>
    <contour>
      <point x="158" y="1500" type="line"/>
      <point x="158" y="0" type="line"/>
      <point x="304" y="0" type="line"/>
      <point x="304" y="821" type="line" smooth="yes"/>
      <point x="304" y="911"/>
      <point x="441" y="950"/>
      <point x="555" y="950" type="curve" smooth="yes"/>
      <point x="833" y="950"/>
      <point x="828" y="913"/>
      <point x="828" y="552" type="curve" smooth="yes"/>
      <point x="828" y="0" type="line"/>
      <point x="972" y="0" type="line"/>
      <point x="973" y="674" type="line" smooth="yes"/>
      <point x="973" y="902"/>
      <point x="964" y="1070"/>
      <point x="598" y="1070" type="curve" smooth="yes"/>
      <point x="447" y="1070"/>
      <point x="350" y="1031"/>
      <point x="304" y="955" type="curve"/>
      <point x="304" y="1500" type="line"/>
    </contour>
  </outline>
</glyph>
<glyph name="i" format="1">
  <advance width="446"/>
  <unicode hex="0069"/>
  <outline>
    <contour>
      <point x="-6" y="0" type="move" name="ogonek"/>
    </contour>
    <component base="dotlessi"/>
    <component base="dotaccent" xOffset="44"/>
  </outline>
</glyph>
<glyph name="k" format="1">
  <advance width="995"/>
  <unicode hex="006B"/>
  <outline>
    <contour>
      <point x="586" y="1269" type="move" name="top"/>
    </contour>
    <contour>
      <point x="502" y="0" type="move" name="bot"/>
    </contour>
    <contour>
      <point x="495" y="0" type="move" name="bottom"/>
    </contour>
    <contour>
      <point x="158" y="1509" type="line"/>
      <point x="158" y="0" type="line"/>
      <point x="304" y="0" type="line"/>
      <point x="304" y="468" type="line"/>
      <point x="403" y="575" type="line"/>
      <point x="806" y="0" type="line"/>
      <point x="965" y="0" type="line"/>
      <point x="505" y="653" type="line"/>
      <point x="928" y="1067" type="line"/>
      <point x="755" y="1067" type="line"/>
      <point x="487" y="793" type="line" smooth="yes"/>
      <point x="422" y="722"/>
      <point x="366" y="668"/>
      <point x="303" y="599" type="curve"/>
      <point x="303" y="655"/>
      <point x="304" y="695"/>
      <point x="304" y="752" type="curve" smooth="yes"/>
      <point x="304" y="1509" type="line"/>
    </contour>
  </outline>
</glyph>
<glyph name="l" format="1">
  <advance width="445"/>
  <unicode hex="006C"/>
  <outline>
    <contour>
      <point x="235" y="1475" type="move" name="top"/>
    </contour>
    <contour>
      <point x="244" y="1069" type="move" name="caron.alt"/>
    </contour>
    <contour>
      <point x="239" y="0" type="move" name="bot"/>
    </contour>
    <contour>
      <point x="238" y="1112" type="move" name="mid"/>
    </contour>
    <contour>
      <point x="238" y="0" type="move" name="bottom"/>
    </contour>
    <contour>
      <point x="165" y="1509" type="line"/>
      <point x="165" y="0" type="line"/>
      <point x="310" y="0" type="line"/>
      <point x="310" y="1509" type="line"/>
    </contour>
  </outline>
</glyph>
<glyph name="m" format="1">
  <advance width="1680"/>
  <unicode hex="006D"/>
  <outline>
    <contour>
      <point x="844" y="1069" type="move" name="top"/>
    </contour>
    <contour>
      <point x="844" y="0" type="move" name="bot"/>
    </contour>
    <contour>
      <point x="875" y="939" type="curve"/>
      <point x="837" y="1056"/>
      <point x="751" y="1086"/>
      <point x="605" y="1086" type="curve" smooth="yes"/>
      <point x="460" y="1086"/>
      <point x="363" y="1062"/>
      <point x="308" y="945" type="curve"/>
      <point x="291" y="1067" type="line"/>
      <point x="158" y="1067" type="line"/>
      <point x="158" y="0" type="line"/>
      <point x="304" y="0" type="line"/>
      <point x="305" y="866" type="line" smooth="yes"/>
      <point x="305" y="950"/>
      <point x="434" y="973"/>
      <point x="535" y="973" type="curve" smooth="yes"/>
      <point x="783" y="973"/>
      <point x="777" y="911"/>
      <point x="777" y="674" type="curve" smooth="yes"/>
      <point x="777" y="0" type="line"/>
      <point x="924" y="0" type="line"/>
      <point x="923" y="751" type="line" smooth="yes"/>
      <point x="923" y="794"/>
      <point x="923" y="831"/>
      <point x="935" y="859" type="curve" smooth="yes"/>
      <point x="960" y="936"/>
      <point x="1018" y="973"/>
      <point x="1197" y="973" type="curve" smooth="yes"/>
      <point x="1401" y="973"/>
      <point x="1390" y="867"/>
      <point x="1390" y="600" type="curve" smooth="yes"/>
      <point x="1390" y="0" type="line"/>
      <point x="1536" y="0" type="line"/>
      <point x="1536" y="632" type="line" smooth="yes"/>
      <point x="1536" y="1000"/>
      <point x="1494" y="1086"/>
      <point x="1187" y="1086" type="curve" smooth="yes"/>
      <point x="1025" y="1086"/>
      <point x="927" y="1044"/>
    </contour>
  </outline>
</glyph>
<glyph name="n" format="1">
  <advance width="1109"/>
  <unicode hex="006E"/>
  <outline>
    <contour>
      <point x="559" y="1069" type="move" name="top"/>
    </contour>
    <contour>
      <point x="560" y="0" type="move" name="bot"/>
    </contour>
    <contour>
      <point x="308" y="925" type="curve"/>
      <point x="292" y="1050" type="line"/>
      <point x="158" y="1050" type="line"/>
      <point x="158" y="0" type="line"/>
      <point x="303" y="0" type="line"/>
      <point x="303" y="705" type="line" smooth="yes"/>
      <point x="303" y="882"/>
      <point x="347" y="950"/>
      <point x="616" y="950" type="curve" smooth="yes"/>
      <point x="806" y="950"/>
      <point x="820" y="858"/>
      <point x="820" y="635" type="curve" smooth="yes"/>
      <point x="820" y="0" type="line"/>
      <point x="964" y="0" type="line"/>
      <point x="964" y="675" type="line" smooth="yes"/>
      <point x="964" y="916"/>
      <point x="922" y="1070"/>
      <point x="633" y="1070" type="curve" smooth="yes"/>
      <point x="488" y="1070"/>
      <point x="342" y="1050"/>
    </contour>
  </outline>
</glyph>
<glyph name="o" format="1">
  <advance width="1142"/>
  <unicode hex="006F"/>
  <outline>
    <contour>
      <point x="573" y="1069" type="move" name="top"/>
    </contour>
    <contour>
      <point x="642" y="0" type="move" name="ogonek"/>
    </contour>
    <contour>
      <point x="572" y="0" type="move" name="bot"/>
    </contour>
    <contour>
      <point x="136" y="530" type="curve" smooth="yes"/>
      <point x="136" y="588" type="line" smooth="yes"/>
      <point x="136" y="118"/>
      <point x="118" y="-20"/>
      <point x="569" y="-20" type="curve" smooth="yes"/>
      <point x="1024" y="-20"/>
      <point x="1006" y="118"/>
      <point x="1006" y="589" type="curve" smooth="yes"/>
      <point x="1006" y="531" type="line" smooth="yes"/>
      <point x="1006" y="994"/>
      <point x="991" y="1086"/>
      <point x="570" y="1086" type="curve" smooth="yes"/>
      <point x="147" y="1086"/>
      <point x="136" y="992"/>
    </contour>
    <contour>
      <point x="572" y="102" type="curve" smooth="yes"/>
      <point x="370" y="102"/>
      <point x="293" y="123"/>
      <point x="293" y="207" type="curve"/>
      <point x="292" y="851" type="line"/>
      <point x="292" y="959"/>
      <point x="435" y="959"/>
      <point x="571" y="959" type="curve" smooth="yes"/>
      <point x="707" y="959"/>
      <point x="850" y="959"/>
      <point x="850" y="851" type="curve" smooth="yes"/>
      <point x="849" y="207" type="line" smooth="yes"/>
      <point x="849" y="121"/>
      <point x="774" y="102"/>
    </contour>
  </outline>
</glyph>
<glyph name="p" format="1">
  <advance width="1134"/>
  <unicode hex="0070"/>
  <outline>
    <contour>
      <point x="565" y="1069" type="move" name="top"/>
    </contour>
    <contour>
      <point x="565" y="0" type="move" name="bot"/>
    </contour>
    <contour>
      <point x="158" y="-384" type="line"/>
      <point x="303" y="-366" type="line"/>
      <point x="303" y="100" type="line"/>
      <point x="323" y="23"/>
      <point x="422" y="-20"/>
      <point x="600" y="-20" type="curve" smooth="yes"/>
      <point x="971" y="-20"/>
      <point x="998" y="146"/>
      <point x="998" y="567" type="curve" smooth="yes"/>
      <point x="998" y="542" type="line" smooth="yes"/>
      <point x="998" y="929"/>
      <point x="970" y="1086"/>
      <point x="622" y="1086" type="curve" smooth="yes"/>
      <point x="444" y="1086"/>
      <point x="346" y="1046"/>
      <point x="310" y="944" type="curve"/>
      <point x="293" y="1067" type="line"/>
      <point x="158" y="1067" type="line"/>
    </contour>
    <contour>
      <point x="583" y="105" type="curve" smooth="yes"/>
      <point x="334" y="105"/>
      <point x="298" y="173"/>
      <point x="298" y="487" type="curve" smooth="yes"/>
      <point x="298" y="631" type="line" smooth="yes"/>
      <point x="298" y="922"/>
      <point x="293" y="960"/>
      <point x="583" y="960" type="curve" smooth="yes"/>
      <point x="905" y="960"/>
      <point x="858" y="834"/>
      <point x="858" y="674" type="curve" smooth="yes"/>
      <point x="858" y="447" type="line" smooth="yes"/>
      <point x="858" y="144"/>
      <point x="863" y="105"/>
    </contour>
  </outline>
</glyph>
<glyph name="q" format="1">
  <advance width="1134"/>
  <unicode hex="0071"/>
  <outline>
    <contour>
      <point x="136" y="515" type="curve" smooth="yes"/>
      <point x="136" y="581" type="line" smooth="yes"/>
      <point x="136" y="149"/>
      <point x="163" y="-20"/>
      <point x="532" y="-20" type="curve" smooth="yes"/>
      <point x="710" y="-20"/>
      <point x="812" y="30"/>
      <point x="832" y="107" type="curve"/>
      <point x="832" y="-363" type="line"/>
      <point x="976" y="-382" type="line"/>
      <point x="976" y="1050" type="line"/>
      <point x="841" y="1050" type="line"/>
      <point x="824" y="927" type="line"/>
      <point x="788" y="1030"/>
      <point x="688" y="1070"/>
      <point x="510" y="1070" type="curve" smooth="yes"/>
      <point x="164" y="1070"/>
      <point x="136" y="910"/>
    </contour>
    <contour>
      <point x="552" y="98" type="curve" smooth="yes"/>
      <point x="271" y="98"/>
      <point x="276" y="140"/>
      <point x="276" y="465" type="curve" smooth="yes"/>
      <point x="276" y="657" type="line" smooth="yes"/>
      <point x="276" y="815"/>
      <point x="229" y="950"/>
      <point x="552" y="950" type="curve" smooth="yes"/>
      <point x="841" y="950"/>
      <point x="836" y="909"/>
      <point x="836" y="598" type="curve" smooth="yes"/>
      <point x="836" y="507" type="line" smooth="yes"/>
      <point x="836" y="177"/>
      <point x="800" y="98"/>
    </contour>
  </outline>
</glyph>
<glyph name="r" format="1">
  <advance width="693"/>
  <unicode hex="0072"/>
  <outline>
    <contour>
      <point x="347" y="1077" type="move" name="top"/>
    </contour>
    <contour>
      <point x="364" y="0" type="move" name="bot"/>
    </contour>
    <contour>
      <point x="329" y="947" type="curve"/>
      <point x="311" y="1067" type="line"/>
      <point x="163" y="1067" type="line"/>
      <point x="163" y="0" type="line"/>
      <point x="322" y="0" type="line"/>
      <point x="322" y="430" type="line" smooth="yes"/>
      <point x="322" y="510"/>
      <point x="315" y="584"/>
      <point x="315" y="676" type="curve" smooth="yes"/>
      <point x="315" y="918"/>
      <point x="438" y="964"/>
      <point x="606" y="941" type="curve"/>
      <point x="615" y="1076" type="line"/>
      <point x="520" y="1092"/>
      <point x="377" y="1060"/>
    </contour>
  </outline>
</glyph>
<glyph name="s" format="1">
  <advance width="987"/>
  <unicode hex="0073"/>
  <outline>
    <contour>
      <point x="459" y="1069" type="move" name="top"/>
    </contour>
    <contour>
      <point x="476" y="0" type="move" name="bot"/>
    </contour>
    <contour>
      <point x="544" y="-20" type="curve" smooth="yes"/>
      <point x="790" y="-20"/>
      <point x="893" y="50"/>
      <point x="893" y="281" type="curve" smooth="yes"/>
      <point x="893" y="553"/>
      <point x="869" y="599"/>
      <point x="519" y="633" type="curve" smooth="yes"/>
      <point x="452" y="637" type="line" smooth="yes"/>
      <point x="260" y="655"/>
      <point x="254" y="668"/>
      <point x="254" y="809" type="curve" smooth="yes"/>
      <point x="254" y="878"/>
      <point x="256" y="901"/>
      <point x="289" y="929" type="curve" smooth="yes"/>
      <point x="321" y="957"/>
      <point x="373" y="968"/>
      <point x="493" y="968" type="curve" smooth="yes"/>
      <point x="616" y="968"/>
      <point x="673" y="965"/>
      <point x="711" y="941" type="curve" smooth="yes"/>
      <point x="750" y="918"/>
      <point x="759" y="895"/>
      <point x="766" y="814" type="curve"/>
      <point x="846" y="858" type="line"/>
      <point x="846" y="1075"/>
      <point x="705" y="1086"/>
      <point x="499" y="1086" type="curve" smooth="yes"/>
      <point x="229" y="1086"/>
      <point x="126" y="1035"/>
      <point x="126" y="816" type="curve" smooth="yes"/>
      <point x="126" y="546"/>
      <point x="203" y="530"/>
      <point x="506" y="503" type="curve" smooth="yes"/>
      <point x="579" y="499" type="line" smooth="yes"/>
      <point x="736" y="485"/>
      <point x="764" y="467"/>
      <point x="764" y="304" type="curve" smooth="yes"/>
      <point x="764" y="232"/>
      <point x="763" y="199"/>
      <point x="732" y="160" type="curve" smooth="yes"/>
      <point x="700" y="121"/>
      <point x="648" y="100"/>
      <point x="526" y="100" type="curve" smooth="yes"/>
      <point x="377" y="100"/>
      <point x="312" y="102"/>
      <point x="273" y="133" type="curve" smooth="yes"/>
      <point x="233" y="163"/>
      <point x="230" y="198"/>
      <point x="221" y="310" type="curve"/>
      <point x="117" y="268" type="line"/>
      <point x="117" y="-12"/>
      <point x="282" y="-20"/>
    </contour>
  </outline>
</glyph>
<glyph name="t" format="1">
  <advance width="780"/>
  <unicode hex="0074"/>
  <outline>
    <contour>
      <point x="347" y="1201" type="move" name="top"/>
    </contour>
    <contour>
      <point x="294" y="1251" type="move" name="caron.alt"/>
    </contour>
    <contour>
      <point x="447" y="0" type="move" name="bot"/>
    </contour>
    <contour>
      <point x="375" y="660" type="move" name="mid"/>
    </contour>
    <contour>
      <point x="272" y="1411" type="line"/>
      <point x="272" y="1050" type="line"/>
      <point x="99" y="1050" type="line"/>
      <point x="99" y="959" type="line"/>
      <point x="272" y="959" type="line"/>
      <point x="272" y="208" type="line" smooth="yes"/>
      <point x="272" y="41"/>
      <point x="363" y="-11"/>
      <point x="482" y="-15" type="curve" smooth="yes"/>
      <point x="536" y="-16"/>
      <point x="599" y="-13"/>
      <point x="685" y="-2" type="curve"/>
      <point x="689" y="117" type="line"/>
      <point x="474" y="88"/>
      <point x="416" y="101"/>
      <point x="416" y="211" type="curve" smooth="yes"/>
      <point x="416" y="959" type="line"/>
      <point x="646" y="959" type="line"/>
      <point x="646" y="1050" type="line"/>
      <point x="416" y="1050" type="line"/>
      <point x="416" y="1411" type="line"/>
    </contour>
  </outline>
</glyph>
<glyph name="u" format="1">
  <advance width="1112"/>
  <unicode hex="0075"/>
  <outline>
    <contour>
      <point x="548" y="1069" type="move" name="top"/>
    </contour>
    <contour>
      <point x="879" y="0" type="move" name="ogonek"/>
    </contour>
    <contour>
      <point x="807" y="1067" type="line"/>
      <point x="807" y="411" type="line" smooth="yes"/>
      <point x="807" y="241"/>
      <point x="855" y="105"/>
      <point x="546" y="105" type="curve" smooth="yes"/>
      <point x="252" y="105"/>
      <point x="291" y="172"/>
      <point x="291" y="494" type="curve" smooth="yes"/>
      <point x="291" y="1067" type="line"/>
      <point x="146" y="1067" type="line"/>
      <point x="146" y="463" type="line" smooth="yes"/>
      <point x="146" y="108"/>
      <point x="192" y="-20"/>
      <point x="478" y="-20" type="curve" smooth="yes"/>
      <point x="637" y="-20"/>
      <point x="769" y="29"/>
      <point x="803" y="144" type="curve"/>
      <point x="818" y="-1" type="line"/>
      <point x="954" y="-1" type="line"/>
      <point x="954" y="1067" type="line"/>
    </contour>
  </outline>
</glyph>
<glyph name="v" format="1">
  <advance width="988"/>
  <unicode hex="0076"/>
  <outline>
    <contour>
      <point x="781" y="1067" type="line"/>
      <point x="490" y="144" type="line"/>
      <point x="490" y="144" type="line"/>
      <point x="185" y="1067" type="line"/>
      <point x="37" y="1067" type="line"/>
      <point x="412" y="0" type="line"/>
      <point x="568" y="0" type="line"/>
      <point x="949" y="1067" type="line"/>
    </contour>
  </outline>
</glyph>
<glyph name="w" format="1">
  <advance width="1534"/>
  <unicode hex="0077"/>
  <outline>
    <contour>
      <point x="771" y="1069" type="move" name="top"/>
    </contour>
    <contour>
      <point x="781" y="0" type="move" name="bot"/>
    </contour>
    <contour>
      <point x="394" y="0" type="line"/>
      <point x="527" y="0" type="line"/>
      <point x="776" y="865" type="line"/>
      <point x="775" y="865" type="line"/>
      <point x="1033" y="0" type="line"/>
      <point x="1144" y="0" type="line"/>
      <point x="1443" y="1067" type="line"/>
      <point x="1303" y="1067" type="line"/>
      <point x="1087" y="190" type="line"/>
      <point x="1087" y="190" type="line"/>
      <point x="833" y="1067" type="line"/>
      <point x="707" y="1067" type="line"/>
      <point x="460" y="190" type="line"/>
      <point x="461" y="190" type="line"/>
      <point x="228" y="1067" type="line"/>
      <point x="93" y="1067" type="line"/>
    </contour>
  </outline>
</glyph>
<glyph name="x" format="1">
  <advance width="970"/>
  <unicode hex="0078"/>
  <outline>
    <contour>
      <point x="62" y="0" type="line"/>
      <point x="206" y="0" type="line"/>
      <point x="510" y="477" type="line"/>
      <point x="562" y="538" type="line"/>
      <point x="896" y="1067" type="line"/>
      <point x="754" y="1067" type="line"/>
      <point x="468" y="625" type="line"/>
      <point x="422" y="575" type="line"/>
    </contour>
    <contour>
      <point x="749" y="0" type="line"/>
      <point x="905" y="0" type="line"/>
      <point x="224" y="1067" type="line"/>
      <point x="70" y="1067" type="line"/>
    </contour>
  </outline>
</glyph>
<glyph name="y" format="1">
  <advance width="960"/>
  <unicode hex="0079"/>
  <outline>
    <contour>
      <point x="495" y="1069" type="move" name="top"/>
    </contour>
    <contour>
      <point x="486" y="0" type="move" name="bot"/>
    </contour>
    <contour>
      <point x="794" y="1067" type="line"/>
      <point x="511" y="193" type="line"/>
      <point x="511" y="193" type="line"/>
      <point x="186" y="1067" type="line"/>
      <point x="38" y="1067" type="line"/>
      <point x="465" y="3" type="line"/>
      <point x="440" y="-96"/>
      <point x="426" y="-160"/>
      <point x="397" y="-200" type="curve" smooth="yes"/>
      <point x="369" y="-235"/>
      <point x="331" y="-248"/>
      <point x="259" y="-248" type="curve" smooth="yes"/>
      <point x="230" y="-248"/>
      <point x="196" y="-248"/>
      <point x="153" y="-246" type="curve"/>
      <point x="143" y="-350" type="line"/>
      <point x="202" y="-351"/>
      <point x="235" y="-351"/>
      <point x="273" y="-351" type="curve" smooth="yes"/>
      <point x="437" y="-351"/>
      <point x="484" y="-298"/>
      <point x="566" y="-47" type="curve" smooth="yes"/>
      <point x="935" y="1067" type="line"/>
    </contour>
  </outline>
</glyph>
<glyph name="z" format="1">
  <advance width="861"/>
  <unicode hex="007A"/>
  <outline>
    <contour>
      <point x="358" y="1069" type="move" name="top"/>
    </contour>
    <contour>
      <point x="415" y="0" type="move" name="bot"/>
    </contour>
    <contour>
      <point x="138" y="1050" type="line"/>
      <point x="147" y="939" type="line"/>
      <point x="633" y="939" type="line"/>
      <point x="111" y="120" type="line"/>
      <point x="127" y="0" type="line"/>
      <point x="768" y="0" type="line"/>
      <point x="776" y="109" type="line"/>
      <point x="251" y="109" type="line"/>
      <point x="771" y="933" type="line"/>
      <point x="764" y="1050" type="line"/>
    </contour>
  </outline>
</glyph>
<glyph name="braceleft" format="1">
  <advance width="789"/>
  <unicode hex="007B"/>
  <outline>
    <contour>
      <point x="731" y="-193" type="curve"/>
      <point x="731" y="-92" type="line"/>
      <point x="493" y="-92"/>
      <point x="491" y="-47"/>
      <point x="491" y="284" type="curve" smooth="yes"/>
      <point x="491" y="525"/>
      <point x="466" y="671"/>
      <point x="300" y="701" type="curve"/>
      <point x="466" y="731"/>
      <point x="491" y="877"/>
      <point x="491" y="1118" type="curve" smooth="yes"/>
      <point x="491" y="1449"/>
      <point x="493" y="1495"/>
      <point x="731" y="1495" type="curve"/>
      <point x="731" y="1595" type="line"/>
      <point x="381" y="1595"/>
      <point x="346" y="1503"/>
      <point x="342" y="1128" type="curve" smooth="yes"/>
      <point x="338" y="802"/>
      <point x="261" y="782"/>
      <point x="73" y="782" type="curve"/>
      <point x="73" y="620" type="line"/>
      <point x="261" y="620"/>
      <point x="338" y="601"/>
      <point x="342" y="274" type="curve" smooth="yes"/>
      <point x="346" y="-101"/>
      <point x="381" y="-193"/>
    </contour>
  </outline>
</glyph>
<glyph name="bar" format="1">
  <advance width="401"/>
  <unicode hex="007C"/>
  <outline>
    <contour>
      <point x="141" y="1614" type="line"/>
      <point x="141" y="-187" type="line"/>
      <point x="261" y="-187" type="line"/>
      <point x="261" y="1614" type="line"/>
    </contour>
  </outline>
</glyph>
<glyph name="braceright" format="1">
  <advance width="789"/>
  <unicode hex="007D"/>
  <outline>
    <contour>
      <point x="73" y="-184" type="line"/>
      <point x="422" y="-184"/>
      <point x="457" y="-93"/>
      <point x="462" y="268" type="curve" smooth="yes"/>
      <point x="465" y="603"/>
      <point x="543" y="617"/>
      <point x="731" y="617" type="curve"/>
      <point x="731" y="772" type="line"/>
      <point x="543" y="772"/>
      <point x="465" y="786"/>
      <point x="462" y="1121" type="curve" smooth="yes"/>
      <point x="457" y="1482"/>
      <point x="422" y="1573"/>
      <point x="73" y="1573" type="curve"/>
      <point x="73" y="1484" type="line"/>
      <point x="310" y="1484"/>
      <point x="313" y="1440"/>
      <point x="313" y="1106" type="curve" smooth="yes"/>
      <point x="313" y="872"/>
      <point x="338" y="724"/>
      <point x="503" y="694" type="curve"/>
      <point x="338" y="665"/>
      <point x="313" y="517"/>
      <point x="313" y="283" type="curve" smooth="yes"/>
      <point x="313" y="-51"/>
      <point x="310" y="-95"/>
      <point x="73" y="-95" type="curve"/>
    </contour>
  </outline>
</glyph>
<glyph name="asciitilde" format="1">
  <advance width="1024"/>
  <unicode hex="007E"/>
  <outline>
    <contour>
      <point x="758" y="612" type="curve" smooth="yes"/>
      <point x="892" y="611"/>
      <point x="938" y="717"/>
      <point x="967" y="860" type="curve"/>
      <point x="905" y="895" type="line"/>
      <point x="859" y="791"/>
      <point x="847" y="747"/>
      <point x="736" y="765" type="curve" smooth="yes"/>
      <point x="624" y="780"/>
      <point x="436" y="943"/>
      <point x="270" y="923" type="curve" smooth="yes"/>
      <point x="185" y="913"/>
      <point x="86" y="827"/>
      <point x="62" y="703" type="curve"/>
      <point x="123" y="668" type="line"/>
      <point x="151" y="754"/>
      <point x="187" y="792"/>
      <point x="270" y="786" type="curve" smooth="yes"/>
      <point x="399" y="779"/>
      <point x="605" y="616"/>
    </contour>
  </outline>
</glyph>
<glyph name="cent" format="1">
  <advance width="1322"/>
  <unicode hex="00A2"/>
  <outline>
    <contour>
      <point x="659" y="1761" type="line"/>
      <point x="659" y="1421" type="line"/>
      <point x="762" y="1421" type="line"/>
      <point x="762" y="1761" type="line"/>
    </contour>
    <contour>
      <point x="661" y="42" type="line"/>
      <point x="661" y="-264" type="line"/>
      <point x="764" y="-264" type="line"/>
      <point x="764" y="42" type="line"/>
    </contour>
    <component base="C"/>
  </outline>
</glyph>
<glyph name="sterling" format="1">
  <advance width="1467"/>
  <unicode hex="00A3"/>
  <outline>
    <contour>
      <point x="177" y="0" type="line"/>
      <point x="191" y="0"/>
      <point x="173" y="0"/>
      <point x="187" y="1" type="curve" smooth="yes"/>
      <point x="283" y="10"/>
      <point x="336" y="60"/>
      <point x="338" y="140" type="curve"/>
      <point x="364" y="-4"/>
      <point x="555" y="0"/>
      <point x="817" y="0" type="curve" smooth="yes"/>
      <point x="1129" y="0"/>
      <point x="1268" y="13"/>
      <point x="1278" y="164" type="curve" smooth="yes"/>
      <point x="1293" y="418" type="line"/>
      <point x="1192" y="438" type="line"/>
      <point x="1180" y="234" type="line" smooth="yes"/>
      <point x="1177" y="154"/>
      <point x="1048" y="145"/>
      <point x="870" y="145" type="curve" smooth="yes"/>
      <point x="544" y="145"/>
      <point x="449" y="171"/>
      <point x="449" y="244" type="curve" smooth="yes"/>
      <point x="449" y="698" type="line"/>
      <point x="956" y="698" type="line"/>
      <point x="956" y="825" type="line"/>
      <point x="449" y="825" type="line"/>
      <point x="449" y="1204" type="line" smooth="yes"/>
      <point x="449" y="1365"/>
      <point x="466" y="1400"/>
      <point x="813" y="1400" type="curve" smooth="yes"/>
      <point x="1074" y="1400"/>
      <point x="1126" y="1394"/>
      <point x="1126" y="1278" type="curve" smooth="yes"/>
      <point x="1125" y="1064" type="line"/>
      <point x="1249" y="1078" type="line"/>
      <point x="1248" y="1322" type="line" smooth="yes"/>
      <point x="1247" y="1457"/>
      <point x="1184" y="1529"/>
      <point x="838" y="1529" type="curve" smooth="yes"/>
      <point x="477" y="1529"/>
      <point x="330" y="1506"/>
      <point x="330" y="1211" type="curve" smooth="yes"/>
      <point x="330" y="826" type="line"/>
      <point x="179" y="826" type="line"/>
      <point x="179" y="699" type="line"/>
      <point x="330" y="699" type="line"/>
      <point x="329" y="278" type="line" smooth="yes"/>
      <point x="329" y="180"/>
      <point x="318" y="143"/>
      <point x="177" y="144" type="curve"/>
    </contour>
  </outline>
</glyph>
<glyph name="currency" format="1">
  <advance width="1124"/>
  <unicode hex="00A4"/>
  <outline>
    <contour>
      <point x="923" y="223" type="line"/>
      <point x="985" y="289" type="line"/>
      <point x="843" y="466" type="line"/>
      <point x="916" y="541"/>
      <point x="954" y="641"/>
      <point x="954" y="759" type="curve" smooth="yes"/>
      <point x="954" y="876"/>
      <point x="913" y="974"/>
      <point x="839" y="1047" type="curve"/>
      <point x="984" y="1227" type="line"/>
      <point x="922" y="1294" type="line"/>
      <point x="765" y="1110" type="line"/>
      <point x="712" y="1147"/>
      <point x="643" y="1166"/>
      <point x="561" y="1166" type="curve" smooth="yes"/>
      <point x="479" y="1166"/>
      <point x="410" y="1145"/>
      <point x="357" y="1107" type="curve"/>
      <point x="202" y="1296" type="line"/>
      <point x="142" y="1228" type="line"/>
      <point x="286" y="1046" type="line"/>
      <point x="214" y="974"/>
      <point x="174" y="878"/>
      <point x="174" y="758" type="curve" smooth="yes"/>
      <point x="174" y="638"/>
      <point x="212" y="538"/>
      <point x="283" y="465" type="curve"/>
      <point x="141" y="289" type="line"/>
      <point x="201" y="222" type="line"/>
      <point x="352" y="405" type="line"/>
      <point x="406" y="373"/>
      <point x="477" y="356"/>
      <point x="563" y="357" type="curve" smooth="yes"/>
      <point x="646" y="357"/>
      <point x="717" y="373"/>
      <point x="773" y="405" type="curve"/>
    </contour>
    <contour>
      <point x="564" y="429" type="curve" smooth="yes"/>
      <point x="319" y="429"/>
      <point x="219" y="544"/>
      <point x="214" y="785" type="curve" smooth="yes"/>
      <point x="214" y="791"/>
      <point x="214" y="722"/>
      <point x="214" y="728" type="curve" smooth="yes"/>
      <point x="214" y="978"/>
      <point x="326" y="1102"/>
      <point x="564" y="1102" type="curve" smooth="yes"/>
      <point x="818" y="1102"/>
      <point x="913" y="977"/>
      <point x="913" y="727" type="curve" smooth="yes"/>
      <point x="913" y="722"/>
      <point x="913" y="791"/>
      <point x="913" y="785" type="curve" smooth="yes"/>
      <point x="908" y="547"/>
      <point x="797" y="429"/>
    </contour>
  </outline>
</glyph>
<glyph name="yen" format="1">
  <advance width="1274"/>
  <unicode hex="00A5"/>
  <outline>
    <contour>
      <point x="558" y="0" type="line"/>
      <point x="704" y="0" type="line"/>
      <point x="704" y="255" type="line"/>
      <point x="971" y="255" type="line"/>
      <point x="971" y="333" type="line"/>
      <point x="704" y="333" type="line"/>
      <point x="696" y="508" type="line"/>
      <point x="1025" y="508" type="line"/>
      <point x="1025" y="616" type="line"/>
      <point x="748" y="616" type="line"/>
      <point x="1156" y="1474" type="line"/>
      <point x="990" y="1474" type="line"/>
      <point x="637" y="714" type="line"/>
      <point x="295" y="1474" type="line"/>
      <point x="121" y="1474" type="line"/>
      <point x="515" y="616" type="line"/>
      <point x="251" y="616" type="line"/>
      <point x="251" y="508" type="line"/>
      <point x="565" y="508" type="line"/>
      <point x="558" y="333" type="line"/>
      <point x="305" y="333" type="line"/>
      <point x="305" y="255" type="line"/>
      <point x="558" y="255" type="line"/>
    </contour>
  </outline>
</glyph>
<glyph name="brokenbar" format="1">
  <advance width="414"/>
  <unicode hex="00A6"/>
  <outline>
    <contour>
      <point x="152" y="1628" type="line"/>
      <point x="152" y="830" type="line"/>
      <point x="285" y="830" type="line"/>
      <point x="285" y="1628" type="line"/>
    </contour>
    <contour>
      <point x="152" y="557" type="line"/>
      <point x="152" y="-240" type="line"/>
      <point x="285" y="-240" type="line"/>
      <point x="285" y="557" type="line"/>
    </contour>
  </outline>
</glyph>
<glyph name="section" format="1">
  <advance width="1036"/>
  <unicode hex="00A7"/>
  <outline>
    <contour>
      <point x="519" y="-216" type="curve" smooth="yes"/>
      <point x="790" y="-216"/>
      <point x="881" y="-153"/>
      <point x="881" y="103" type="curve" smooth="yes"/>
      <point x="881" y="239"/>
      <point x="859" y="339"/>
      <point x="796" y="399" type="curve"/>
      <point x="861" y="456"/>
      <point x="882" y="533"/>
      <point x="882" y="640" type="curve" smooth="yes"/>
      <point x="882" y="862"/>
      <point x="821" y="912"/>
      <point x="607" y="954" type="curve" smooth="yes"/>
      <point x="239" y="1018"/>
      <point x="285" y="1020"/>
      <point x="288" y="1220" type="curve" smooth="yes"/>
      <point x="288" y="1336"/>
      <point x="303" y="1358"/>
      <point x="341" y="1388" type="curve" smooth="yes"/>
      <point x="379" y="1418"/>
      <point x="435" y="1419"/>
      <point x="525" y="1419" type="curve" smooth="yes"/>
      <point x="632" y="1419"/>
      <point x="690" y="1410"/>
      <point x="726" y="1375" type="curve" smooth="yes"/>
      <point x="762" y="1339"/>
      <point x="772" y="1305"/>
      <point x="772" y="1196" type="curve"/>
      <point x="890" y="1196" type="line"/>
      <point x="890" y="1264"/>
      <point x="883" y="1321"/>
      <point x="870" y="1366" type="curve" smooth="yes"/>
      <point x="824" y="1483"/>
      <point x="741" y="1528"/>
      <point x="526" y="1528" type="curve" smooth="yes"/>
      <point x="251" y="1528"/>
      <point x="171" y="1460"/>
      <point x="171" y="1214" type="curve" smooth="yes"/>
      <point x="171" y="1080"/>
      <point x="196" y="983"/>
      <point x="254" y="924" type="curve"/>
      <point x="182" y="868"/>
      <point x="171" y="793"/>
      <point x="171" y="698" type="curve" smooth="yes"/>
      <point x="171" y="410"/>
      <point x="261" y="377"/>
      <point x="637" y="329" type="curve" smooth="yes"/>
      <point x="762" y="314"/>
      <point x="764" y="247"/>
      <point x="764" y="94" type="curve" smooth="yes"/>
      <point x="764" y="-10"/>
      <point x="756" y="-32"/>
      <point x="724" y="-66" type="curve" smooth="yes"/>
      <point x="692" y="-100"/>
      <point x="641" y="-108"/>
      <point x="545" y="-108" type="curve" smooth="yes"/>
      <point x="433" y="-108"/>
      <point x="369" y="-106"/>
      <point x="327" y="-74" type="curve" smooth="yes"/>
      <point x="285" y="-41"/>
      <point x="271" y="-6"/>
      <point x="271" y="117" type="curve"/>
      <point x="152" y="117" type="line"/>
      <point x="152" y="60"/>
      <point x="157" y="13"/>
      <point x="166" y="-27" type="curve" smooth="yes"/>
      <point x="207" y="-169"/>
      <point x="295" y="-216"/>
    </contour>
    <contour>
      <point x="725" y="451" type="curve"/>
      <point x="603" y="471"/>
      <point x="519" y="482"/>
      <point x="455" y="493" type="curve" smooth="yes"/>
      <point x="307" y="520"/>
      <point x="291" y="553"/>
      <point x="291" y="718" type="curve" smooth="yes"/>
      <point x="291" y="774"/>
      <point x="301" y="803"/>
      <point x="320" y="873" type="curve"/>
      <point x="354" y="863"/>
      <point x="476" y="851"/>
      <point x="662" y="794" type="curve" smooth="yes"/>
      <point x="739" y="770"/>
      <point x="761" y="729"/>
      <point x="761" y="581" type="curve" smooth="yes"/>
      <point x="761" y="496"/>
      <point x="749" y="470"/>
    </contour>
  </outline>
</glyph>
<glyph name="dieresis" format="1">
  <advance width="915"/>
  <unicode hex="00A8"/>
  <outline>
    <contour>
      <point x="451" y="1069" type="move" name="_top"/>
    </contour>
    <contour>
      <point x="553" y="1340" type="curve" smooth="yes"/>
      <point x="553" y="1265"/>
      <point x="601" y="1230"/>
      <point x="667" y="1230" type="curve" smooth="yes"/>
      <point x="734" y="1230"/>
      <point x="780" y="1265"/>
      <point x="780" y="1340" type="curve" smooth="yes"/>
      <point x="780" y="1414"/>
      <point x="734" y="1450"/>
      <point x="667" y="1450" type="curve" smooth="yes"/>
      <point x="602" y="1450"/>
      <point x="553" y="1413"/>
    </contour>
    <contour>
      <point x="125" y="1340" type="curve" smooth="yes"/>
      <point x="125" y="1265"/>
      <point x="173" y="1230"/>
      <point x="239" y="1230" type="curve" smooth="yes"/>
      <point x="306" y="1230"/>
      <point x="352" y="1265"/>
      <point x="352" y="1340" type="curve" smooth="yes"/>
      <point x="352" y="1414"/>
      <point x="306" y="1450"/>
      <point x="239" y="1450" type="curve" smooth="yes"/>
      <point x="174" y="1450"/>
      <point x="125" y="1413"/>
    </contour>
  </outline>
</glyph>
<glyph name="copyright" format="1">
  <advance width="1780"/>
  <unicode hex="00A9"/>
  <outline>
    <contour>
      <point x="875" y="219" type="curve" smooth="yes"/>
      <point x="1240" y="219"/>
      <point x="1279" y="267"/>
      <point x="1279" y="555" type="curve" smooth="yes"/>
      <point x="1279" y="628" type="line"/>
      <point x="1174" y="628" type="line"/>
      <point x="1173" y="544" type="line" smooth="yes"/>
      <point x="1170" y="342"/>
      <point x="1163" y="327"/>
      <point x="903" y="327" type="curve" smooth="yes"/>
      <point x="633" y="327"/>
      <point x="610" y="361"/>
      <point x="610" y="527" type="curve" smooth="yes"/>
      <point x="609" y="1029" type="line" smooth="yes"/>
      <point x="609" y="1193"/>
      <point x="612" y="1211"/>
      <point x="903" y="1211" type="curve" smooth="yes"/>
      <point x="1170" y="1211"/>
      <point x="1170" y="1190"/>
      <point x="1173" y="979" type="curve" smooth="yes"/>
      <point x="1174" y="908" type="line"/>
      <point x="1279" y="908" type="line"/>
      <point x="1276" y="985" type="line" smooth="yes"/>
      <point x="1270" y="1281"/>
      <point x="1201" y="1319"/>
      <point x="875" y="1319" type="curve" smooth="yes"/>
      <point x="521" y="1319"/>
      <point x="487" y="1242"/>
      <point x="487" y="875" type="curve" smooth="yes"/>
      <point x="487" y="721" type="line" smooth="yes"/>
      <point x="487" y="287"/>
      <point x="539" y="219"/>
    </contour>
    <contour>
      <point x="882" y="-1" type="curve" smooth="yes"/>
      <point x="522" y="-1"/>
      <point x="174" y="131"/>
      <point x="174" y="618" type="curve" smooth="yes"/>
      <point x="174" y="867" type="line" smooth="yes"/>
      <point x="174" y="1399"/>
      <point x="525" y="1514"/>
      <point x="893" y="1514" type="curve" smooth="yes"/>
      <point x="1271" y="1514"/>
      <point x="1615" y="1393"/>
      <point x="1615" y="859" type="curve" smooth="yes"/>
      <point x="1615" y="626" type="line" smooth="yes"/>
      <point x="1615" y="119"/>
      <point x="1280" y="-1"/>
    </contour>
    <contour>
      <point x="907" y="-95" type="curve" smooth="yes"/>
      <point x="1341" y="-95"/>
      <point x="1727" y="69"/>
      <point x="1727" y="617" type="curve" smooth="yes"/>
      <point x="1727" y="868" type="line" smooth="yes"/>
      <point x="1727" y="1449"/>
      <point x="1331" y="1610"/>
      <point x="896" y="1610" type="curve" smooth="yes"/>
      <point x="457" y="1610"/>
      <point x="63" y="1451"/>
      <point x="63" y="870" type="curve" smooth="yes"/>
      <point x="63" y="617" type="line" smooth="yes"/>
      <point x="63" y="68"/>
      <point x="463" y="-95"/>
    </contour>
  </outline>
</glyph>
<glyph name="ordfeminine" format="1">
  <advance width="896"/>
  <unicode hex="00AA"/>
  <outline>
    <contour>
      <point x="390" y="658" type="curve" smooth="yes"/>
      <point x="535" y="658"/>
      <point x="622" y="666"/>
      <point x="653" y="792" type="curve"/>
      <point x="674" y="666" type="line"/>
      <point x="751" y="667" type="line"/>
      <point x="751" y="1180" type="line" smooth="yes"/>
      <point x="751" y="1413"/>
      <point x="694" y="1486"/>
      <point x="468" y="1486" type="curve" smooth="yes"/>
      <point x="286" y="1486"/>
      <point x="191" y="1468"/>
      <point x="191" y="1294" type="curve" smooth="yes"/>
      <point x="191" y="1283"/>
      <point x="191" y="1297"/>
      <point x="192" y="1285" type="curve"/>
      <point x="257" y="1275" type="line"/>
      <point x="256" y="1293"/>
      <point x="256" y="1265"/>
      <point x="256" y="1278" type="curve" smooth="yes"/>
      <point x="256" y="1364"/>
      <point x="272" y="1399"/>
      <point x="456" y="1399" type="curve" smooth="yes"/>
      <point x="650" y="1399"/>
      <point x="647" y="1370"/>
      <point x="647" y="1263" type="curve" smooth="yes"/>
      <point x="647" y="1089" type="line"/>
      <point x="622" y="1089"/>
      <point x="627" y="1090"/>
      <point x="599" y="1090" type="curve" smooth="yes"/>
      <point x="327" y="1090"/>
      <point x="141" y="1056"/>
      <point x="141" y="932" type="curve" smooth="yes"/>
      <point x="141" y="728"/>
      <point x="183" y="658"/>
    </contour>
    <contour>
      <point x="395" y="742" type="curve" smooth="yes"/>
      <point x="229" y="742"/>
      <point x="229" y="674"/>
      <point x="229" y="865" type="curve" smooth="yes"/>
      <point x="229" y="962"/>
      <point x="274" y="994"/>
      <point x="647" y="999" type="curve"/>
      <point x="647" y="983" type="line" smooth="yes"/>
      <point x="643" y="847"/>
      <point x="641" y="742"/>
    </contour>
  </outline>
</glyph>
<glyph name="guillemotleft" format="1">
  <advance width="1717"/>
  <unicode hex="00AB"/>
  <outline>
    <contour>
      <point x="712" y="261" type="curve" smooth="yes"/>
      <point x="749" y="261"/>
      <point x="776" y="292"/>
      <point x="776" y="326" type="curve" smooth="yes"/>
      <point x="776" y="344"/>
      <point x="768" y="363"/>
      <point x="751" y="380" type="curve"/>
      <point x="325" y="782" type="line"/>
      <point x="751" y="1184" type="line"/>
      <point x="767" y="1205"/>
      <point x="776" y="1225"/>
      <point x="776" y="1237" type="curve" smooth="yes"/>
      <point x="776" y="1277"/>
      <point x="749" y="1308"/>
      <point x="712" y="1302" type="curve" smooth="yes"/>
      <point x="696" y="1308"/>
      <point x="681" y="1298"/>
      <point x="662" y="1282" type="curve" smooth="yes"/>
      <point x="163" y="890" type="line" smooth="yes"/>
      <point x="118" y="855"/>
      <point x="95" y="823"/>
      <point x="95" y="782" type="curve"/>
      <point x="95" y="746"/>
      <point x="116" y="711"/>
      <point x="163" y="674" type="curve" smooth="yes"/>
      <point x="662" y="281" type="line" smooth="yes"/>
      <point x="679" y="267"/>
      <point x="696" y="261"/>
    </contour>
    <contour>
      <point x="1247" y="261" type="curve" smooth="yes"/>
      <point x="1284" y="261"/>
      <point x="1311" y="292"/>
      <point x="1311" y="326" type="curve" smooth="yes"/>
      <point x="1311" y="344"/>
      <point x="1303" y="363"/>
      <point x="1286" y="380" type="curve"/>
      <point x="861" y="782" type="line"/>
      <point x="1286" y="1184" type="line"/>
      <point x="1303" y="1205"/>
      <point x="1311" y="1225"/>
      <point x="1311" y="1237" type="curve" smooth="yes"/>
      <point x="1311" y="1277"/>
      <point x="1284" y="1308"/>
      <point x="1247" y="1302" type="curve" smooth="yes"/>
      <point x="1231" y="1308"/>
      <point x="1216" y="1298"/>
      <point x="1197" y="1282" type="curve" smooth="yes"/>
      <point x="698" y="890" type="line" smooth="yes"/>
      <point x="653" y="855"/>
      <point x="630" y="823"/>
      <point x="630" y="782" type="curve"/>
      <point x="630" y="746"/>
      <point x="651" y="711"/>
      <point x="698" y="674" type="curve" smooth="yes"/>
      <point x="1197" y="281" type="line" smooth="yes"/>
      <point x="1214" y="267"/>
      <point x="1232" y="261"/>
    </contour>
  </outline>
</glyph>
<glyph name="logicalnot" format="1">
  <advance width="1147"/>
  <unicode hex="00AC"/>
  <outline>
    <contour>
      <point x="879" y="256" type="line"/>
      <point x="1017" y="256" type="line"/>
      <point x="1017" y="751" type="line"/>
      <point x="117" y="751" type="line"/>
      <point x="117" y="625" type="line"/>
      <point x="879" y="625" type="line"/>
    </contour>
  </outline>
</glyph>
<glyph name="uni00AD" format="1">
  <advance width="1014"/>
  <unicode hex="00AD"/>
  <outline>
    <contour>
      <point x="120" y="547" type="line"/>
      <point x="899" y="547" type="line"/>
      <point x="899" y="703" type="line"/>
      <point x="120" y="703" type="line"/>
    </contour>
  </outline>
</glyph>
<glyph name="registered" format="1">
  <advance width="1786"/>
  <unicode hex="00AE"/>
  <outline>
    <contour>
      <point x="582" y="264" type="line"/>
      <point x="673" y="264" type="line"/>
      <point x="672" y="729" type="line"/>
      <point x="933" y="729" type="line" smooth="yes"/>
      <point x="1110" y="729"/>
      <point x="1145" y="680"/>
      <point x="1143" y="463" type="curve" smooth="yes"/>
      <point x="1143" y="265" type="line"/>
      <point x="1236" y="265" type="line"/>
      <point x="1236" y="601" type="line" smooth="yes"/>
      <point x="1236" y="709"/>
      <point x="1188" y="763"/>
      <point x="1071" y="774" type="curve"/>
      <point x="1072" y="771" type="line"/>
      <point x="1188" y="792"/>
      <point x="1244" y="859"/>
      <point x="1244" y="1010" type="curve" smooth="yes"/>
      <point x="1244" y="1007" type="line" smooth="yes"/>
      <point x="1244" y="1210"/>
      <point x="1164" y="1254"/>
      <point x="880" y="1254" type="curve" smooth="yes"/>
      <point x="582" y="1254" type="line"/>
    </contour>
    <contour>
      <point x="885" y="-6" type="curve" smooth="yes"/>
      <point x="525" y="-6"/>
      <point x="177" y="128"/>
      <point x="177" y="624" type="curve" smooth="yes"/>
      <point x="177" y="850" type="line" smooth="yes"/>
      <point x="177" y="1394"/>
      <point x="527" y="1510"/>
      <point x="896" y="1510" type="curve" smooth="yes"/>
      <point x="1273" y="1510"/>
      <point x="1618" y="1386"/>
      <point x="1618" y="838" type="curve" smooth="yes"/>
      <point x="1618" y="636" type="line" smooth="yes"/>
      <point x="1618" y="117"/>
      <point x="1282" y="-6"/>
    </contour>
    <contour>
      <point x="910" y="-95" type="curve" smooth="yes"/>
      <point x="1343" y="-95"/>
      <point x="1729" y="73"/>
      <point x="1729" y="623" type="curve" smooth="yes"/>
      <point x="1729" y="850" type="line" smooth="yes"/>
      <point x="1729" y="1438"/>
      <point x="1333" y="1600"/>
      <point x="898" y="1600" type="curve" smooth="yes"/>
      <point x="460" y="1600"/>
      <point x="65" y="1438"/>
      <point x="65" y="853" type="curve" smooth="yes"/>
      <point x="65" y="623" type="line" smooth="yes"/>
      <point x="65" y="70"/>
      <point x="466" y="-95"/>
    </contour>
    <contour>
      <point x="672" y="813" type="line"/>
      <point x="672" y="1162" type="line"/>
      <point x="930" y="1162" type="line" smooth="yes"/>
      <point x="1078" y="1162"/>
      <point x="1142" y="1153"/>
      <point x="1142" y="957" type="curve" smooth="yes"/>
      <point x="1142" y="1028" type="line" smooth="yes"/>
      <point x="1142" y="840"/>
      <point x="1109" y="813"/>
      <point x="891" y="813" type="curve" smooth="yes"/>
    </contour>
  </outline>
</glyph>
<glyph name="macron" format="1">
  <advance width="781"/>
  <unicode hex="00AF"/>
  <outline>
    <contour>
      <point x="373" y="1069" type="move" name="_top"/>
    </contour>
    <contour>
      <point x="369" y="1349" type="move" name="_mid"/>
    </contour>
    <contour>
      <point x="96" y="1405" type="line"/>
      <point x="96" y="1293" type="line"/>
      <point x="660" y="1293" type="line"/>
      <point x="660" y="1405" type="line"/>
    </contour>
  </outline>
</glyph>
<glyph name="degree" format="1">
  <advance width="829"/>
  <unicode hex="00B0"/>
  <outline>
    <contour>
      <point x="418" y="1145" type="curve" smooth="yes"/>
      <point x="320" y="1145"/>
      <point x="259" y="1209"/>
      <point x="259" y="1314" type="curve" smooth="yes"/>
      <point x="259" y="1416"/>
      <point x="320" y="1481"/>
      <point x="418" y="1481" type="curve" smooth="yes"/>
      <point x="518" y="1481"/>
      <point x="579" y="1416"/>
      <point x="579" y="1314" type="curve" smooth="yes"/>
      <point x="579" y="1209"/>
      <point x="518" y="1145"/>
    </contour>
    <contour>
      <point x="418" y="1042" type="curve" smooth="yes"/>
      <point x="602" y="1042"/>
      <point x="719" y="1142"/>
      <point x="719" y="1315" type="curve" smooth="yes"/>
      <point x="719" y="1486"/>
      <point x="602" y="1586"/>
      <point x="418" y="1586" type="curve" smooth="yes"/>
      <point x="234" y="1586"/>
      <point x="117" y="1486"/>
      <point x="117" y="1315" type="curve" smooth="yes"/>
      <point x="117" y="1142"/>
      <point x="234" y="1042"/>
    </contour>
  </outline>
</glyph>
<glyph name="plusminus" format="1">
  <advance width="1183"/>
  <unicode hex="00B1"/>
  <outline>
    <contour>
      <point x="529" y="226" type="line"/>
      <point x="655" y="226" type="line"/>
      <point x="655" y="612" type="line"/>
      <point x="1044" y="612" type="line"/>
      <point x="1044" y="734" type="line"/>
      <point x="655" y="734" type="line"/>
      <point x="655" y="1125" type="line"/>
      <point x="529" y="1125" type="line"/>
      <point x="529" y="734" type="line"/>
      <point x="140" y="734" type="line"/>
      <point x="140" y="612" type="line"/>
      <point x="529" y="612" type="line"/>
    </contour>
    <contour>
      <point x="126" y="0" type="line"/>
      <point x="1059" y="0" type="line"/>
      <point x="1059" y="128" type="line"/>
      <point x="126" y="128" type="line"/>
    </contour>
  </outline>
</glyph>
<glyph name="twosuperior" format="1">
  <advance width="1221"/>
  <unicode hex="00B2"/>
  <outline>
    <contour>
      <point x="260" y="419" type="line"/>
      <point x="1043" y="419" type="line"/>
      <point x="1043" y="553" type="line"/>
      <point x="411" y="553" type="line"/>
      <point x="411" y="683"/>
      <point x="406" y="768"/>
      <point x="647" y="845" type="curve" smooth="yes"/>
      <point x="820" y="897"/>
      <point x="1061" y="919"/>
      <point x="1061" y="1161" type="curve" smooth="yes"/>
      <point x="1061" y="1427"/>
      <point x="918" y="1494"/>
      <point x="656" y="1494" type="curve" smooth="yes"/>
      <point x="413" y="1494"/>
      <point x="253" y="1433"/>
      <point x="252" y="1163" type="curve" smooth="yes"/>
      <point x="252" y="1121" type="line"/>
      <point x="422" y="1144" type="line"/>
      <point x="422" y="1182" type="line" smooth="yes"/>
      <point x="422" y="1272"/>
      <point x="433" y="1343"/>
      <point x="665" y="1342" type="curve" smooth="yes"/>
      <point x="880" y="1341"/>
      <point x="903" y="1294"/>
      <point x="903" y="1204" type="curve" smooth="yes"/>
      <point x="903" y="1144" type="line" smooth="yes"/>
      <point x="903" y="1044"/>
      <point x="840" y="1024"/>
      <point x="643" y="968" type="curve" smooth="yes"/>
      <point x="346" y="886"/>
      <point x="260" y="802"/>
      <point x="260" y="540" type="curve" smooth="yes"/>
    </contour>
  </outline>
</glyph>
<glyph name="threesuperior" format="1">
  <advance width="1262"/>
  <unicode hex="00B3"/>
  <outline>
    <contour>
      <point x="651" y="418" type="curve" smooth="yes"/>
      <point x="915" y="418"/>
      <point x="1039" y="481"/>
      <point x="1039" y="727" type="curve" smooth="yes"/>
      <point x="1039" y="835"/>
      <point x="1037" y="932"/>
      <point x="943" y="957" type="curve"/>
      <point x="1037" y="981"/>
      <point x="1037" y="1061"/>
      <point x="1037" y="1169" type="curve" smooth="yes"/>
      <point x="1037" y="1416"/>
      <point x="973" y="1493"/>
      <point x="650" y="1493" type="curve" smooth="yes"/>
      <point x="304" y="1493"/>
      <point x="237" y="1410"/>
      <point x="237" y="1147" type="curve"/>
      <point x="237" y="1126" type="line"/>
      <point x="416" y="1126" type="line"/>
      <point x="417" y="1145" type="line" smooth="yes"/>
      <point x="422" y="1338"/>
      <point x="448" y="1362"/>
      <point x="651" y="1362" type="curve" smooth="yes"/>
      <point x="855" y="1362"/>
      <point x="872" y="1324"/>
      <point x="872" y="1170" type="curve"/>
      <point x="872" y="1022"/>
      <point x="885" y="1019"/>
      <point x="817" y="1019" type="curve" smooth="yes"/>
      <point x="543" y="1019" type="line"/>
      <point x="543" y="906" type="line"/>
      <point x="817" y="906" type="line" smooth="yes"/>
      <point x="877" y="906"/>
      <point x="872" y="898"/>
      <point x="872" y="775" type="curve"/>
      <point x="872" y="615"/>
      <point x="851" y="558"/>
      <point x="668" y="558" type="curve"/>
      <point x="419" y="558"/>
      <point x="411" y="616"/>
      <point x="415" y="788" type="curve" smooth="yes"/>
      <point x="416" y="795" type="line"/>
      <point x="237" y="795" type="line"/>
      <point x="237" y="759" type="line" smooth="yes"/>
      <point x="237" y="509"/>
      <point x="315" y="418"/>
    </contour>
  </outline>
</glyph>
<glyph name="acute" format="1">
  <advance width="584"/>
  <unicode hex="00B4"/>
  <outline>
    <contour>
      <point x="295" y="1069" type="move" name="_top"/>
    </contour>
    <contour>
      <point x="62" y="1259" type="curve" smooth="yes"/>
      <point x="35" y="1249"/>
      <point x="416" y="1397"/>
      <point x="430" y="1401" type="curve" smooth="yes"/>
      <point x="475" y="1418"/>
      <point x="495" y="1458"/>
      <point x="495" y="1493" type="curve" smooth="yes"/>
      <point x="495" y="1538"/>
      <point x="463" y="1582"/>
      <point x="402" y="1582" type="curve" smooth="yes"/>
      <point x="371" y="1582"/>
      <point x="345" y="1565"/>
      <point x="324" y="1547" type="curve" smooth="yes"/>
      <point x="294" y="1519"/>
      <point x="30" y="1245"/>
      <point x="53" y="1267" type="curve" smooth="yes"/>
      <point x="53" y="1266"/>
      <point x="55" y="1261"/>
      <point x="58" y="1259" type="curve" smooth="yes"/>
      <point x="59" y="1259"/>
      <point x="61" y="1258"/>
    </contour>
  </outline>
</glyph>
<glyph name="paragraph" format="1">
  <advance width="1064"/>
  <unicode hex="00B6"/>
  <outline>
    <contour>
      <point x="400" y="1466" type="line"/>
      <point x="121" y="1466"/>
      <point x="12" y="1349"/>
      <point x="12" y="1146" type="curve" smooth="yes"/>
      <point x="12" y="947"/>
      <point x="199" y="840"/>
      <point x="509" y="840" type="curve"/>
      <point x="509" y="-280" type="line"/>
      <point x="611" y="-280" type="line"/>
      <point x="611" y="1552" type="line"/>
      <point x="834" y="1552" type="line"/>
      <point x="834" y="-280" type="line"/>
      <point x="923" y="-280" type="line"/>
      <point x="923" y="1466" type="line"/>
    </contour>
  </outline>
</glyph>
<glyph name="periodcentered" format="1">
  <advance width="424"/>
  <unicode hex="00B7"/>
  <outline>
    <contour>
      <point x="-51" y="615" type="move" name="_mid"/>
    </contour>
    <contour>
      <point x="323" y="466" type="curve" smooth="yes"/>
      <point x="411" y="466"/>
      <point x="459" y="533"/>
      <point x="459" y="617" type="curve" smooth="yes"/>
      <point x="459" y="700"/>
      <point x="404" y="768"/>
      <point x="323" y="768" type="curve" smooth="yes"/>
      <point x="234" y="768"/>
      <point x="187" y="702"/>
      <point x="187" y="617" type="curve" smooth="yes"/>
      <point x="187" y="535"/>
      <point x="242" y="466"/>
    </contour>
  </outline>
</glyph>
<glyph name="cedilla" format="1">
  <advance width="675"/>
  <unicode hex="00B8"/>
  <outline>
    <contour>
      <point x="344" y="0" type="move" name="_bot"/>
    </contour>
    <contour>
      <point x="296" y="9" type="line"/>
      <point x="258" y="-134" type="line" smooth="yes"/>
      <point x="238" y="-210"/>
      <point x="226" y="-257"/>
      <point x="221" y="-278" type="curve"/>
      <point x="313" y="-278"/>
      <point x="359" y="-307"/>
      <point x="359" y="-366" type="curve" smooth="yes"/>
      <point x="359" y="-407"/>
      <point x="333" y="-422"/>
      <point x="299" y="-422" type="curve" smooth="yes"/>
      <point x="242" y="-422"/>
      <point x="160" y="-382"/>
      <point x="138" y="-372" type="curve"/>
      <point x="92" y="-460" type="line"/>
      <point x="154" y="-513"/>
      <point x="245" y="-541"/>
      <point x="329" y="-541" type="curve" smooth="yes"/>
      <point x="457" y="-541"/>
      <point x="574" y="-479"/>
      <point x="574" y="-354" type="curve" smooth="yes"/>
      <point x="574" y="-205"/>
      <point x="487" y="-177"/>
      <point x="354" y="-159" type="curve"/>
      <point x="403" y="9" type="line"/>
    </contour>
  </outline>
</glyph>
<glyph name="ordmasculine" format="1">
  <advance width="911"/>
  <unicode hex="00BA"/>
  <outline>
    <contour>
      <point x="455" y="697" type="curve" smooth="yes"/>
      <point x="776" y="696"/>
      <point x="776" y="800"/>
      <point x="776" y="1115" type="curve" smooth="yes"/>
      <point x="776" y="1041" type="line" smooth="yes"/>
      <point x="777" y="1410"/>
      <point x="773" y="1486"/>
      <point x="456" y="1486" type="curve" smooth="yes"/>
      <point x="140" y="1486"/>
      <point x="137" y="1409"/>
      <point x="138" y="1041" type="curve" smooth="yes"/>
      <point x="138" y="1114" type="line" smooth="yes"/>
      <point x="138" y="799"/>
      <point x="137" y="697"/>
    </contour>
    <contour>
      <point x="252" y="858" type="curve" smooth="yes"/>
      <point x="252" y="1313" type="line" smooth="yes"/>
      <point x="252" y="1391"/>
      <point x="344" y="1403"/>
      <point x="457" y="1403" type="curve" smooth="yes"/>
      <point x="570" y="1403"/>
      <point x="662" y="1391"/>
      <point x="662" y="1313" type="curve" smooth="yes"/>
      <point x="662" y="858" type="line" smooth="yes"/>
      <point x="662" y="791"/>
      <point x="607" y="775"/>
      <point x="457" y="775" type="curve" smooth="yes"/>
      <point x="306" y="775"/>
      <point x="252" y="791"/>
    </contour>
  </outline>
</glyph>
<glyph name="guillemotright" format="1">
  <advance width="1716"/>
  <unicode hex="00BB"/>
  <outline>
    <contour>
      <point x="280" y="266" type="curve" smooth="yes"/>
      <point x="296" y="266"/>
      <point x="313" y="272"/>
      <point x="331" y="286" type="curve" smooth="yes"/>
      <point x="829" y="679" type="line" smooth="yes"/>
      <point x="877" y="716"/>
      <point x="898" y="749"/>
      <point x="898" y="782" type="curve"/>
      <point x="898" y="821"/>
      <point x="875" y="850"/>
      <point x="829" y="885" type="curve" smooth="yes"/>
      <point x="331" y="1278" type="line" smooth="yes"/>
      <point x="311" y="1294"/>
      <point x="296" y="1304"/>
      <point x="281" y="1298" type="curve" smooth="yes"/>
      <point x="244" y="1304"/>
      <point x="217" y="1273"/>
      <point x="217" y="1234" type="curve" smooth="yes"/>
      <point x="217" y="1223"/>
      <point x="222" y="1200"/>
      <point x="242" y="1182" type="curve" smooth="yes"/>
      <point x="667" y="782" type="line"/>
      <point x="242" y="382" type="line" smooth="yes"/>
      <point x="225" y="366"/>
      <point x="216" y="347"/>
      <point x="216" y="330" type="curve" smooth="yes"/>
      <point x="216" y="296"/>
      <point x="244" y="266"/>
    </contour>
    <contour>
      <point x="816" y="266" type="curve" smooth="yes"/>
      <point x="831" y="266"/>
      <point x="849" y="272"/>
      <point x="866" y="286" type="curve" smooth="yes"/>
      <point x="1365" y="679" type="line" smooth="yes"/>
      <point x="1412" y="716"/>
      <point x="1433" y="749"/>
      <point x="1433" y="782" type="curve"/>
      <point x="1433" y="821"/>
      <point x="1410" y="850"/>
      <point x="1365" y="885" type="curve" smooth="yes"/>
      <point x="866" y="1278" type="line" smooth="yes"/>
      <point x="847" y="1294"/>
      <point x="832" y="1304"/>
      <point x="816" y="1298" type="curve" smooth="yes"/>
      <point x="779" y="1304"/>
      <point x="752" y="1273"/>
      <point x="752" y="1234" type="curve" smooth="yes"/>
      <point x="752" y="1223"/>
      <point x="757" y="1200"/>
      <point x="777" y="1182" type="curve" smooth="yes"/>
      <point x="1202" y="782" type="line"/>
      <point x="777" y="382" type="line" smooth="yes"/>
      <point x="760" y="366"/>
      <point x="752" y="347"/>
      <point x="752" y="330" type="curve" smooth="yes"/>
      <point x="752" y="296"/>
      <point x="779" y="266"/>
    </contour>
  </outline>
</glyph>
<glyph name="onequarter" format="1">
  <advance width="2311"/>
  <unicode hex="00BC"/>
  <outline>
    <contour>
      <point x="1960" y="0" type="line"/>
      <point x="2124" y="0" type="line"/>
      <point x="2124" y="699" type="line"/>
      <point x="1960" y="699" type="line"/>
      <point x="1960" y="400" type="line"/>
      <point x="1544" y="400" type="line"/>
      <point x="1544" y="411" type="line"/>
      <point x="1908" y="1111" type="line"/>
      <point x="1763" y="1111" type="line"/>
      <point x="1365" y="396" type="line"/>
      <point x="1365" y="265" type="line"/>
      <point x="1960" y="265" type="line"/>
    </contour>
    <contour>
      <point x="283" y="434" type="line"/>
      <point x="438" y="434" type="line"/>
      <point x="438" y="1474" type="line"/>
      <point x="354" y="1474" type="line"/>
      <point x="297" y="1439"/>
      <point x="229" y="1419"/>
      <point x="139" y="1419" type="curve"/>
      <point x="139" y="1298" type="line"/>
      <point x="283" y="1298" type="line"/>
    </contour>
    <contour>
      <point x="610" y="0" type="line"/>
      <point x="717" y="0" type="line"/>
      <point x="1443" y="1516" type="line"/>
      <point x="1236" y="1516" type="line"/>
    </contour>
  </outline>
</glyph>
<glyph name="onehalf" format="1">
  <advance width="2356"/>
  <unicode hex="00BD"/>
  <outline>
    <contour>
      <point x="1429" y="0" type="line"/>
      <point x="2212" y="0" type="line"/>
      <point x="2212" y="134" type="line"/>
      <point x="1580" y="134" type="line"/>
      <point x="1580" y="263"/>
      <point x="1575" y="348"/>
      <point x="1816" y="425" type="curve" smooth="yes"/>
      <point x="1989" y="477"/>
      <point x="2229" y="500"/>
      <point x="2229" y="742" type="curve" smooth="yes"/>
      <point x="2229" y="1008"/>
      <point x="2087" y="1075"/>
      <point x="1825" y="1075" type="curve" smooth="yes"/>
      <point x="1582" y="1075"/>
      <point x="1422" y="1014"/>
      <point x="1421" y="744" type="curve" smooth="yes"/>
      <point x="1421" y="702" type="line"/>
      <point x="1591" y="725" type="line"/>
      <point x="1591" y="763" type="line" smooth="yes"/>
      <point x="1591" y="852"/>
      <point x="1602" y="924"/>
      <point x="1834" y="922" type="curve" smooth="yes"/>
      <point x="2049" y="921"/>
      <point x="2072" y="874"/>
      <point x="2072" y="784" type="curve" smooth="yes"/>
      <point x="2072" y="725" type="line" smooth="yes"/>
      <point x="2072" y="625"/>
      <point x="2009" y="605"/>
      <point x="1812" y="549" type="curve" smooth="yes"/>
      <point x="1515" y="466"/>
      <point x="1429" y="382"/>
      <point x="1429" y="120" type="curve" smooth="yes"/>
    </contour>
    <contour>
      <point x="283" y="434" type="line"/>
      <point x="438" y="434" type="line"/>
      <point x="438" y="1474" type="line"/>
      <point x="354" y="1474" type="line"/>
      <point x="297" y="1439"/>
      <point x="229" y="1419"/>
      <point x="139" y="1419" type="curve"/>
      <point x="139" y="1298" type="line"/>
      <point x="283" y="1298" type="line"/>
    </contour>
    <contour>
      <point x="523" y="0" type="line"/>
      <point x="630" y="0" type="line"/>
      <point x="1356" y="1516" type="line"/>
      <point x="1149" y="1516" type="line"/>
    </contour>
  </outline>
</glyph>
<glyph name="threequarters" format="1">
  <advance width="2595"/>
  <unicode hex="00BE"/>
  <outline>
    <contour>
      <point x="2245" y="0" type="line"/>
      <point x="2409" y="0" type="line"/>
      <point x="2409" y="699" type="line"/>
      <point x="2245" y="699" type="line"/>
      <point x="2245" y="400" type="line"/>
      <point x="1829" y="400" type="line"/>
      <point x="1829" y="411" type="line"/>
      <point x="2192" y="1111" type="line"/>
      <point x="2047" y="1111" type="line"/>
      <point x="1649" y="396" type="line"/>
      <point x="1649" y="265" type="line"/>
      <point x="2245" y="265" type="line"/>
    </contour>
    <contour>
      <point x="994" y="0" type="line"/>
      <point x="1101" y="0" type="line"/>
      <point x="1827" y="1516" type="line"/>
      <point x="1620" y="1516" type="line"/>
    </contour>
    <contour>
      <point x="591" y="406" type="curve" smooth="yes"/>
      <point x="852" y="406"/>
      <point x="977" y="469"/>
      <point x="977" y="715" type="curve" smooth="yes"/>
      <point x="977" y="823"/>
      <point x="977" y="921"/>
      <point x="883" y="945" type="curve"/>
      <point x="977" y="970"/>
      <point x="975" y="1049"/>
      <point x="975" y="1157" type="curve" smooth="yes"/>
      <point x="975" y="1404"/>
      <point x="914" y="1481"/>
      <point x="590" y="1481" type="curve" smooth="yes"/>
      <point x="241" y="1481"/>
      <point x="177" y="1398"/>
      <point x="177" y="1135" type="curve"/>
      <point x="177" y="1115" type="line"/>
      <point x="349" y="1115" type="line"/>
      <point x="350" y="1133" type="line" smooth="yes"/>
      <point x="355" y="1326"/>
      <point x="380" y="1351"/>
      <point x="590" y="1351" type="curve" smooth="yes"/>
      <point x="802" y="1351"/>
      <point x="818" y="1313"/>
      <point x="818" y="1159" type="curve"/>
      <point x="818" y="1010"/>
      <point x="830" y="1008"/>
      <point x="761" y="1008" type="curve" smooth="yes"/>
      <point x="483" y="1008" type="line"/>
      <point x="483" y="894" type="line"/>
      <point x="761" y="894" type="line" smooth="yes"/>
      <point x="822" y="894"/>
      <point x="818" y="886"/>
      <point x="818" y="763" type="curve"/>
      <point x="818" y="603"/>
      <point x="798" y="547"/>
      <point x="609" y="547" type="curve"/>
      <point x="350" y="547"/>
      <point x="344" y="604"/>
      <point x="348" y="777" type="curve" smooth="yes"/>
      <point x="349" y="783" type="line"/>
      <point x="177" y="783" type="line"/>
      <point x="177" y="747" type="line" smooth="yes"/>
      <point x="177" y="497"/>
      <point x="253" y="406"/>
    </contour>
  </outline>
</glyph>
<glyph name="AE" format="1">
  <advance width="2102"/>
  <unicode hex="00C6"/>
  <outline>
    <contour>
      <point x="1167" y="1475" type="move" name="top"/>
    </contour>
    <contour>
      <point x="116" y="0" type="line"/>
      <point x="299" y="0" type="line"/>
      <point x="526" y="386" type="line"/>
      <point x="1075" y="386" type="line"/>
      <point x="1075" y="0" type="line"/>
      <point x="1942" y="0" type="line"/>
      <point x="1942" y="155" type="line"/>
      <point x="1233" y="155" type="line"/>
      <point x="1233" y="695" type="line"/>
      <point x="1797" y="695" type="line"/>
      <point x="1797" y="849" type="line"/>
      <point x="1233" y="849" type="line"/>
      <point x="1233" y="1318" type="line"/>
      <point x="1920" y="1318" type="line"/>
      <point x="1920" y="1474" type="line"/>
      <point x="976" y="1474" type="line"/>
    </contour>
    <contour>
      <point x="591" y="515" type="line"/>
      <point x="1075" y="1409" type="line"/>
      <point x="1075" y="515" type="line"/>
    </contour>
  </outline>
</glyph>
<glyph name="multiply" format="1">
  <advance width="923"/>
  <unicode hex="00D7"/>
  <outline>
    <contour>
      <point x="239" y="331" type="curve"/>
      <point x="461" y="577" type="line"/>
      <point x="685" y="331" type="line"/>
      <point x="780" y="427" type="line"/>
      <point x="561" y="673" type="line"/>
      <point x="780" y="919" type="line"/>
      <point x="685" y="1016" type="line"/>
      <point x="461" y="769" type="line"/>
      <point x="239" y="1016" type="line"/>
      <point x="166" y="932"/>
      <point x="172" y="953"/>
      <point x="143" y="919" type="curve"/>
      <point x="372" y="651"/>
      <point x="354" y="682"/>
      <point x="363" y="673" type="curve"/>
      <point x="143" y="427" type="line"/>
      <point x="215" y="343"/>
      <point x="209" y="364"/>
    </contour>
  </outline>
</glyph>
<glyph name="Oslash" format="1">
  <advance width="1735"/>
  <unicode hex="00D8"/>
  <outline>
    <contour>
      <point x="852" y="1595" type="move" name="top"/>
    </contour>
    <contour>
      <point x="1136" y="1330" type="line"/>
      <point x="1318" y="1607" type="line"/>
      <point x="1195" y="1679" type="line"/>
      <point x="1008" y="1394" type="line"/>
    </contour>
    <contour>
      <point x="256" y="-177" type="line"/>
      <point x="418" y="78" type="line"/>
      <point x="302" y="157" type="line"/>
      <point x="137" y="-103" type="line"/>
    </contour>
    <component base="O"/>
  </outline>
</glyph>
<glyph name="Thorn" format="1">
  <advance width="1263"/>
  <unicode hex="00DE"/>
  <outline>
    <contour>
      <point x="177" y="0" type="line"/>
      <point x="337" y="0" type="line"/>
      <point x="337" y="403" type="line"/>
      <point x="563" y="403" type="line" smooth="yes"/>
      <point x="782" y="403"/>
      <point x="1146" y="345"/>
      <point x="1146" y="861" type="curve" smooth="yes"/>
      <point x="1146" y="838" type="line" smooth="yes"/>
      <point x="1137" y="1195"/>
      <point x="1007" y="1265"/>
      <point x="593" y="1265" type="curve" smooth="yes"/>
      <point x="337" y="1265" type="line"/>
      <point x="337" y="1474" type="line"/>
      <point x="177" y="1474" type="line"/>
    </contour>
    <contour>
      <point x="337" y="561" type="line"/>
      <point x="337" y="1111" type="line"/>
      <point x="576" y="1111" type="line" smooth="yes"/>
      <point x="941" y="1111"/>
      <point x="987" y="1143"/>
      <point x="987" y="832" type="curve" smooth="yes"/>
      <point x="987" y="600"/>
      <point x="983" y="561"/>
      <point x="676" y="561" type="curve" smooth="yes"/>
    </contour>
  </outline>
</glyph>
<glyph name="germandbls" format="1">
  <advance width="1223"/>
  <unicode hex="00DF"/>
  <outline>
    <contour>
      <point x="164" y="-180" type="line"/>
      <point x="320" y="-161" type="line"/>
      <point x="320" y="1019" type="line"/>
      <point x="319" y="1317"/>
      <point x="354" y="1332"/>
      <point x="592" y="1332" type="curve" smooth="yes"/>
      <point x="814" y="1332"/>
      <point x="841" y="1290"/>
      <point x="841" y="1090" type="curve" smooth="yes"/>
      <point x="841" y="912"/>
      <point x="833" y="863"/>
      <point x="731" y="863" type="curve" smooth="yes"/>
      <point x="472" y="863" type="line"/>
      <point x="472" y="734" type="line"/>
      <point x="731" y="733" type="line" smooth="yes"/>
      <point x="923" y="733"/>
      <point x="932" y="704"/>
      <point x="926" y="419" type="curve" smooth="yes"/>
      <point x="919" y="112"/>
      <point x="879" y="152"/>
      <point x="686" y="152" type="curve" smooth="yes"/>
      <point x="441" y="155" type="line"/>
      <point x="441" y="9" type="line"/>
      <point x="710" y="9" type="line" smooth="yes"/>
      <point x="936" y="9"/>
      <point x="1083" y="121"/>
      <point x="1083" y="406" type="curve" smooth="yes"/>
      <point x="1083" y="452" type="line" smooth="yes"/>
      <point x="1083" y="736"/>
      <point x="978" y="809"/>
      <point x="866" y="817" type="curve"/>
      <point x="953" y="828"/>
      <point x="1001" y="938"/>
      <point x="1001" y="1127" type="curve" smooth="yes"/>
      <point x="1001" y="1388"/>
      <point x="878" y="1474"/>
      <point x="592" y="1474" type="curve" smooth="yes"/>
      <point x="276" y="1474"/>
      <point x="164" y="1389"/>
      <point x="164" y="1112" type="curve" smooth="yes"/>
    </contour>
  </outline>
</glyph>
<glyph name="ae" format="1">
  <advance width="1725"/>
  <unicode hex="00E6"/>
  <outline>
    <contour>
      <point x="828" y="1069" type="move" name="top"/>
    </contour>
    <contour>
      <point x="457" y="-12" type="curve" smooth="yes"/>
      <point x="653" y="-12"/>
      <point x="806" y="35"/>
      <point x="858" y="175" type="curve"/>
      <point x="914" y="63"/>
      <point x="1012" y="-12"/>
      <point x="1255" y="-12" type="curve" smooth="yes"/>
      <point x="1431" y="-12"/>
      <point x="1488" y="13"/>
      <point x="1526" y="113" type="curve" smooth="yes"/>
      <point x="1538" y="162"/>
      <point x="1545" y="200"/>
      <point x="1547" y="277" type="curve"/>
      <point x="1453" y="309" type="line"/>
      <point x="1445" y="235"/>
      <point x="1451" y="212"/>
      <point x="1428" y="169" type="curve" smooth="yes"/>
      <point x="1405" y="127"/>
      <point x="1362" y="103"/>
      <point x="1235" y="103" type="curve" smooth="yes"/>
      <point x="1085" y="103"/>
      <point x="1019" y="124"/>
      <point x="979" y="175" type="curve" smooth="yes"/>
      <point x="940" y="225"/>
      <point x="938" y="252"/>
      <point x="938" y="542" type="curve"/>
      <point x="1578" y="540" type="line"/>
      <point x="1578" y="624"/>
      <point x="1577" y="662"/>
      <point x="1574" y="727" type="curve" smooth="yes"/>
      <point x="1557" y="1022"/>
      <point x="1511" y="1095"/>
      <point x="1221" y="1095" type="curve" smooth="yes"/>
      <point x="1039" y="1095"/>
      <point x="915" y="1061"/>
      <point x="881" y="958" type="curve"/>
      <point x="862" y="1065"/>
      <point x="719" y="1096"/>
      <point x="577" y="1096" type="curve" smooth="yes"/>
      <point x="351" y="1096"/>
      <point x="211" y="1075"/>
      <point x="211" y="858" type="curve" smooth="yes"/>
      <point x="211" y="847"/>
      <point x="210" y="834"/>
      <point x="212" y="820" type="curve"/>
      <point x="313" y="810" type="line"/>
      <point x="315" y="891"/>
      <point x="311" y="918"/>
      <point x="341" y="946" type="curve" smooth="yes"/>
      <point x="370" y="974"/>
      <point x="425" y="982"/>
      <point x="562" y="982" type="curve" smooth="yes"/>
      <point x="741" y="982"/>
      <point x="794" y="957"/>
      <point x="794" y="878" type="curve" smooth="yes"/>
      <point x="794" y="577" type="line"/>
      <point x="397" y="577"/>
      <point x="149" y="545"/>
      <point x="149" y="349" type="curve" smooth="yes"/>
      <point x="149" y="85"/>
      <point x="196" y="-12"/>
    </contour>
    <contour>
      <point x="469" y="103" type="curve" smooth="yes"/>
      <point x="369" y="103"/>
      <point x="328" y="112"/>
      <point x="303" y="148" type="curve" smooth="yes"/>
      <point x="277" y="184"/>
      <point x="276" y="195"/>
      <point x="276" y="317" type="curve" smooth="yes"/>
      <point x="276" y="396"/>
      <point x="319" y="443"/>
      <point x="553" y="460" type="curve" smooth="yes"/>
      <point x="621" y="465"/>
      <point x="693" y="467"/>
      <point x="794" y="467" type="curve"/>
      <point x="794" y="323" type="line" smooth="yes"/>
      <point x="794" y="196"/>
      <point x="720" y="103"/>
    </contour>
    <contour>
      <point x="938" y="633" type="line"/>
      <point x="941" y="779"/>
      <point x="937" y="838"/>
      <point x="970" y="898" type="curve" smooth="yes"/>
      <point x="1003" y="958"/>
      <point x="1064" y="981"/>
      <point x="1220" y="981" type="curve" smooth="yes"/>
      <point x="1378" y="981"/>
      <point x="1415" y="958"/>
      <point x="1422" y="864" type="curve" smooth="yes"/>
      <point x="1429" y="777"/>
      <point x="1432" y="725"/>
      <point x="1433" y="633" type="curve"/>
    </contour>
  </outline>
</glyph>
<glyph name="eth" format="1">
  <advance width="1230"/>
  <unicode hex="00F0"/>
  <outline>
    <contour>
      <point x="632" y="-21" type="curve" smooth="yes"/>
      <point x="968" y="-21"/>
      <point x="1077" y="1"/>
      <point x="1077" y="370" type="curve" smooth="yes"/>
      <point x="1077" y="937"/>
      <point x="1100" y="1200"/>
      <point x="912" y="1321" type="curve"/>
      <point x="1068" y="1489" type="line"/>
      <point x="1010" y="1534" type="line"/>
      <point x="838" y="1351" type="line"/>
      <point x="725" y="1391"/>
      <point x="558" y="1403"/>
      <point x="316" y="1407" type="curve"/>
      <point x="327" y="1339" type="line"/>
      <point x="545" y="1330"/>
      <point x="687" y="1328"/>
      <point x="777" y="1288" type="curve"/>
      <point x="639" y="1140" type="line"/>
      <point x="697" y="1094" type="line"/>
      <point x="841" y="1248" type="line"/>
      <point x="907" y="1171"/>
      <point x="917" y="1029"/>
      <point x="932" y="751" type="curve"/>
      <point x="910" y="874"/>
      <point x="791" y="936"/>
      <point x="536" y="936" type="curve" smooth="yes"/>
      <point x="240" y="936"/>
      <point x="144" y="838"/>
      <point x="144" y="608" type="curve" smooth="yes"/>
      <point x="144" y="610"/>
      <point x="143" y="345"/>
      <point x="143" y="348" type="curve" smooth="yes"/>
      <point x="143" y="44"/>
      <point x="224" y="-21"/>
    </contour>
    <contour>
      <point x="631" y="73" type="curve" smooth="yes"/>
      <point x="323" y="73"/>
      <point x="283" y="81"/>
      <point x="283" y="208" type="curve" smooth="yes"/>
      <point x="285" y="688" type="line" smooth="yes"/>
      <point x="285" y="823"/>
      <point x="305" y="840"/>
      <point x="633" y="840" type="curve" smooth="yes"/>
      <point x="924" y="840"/>
      <point x="932" y="764"/>
      <point x="932" y="610" type="curve" smooth="yes"/>
      <point x="932" y="196" type="line" smooth="yes"/>
      <point x="932" y="93"/>
      <point x="936" y="73"/>
    </contour>
  </outline>
</glyph>
<glyph name="divide" format="1">
  <advance width="675"/>
  <unicode hex="00F7"/>
  <outline>
    <contour>
      <point x="340" y="134" type="curve" smooth="yes"/>
      <point x="426" y="134"/>
      <point x="480" y="203"/>
      <point x="480" y="288" type="curve" smooth="yes"/>
      <point x="480" y="366"/>
      <point x="424" y="442"/>
      <point x="354" y="442" type="curve" smooth="yes"/>
      <point x="253" y="442"/>
      <point x="200" y="383"/>
      <point x="200" y="288" type="curve" smooth="yes"/>
      <point x="200" y="193"/>
      <point x="259" y="134"/>
    </contour>
    <contour>
      <point x="-4" y="614" type="line"/>
      <point x="683" y="614" type="line"/>
      <point x="683" y="753" type="line"/>
      <point x="-4" y="753" type="line"/>
    </contour>
    <contour>
      <point x="340" y="925" type="curve" smooth="yes"/>
      <point x="428" y="925"/>
      <point x="480" y="991"/>
      <point x="480" y="1079" type="curve" smooth="yes"/>
      <point x="480" y="1157"/>
      <point x="424" y="1233"/>
      <point x="354" y="1233" type="curve" smooth="yes"/>
      <point x="253" y="1233"/>
      <point x="200" y="1175"/>
      <point x="200" y="1079" type="curve" smooth="yes"/>
      <point x="200" y="984"/>
      <point x="258" y="925"/>
    </contour>
  </outline>
</glyph>
<glyph name="oslash" format="1">
  <advance width="1631"/>
  <unicode hex="00F8"/>
  <outline>
    <contour>
      <point x="563" y="1091" type="move" name="top"/>
    </contour>
    <contour>
      <point x="89" y="15" type="line"/>
      <point x="1085" y="1011" type="line"/>
      <point x="1027" y="1069" type="line"/>
      <point x="31" y="73" type="line"/>
    </contour>
    <component base="o"/>
  </outline>
</glyph>
<glyph name="thorn" format="1">
  <advance width="1160"/>
  <unicode hex="00FE"/>
  <outline>
    <contour>
      <point x="160" y="-400" type="line"/>
      <point x="304" y="-381" type="line"/>
      <point x="304" y="108" type="line"/>
      <point x="345" y="21"/>
      <point x="476" y="-24"/>
      <point x="683" y="-24" type="curve" smooth="yes"/>
      <point x="979" y="-24"/>
      <point x="1018" y="126"/>
      <point x="1018" y="546" type="curve" smooth="yes"/>
      <point x="1018" y="496" type="line" smooth="yes"/>
      <point x="1018" y="896"/>
      <point x="1030" y="1145"/>
      <point x="661" y="1145" type="curve" smooth="yes"/>
      <point x="450" y="1145"/>
      <point x="335" y="1097"/>
      <point x="303" y="1013" type="curve"/>
      <point x="303" y="1576" type="line"/>
      <point x="160" y="1558" type="line"/>
    </contour>
    <contour>
      <point x="591" y="135" type="curve" smooth="yes"/>
      <point x="338" y="135"/>
      <point x="300" y="137"/>
      <point x="300" y="378" type="curve" smooth="yes"/>
      <point x="300" y="489"/>
      <point x="301" y="551"/>
      <point x="301" y="752" type="curve" smooth="yes"/>
      <point x="301" y="962"/>
      <point x="300" y="985"/>
      <point x="615" y="985" type="curve" smooth="yes"/>
      <point x="853" y="985"/>
      <point x="865" y="978"/>
      <point x="865" y="719" type="curve" smooth="yes"/>
      <point x="865" y="607"/>
      <point x="865" y="547"/>
      <point x="865" y="421" type="curve" smooth="yes"/>
      <point x="865" y="187"/>
      <point x="852" y="135"/>
    </contour>
  </outline>
</glyph>
<glyph name="Hbar" format="1">
  <advance width="1470"/>
  <unicode hex="0126"/>
  <outline>
    <contour>
      <point x="224" y="0" type="line"/>
      <point x="371" y="0" type="line"/>
      <point x="371" y="683" type="line"/>
      <point x="1103" y="683" type="line"/>
      <point x="1103" y="0" type="line"/>
      <point x="1250" y="0" type="line"/>
      <point x="1250" y="1072" type="line"/>
      <point x="1323" y="1072" type="line"/>
      <point x="1323" y="1165" type="line"/>
      <point x="1250" y="1165" type="line"/>
      <point x="1250" y="1474" type="line"/>
      <point x="1103" y="1474" type="line"/>
      <point x="1103" y="1165" type="line"/>
      <point x="371" y="1165" type="line"/>
      <point x="371" y="1474" type="line"/>
      <point x="224" y="1474" type="line"/>
      <point x="224" y="1165" type="line"/>
      <point x="149" y="1165" type="line"/>
      <point x="149" y="1072" type="line"/>
      <point x="224" y="1072" type="line"/>
    </contour>
    <contour>
      <point x="371" y="828" type="line"/>
      <point x="371" y="1072" type="line"/>
      <point x="1103" y="1072" type="line"/>
      <point x="1103" y="828" type="line"/>
    </contour>
  </outline>
</glyph>
<glyph name="dotlessi" format="1">
  <advance width="427"/>
  <unicode hex="0131"/>
  <outline>
    <contour>
      <point x="218" y="1069" type="move" name="top"/>
    </contour>
    <contour>
      <point x="219" y="0" type="move" name="ogonek"/>
    </contour>
    <contour>
      <point x="151" y="1067" type="line"/>
      <point x="151" y="0" type="line"/>
      <point x="296" y="0" type="line"/>
      <point x="296" y="1067" type="line"/>
    </contour>
  </outline>
</glyph>
<glyph name="kgreenlandic" format="1">
  <advance width="1107"/>
  <unicode hex="0138"/>
  <outline>
    <contour>
      <point x="158" y="0" type="line"/>
      <point x="302" y="0" type="line"/>
      <point x="302" y="457" type="line"/>
      <point x="391" y="555" type="line"/>
      <point x="800" y="0" type="line"/>
      <point x="967" y="0" type="line"/>
      <point x="505" y="604" type="line"/>
      <point x="929" y="1067" type="line"/>
      <point x="756" y="1067" type="line"/>
      <point x="483" y="748" type="line" smooth="yes"/>
      <point x="421" y="673"/>
      <point x="365" y="625"/>
      <point x="301" y="556" type="curve"/>
      <point x="301" y="612"/>
      <point x="302" y="653"/>
      <point x="302" y="711" type="curve" smooth="yes"/>
      <point x="302" y="1068" type="line"/>
      <point x="158" y="1049" type="line"/>
    </contour>
  </outline>
</glyph>
<glyph name="lslash" format="1">
  <advance width="582"/>
  <unicode hex="0142"/>
  <outline>
    <contour>
      <point x="54" y="836" type="line"/>
      <point x="491" y="1007" type="line"/>
      <point x="491" y="1126" type="line"/>
      <point x="54" y="957" type="line"/>
    </contour>
    <component base="l" xOffset="34"/>
  </outline>
</glyph>
<glyph name="Eng" format="1">
  <advance width="1374"/>
  <unicode hex="014A"/>
  <outline>
    <contour>
      <point x="817" y="-356" type="line"/>
      <point x="1127" y="-356"/>
      <point x="1216" y="-265"/>
      <point x="1216" y="15" type="curve" smooth="yes"/>
      <point x="1216" y="1466" type="line"/>
      <point x="1076" y="1466" type="line"/>
      <point x="1076" y="247" type="line"/>
      <point x="320" y="1466" type="line"/>
      <point x="158" y="1466" type="line"/>
      <point x="158" y="0" type="line"/>
      <point x="299" y="0" type="line"/>
      <point x="299" y="1284" type="line"/>
      <point x="1085" y="49" type="line"/>
      <point x="1085" y="-57" type="line" smooth="yes"/>
      <point x="1091" y="-174"/>
      <point x="1092" y="-249"/>
      <point x="829" y="-249" type="curve"/>
    </contour>
  </outline>
</glyph>
<glyph name="eng" format="1">
  <advance width="1128"/>
  <unicode hex="014B"/>
  <outline>
    <contour>
      <point x="586" y="-387" type="line"/>
      <point x="937" y="-387"/>
      <point x="977" y="-268"/>
      <point x="980" y="100" type="curve" smooth="yes"/>
      <point x="980" y="559" type="line" smooth="yes"/>
      <point x="980" y="941"/>
      <point x="956" y="1098"/>
      <point x="645" y="1098" type="curve" smooth="yes"/>
      <point x="499" y="1098"/>
      <point x="354" y="1064"/>
      <point x="319" y="942" type="curve"/>
      <point x="302" y="1067" type="line"/>
      <point x="155" y="1067" type="line"/>
      <point x="155" y="0" type="line"/>
      <point x="315" y="0" type="line"/>
      <point x="315" y="731" type="line" smooth="yes"/>
      <point x="315" y="897"/>
      <point x="350" y="973"/>
      <point x="632" y="973" type="curve" smooth="yes"/>
      <point x="816" y="973"/>
      <point x="819" y="951"/>
      <point x="819" y="598" type="curve" smooth="yes"/>
      <point x="819" y="-84" type="line" smooth="yes"/>
      <point x="824" y="-195"/>
      <point x="808" y="-266"/>
      <point x="549" y="-266" type="curve"/>
    </contour>
  </outline>
</glyph>
<glyph name="OE" format="1">
  <advance width="2141"/>
  <unicode hex="0152"/>
  <outline>
    <contour>
      <point x="1045" y="1475" type="move" name="top"/>
    </contour>
    <contour>
      <point x="725" y="0" type="curve" smooth="yes"/>
      <point x="1967" y="0" type="line"/>
      <point x="1990" y="139" type="line"/>
      <point x="1285" y="139" type="line"/>
      <point x="1285" y="693" type="line"/>
      <point x="1875" y="693" type="line"/>
      <point x="1875" y="841" type="line"/>
      <point x="1285" y="841" type="line"/>
      <point x="1285" y="1333" type="line"/>
      <point x="1980" y="1333" type="line"/>
      <point x="1957" y="1474" type="line"/>
      <point x="725" y="1474" type="line" smooth="yes"/>
      <point x="209" y="1474"/>
      <point x="155" y="1317"/>
      <point x="155" y="750" type="curve" smooth="yes"/>
      <point x="155" y="717"/>
      <point x="155" y="814"/>
      <point x="155" y="784" type="curve" smooth="yes"/>
      <point x="157" y="161"/>
      <point x="158" y="0"/>
    </contour>
    <contour>
      <point x="724" y="142" type="line"/>
      <point x="445" y="142"/>
      <point x="350" y="177"/>
      <point x="321" y="386" type="curve" smooth="yes"/>
      <point x="301" y="532"/>
      <point x="295" y="669"/>
      <point x="309" y="1057" type="curve" smooth="yes"/>
      <point x="315" y="1284"/>
      <point x="343" y="1333"/>
      <point x="724" y="1333" type="curve" smooth="yes"/>
      <point x="1142" y="1333" type="line"/>
      <point x="1142" y="142" type="line"/>
    </contour>
  </outline>
</glyph>
<glyph name="oe" format="1">
  <advance width="1805"/>
  <unicode hex="0153"/>
  <outline>
    <contour>
      <point x="1289" y="-20" type="curve" smooth="yes"/>
      <point x="1541" y="-20"/>
      <point x="1654" y="11"/>
      <point x="1660" y="208" type="curve" smooth="yes"/>
      <point x="1660" y="203"/>
      <point x="1662" y="302"/>
      <point x="1663" y="297" type="curve"/>
      <point x="1550" y="306" type="line"/>
      <point x="1539" y="208" type="line" smooth="yes"/>
      <point x="1534" y="140"/>
      <point x="1486" y="105"/>
      <point x="1298" y="105" type="curve" smooth="yes"/>
      <point x="1078" y="105"/>
      <point x="1019" y="128"/>
      <point x="1014" y="231" type="curve" smooth="yes"/>
      <point x="1007" y="351"/>
      <point x="1006" y="412"/>
      <point x="1005" y="542" type="curve"/>
      <point x="1689" y="542" type="line"/>
      <point x="1695" y="580" type="line"/>
      <point x="1689" y="986"/>
      <point x="1668" y="1086"/>
      <point x="1281" y="1086" type="curve" smooth="yes"/>
      <point x="1095" y="1086"/>
      <point x="991" y="1058"/>
      <point x="927" y="968" type="curve"/>
      <point x="863" y="1060"/>
      <point x="762" y="1086"/>
      <point x="574" y="1086" type="curve" smooth="yes"/>
      <point x="155" y="1086"/>
      <point x="132" y="992"/>
      <point x="132" y="530" type="curve" smooth="yes"/>
      <point x="132" y="588" type="line" smooth="yes"/>
      <point x="132" y="118"/>
      <point x="127" y="-20"/>
      <point x="573" y="-20" type="curve" smooth="yes"/>
      <point x="764" y="-20"/>
      <point x="866" y="13"/>
      <point x="928" y="108" type="curve"/>
      <point x="996" y="10"/>
      <point x="1105" y="-20"/>
    </contour>
    <contour>
      <point x="576" y="102" type="curve" smooth="yes"/>
      <point x="381" y="102"/>
      <point x="303" y="123"/>
      <point x="303" y="207" type="curve"/>
      <point x="302" y="851" type="line"/>
      <point x="302" y="959"/>
      <point x="444" y="959"/>
      <point x="574" y="959" type="curve" smooth="yes"/>
      <point x="705" y="959"/>
      <point x="847" y="959"/>
      <point x="847" y="851" type="curve" smooth="yes"/>
      <point x="846" y="207" type="line" smooth="yes"/>
      <point x="846" y="121"/>
      <point x="770" y="102"/>
    </contour>
    <contour>
      <point x="1006" y="637" type="line"/>
      <point x="1008" y="711"/>
      <point x="1005" y="774"/>
      <point x="1025" y="852" type="curve" smooth="yes"/>
      <point x="1047" y="939"/>
      <point x="1063" y="961"/>
      <point x="1279" y="961" type="curve" smooth="yes"/>
      <point x="1466" y="961"/>
      <point x="1517" y="938"/>
      <point x="1524" y="844" type="curve" smooth="yes"/>
      <point x="1531" y="757"/>
      <point x="1534" y="716"/>
      <point x="1535" y="637" type="curve"/>
    </contour>
  </outline>
</glyph>
<glyph name="dotlessj" format="1">
  <advance width="485"/>
  <unicode hex="0237"/>
  <outline>
    <contour>
      <point x="277" y="1069" type="move" name="top"/>
    </contour>
    <contour>
      <point x="203" y="1067" type="line"/>
      <point x="203" y="-64" type="line" smooth="yes"/>
      <point x="203" y="-206"/>
      <point x="129" y="-183"/>
      <point x="37" y="-188" type="curve"/>
      <point x="38" y="-292" type="line"/>
      <point x="71" y="-296"/>
      <point x="101" y="-298"/>
      <point x="121" y="-298" type="curve" smooth="yes"/>
      <point x="305" y="-298"/>
      <point x="347" y="-200"/>
      <point x="347" y="56" type="curve" smooth="yes"/>
      <point x="347" y="1067" type="line"/>
    </contour>
  </outline>
</glyph>
<glyph name="apostrophemod" format="1">
  <advance width="542"/>
  <unicode hex="02BC"/>
  <outline>
    <contour>
      <point x="8" y="1331" type="curve" smooth="yes"/>
      <point x="130" y="1331"/>
      <point x="251" y="1519"/>
      <point x="251" y="1686" type="curve" smooth="yes"/>
      <point x="251" y="1776"/>
      <point x="200" y="1856"/>
      <point x="120" y="1856" type="curve" smooth="yes"/>
      <point x="28" y="1856"/>
      <point x="-19" y="1786"/>
      <point x="-19" y="1707" type="curve" smooth="yes"/>
      <point x="-19" y="1630"/>
      <point x="36" y="1560"/>
      <point x="120" y="1562" type="curve"/>
      <point x="121" y="1471"/>
      <point x="35" y="1397"/>
      <point x="-54" y="1397" type="curve"/>
      <point x="-54" y="1335" type="line"/>
      <point x="-44" y="1332"/>
      <point x="-23" y="1331"/>
    </contour>
  </outline>
</glyph>
<glyph name="circumflex" format="1">
  <advance width="729"/>
  <unicode hex="02C6"/>
  <outline>
    <contour>
      <point x="347" y="1069" type="move" name="_top"/>
    </contour>
    <contour>
      <point x="616" y="1281" type="curve" smooth="yes"/>
      <point x="632" y="1293"/>
      <point x="631" y="1313"/>
      <point x="623" y="1326" type="curve" smooth="yes"/>
      <point x="441" y="1620" type="line" smooth="yes"/>
      <point x="416" y="1657"/>
      <point x="387" y="1669"/>
      <point x="354" y="1669" type="curve" smooth="yes"/>
      <point x="320" y="1669"/>
      <point x="292" y="1657"/>
      <point x="267" y="1620" type="curve" smooth="yes"/>
      <point x="84" y="1326" type="line" smooth="yes"/>
      <point x="77" y="1314"/>
      <point x="76" y="1292"/>
      <point x="91" y="1280" type="curve" smooth="yes"/>
      <point x="104" y="1270"/>
      <point x="126" y="1268"/>
      <point x="133" y="1278" type="curve" smooth="yes"/>
      <point x="354" y="1514" type="line"/>
      <point x="575" y="1278" type="line" smooth="yes"/>
      <point x="582" y="1268"/>
      <point x="604" y="1270"/>
    </contour>
  </outline>
</glyph>
<glyph name="caron" format="1">
  <advance width="729"/>
  <unicode hex="02C7"/>
  <outline>
    <contour>
      <point x="347" y="1069" type="move" name="_top"/>
    </contour>
    <contour>
      <point x="354" y="1259" type="curve" smooth="yes"/>
      <point x="387" y="1259"/>
      <point x="416" y="1270"/>
      <point x="441" y="1306" type="curve" smooth="yes"/>
      <point x="623" y="1592" type="line" smooth="yes"/>
      <point x="631" y="1603"/>
      <point x="632" y="1623"/>
      <point x="616" y="1634" type="curve" smooth="yes"/>
      <point x="604" y="1643"/>
      <point x="582" y="1645"/>
      <point x="575" y="1637" type="curve" smooth="yes"/>
      <point x="354" y="1401" type="line"/>
      <point x="133" y="1637" type="line" smooth="yes"/>
      <point x="126" y="1645"/>
      <point x="104" y="1644"/>
      <point x="91" y="1634" type="curve" smooth="yes"/>
      <point x="76" y="1623"/>
      <point x="77" y="1603"/>
      <point x="84" y="1592" type="curve" smooth="yes"/>
      <point x="267" y="1306" type="line" smooth="yes"/>
      <point x="292" y="1270"/>
      <point x="320" y="1259"/>
    </contour>
  </outline>
</glyph>
<glyph name="uni02C9" format="1">
  <advance width="588"/>
  <unicode hex="02C9"/>
  <outline>
    <contour>
      <point x="278" y="1069" type="move" name="_top"/>
    </contour>
    <contour>
      <point x="-5" y="1405" type="line"/>
      <point x="-5" y="1293" type="line"/>
      <point x="559" y="1293" type="line"/>
      <point x="559" y="1405" type="line"/>
    </contour>
  </outline>
</glyph>
<glyph name="breve" format="1">
  <advance width="680"/>
  <unicode hex="02D8"/>
  <outline>
    <contour>
      <point x="327" y="1077" type="move" name="_top"/>
    </contour>
    <contour>
      <point x="465" y="1533" type="line"/>
      <point x="465" y="1414"/>
      <point x="420" y="1359"/>
      <point x="322" y="1359" type="curve" smooth="yes"/>
      <point x="225" y="1359"/>
      <point x="179" y="1414"/>
      <point x="179" y="1533" type="curve"/>
      <point x="54" y="1533" type="line"/>
      <point x="54" y="1341"/>
      <point x="138" y="1254"/>
      <point x="322" y="1254" type="curve" smooth="yes"/>
      <point x="506" y="1254"/>
      <point x="591" y="1341"/>
      <point x="591" y="1533" type="curve"/>
    </contour>
  </outline>
</glyph>
<glyph name="dotaccent" format="1">
  <advance width="352"/>
  <unicode hex="02D9"/>
  <outline>
    <contour>
      <point x="167" y="1069" type="move" name="_top"/>
    </contour>
    <contour>
      <point x="167" y="1377" type="curve" smooth="yes"/>
      <point x="222" y="1377"/>
      <point x="285" y="1410"/>
      <point x="285" y="1504" type="curve" smooth="yes"/>
      <point x="285" y="1593"/>
      <point x="223" y="1629"/>
      <point x="167" y="1629" type="curve" smooth="yes"/>
      <point x="112" y="1629"/>
      <point x="50" y="1597"/>
      <point x="50" y="1504" type="curve" smooth="yes"/>
      <point x="50" y="1414"/>
      <point x="110" y="1377"/>
    </contour>
  </outline>
</glyph>
<glyph name="ring" format="1">
  <advance width="683"/>
  <unicode hex="02DA"/>
  <outline>
    <contour>
      <point x="328" y="1069" type="move" name="_top"/>
    </contour>
    <contour>
      <point x="82" y="1429" type="curve" smooth="yes"/>
      <point x="82" y="1282"/>
      <point x="175" y="1195"/>
      <point x="327" y="1195" type="curve" smooth="yes"/>
      <point x="477" y="1195"/>
      <point x="574" y="1282"/>
      <point x="574" y="1429" type="curve" smooth="yes"/>
      <point x="574" y="1575"/>
      <point x="478" y="1671"/>
      <point x="327" y="1671" type="curve" smooth="yes"/>
      <point x="176" y="1671"/>
      <point x="82" y="1575"/>
    </contour>
    <contour>
      <point x="437" y="1427" type="curve" smooth="yes"/>
      <point x="437" y="1337"/>
      <point x="402" y="1298"/>
      <point x="327" y="1298" type="curve" smooth="yes"/>
      <point x="249" y="1298"/>
      <point x="216" y="1342"/>
      <point x="216" y="1429" type="curve" smooth="yes"/>
      <point x="216" y="1524"/>
      <point x="244" y="1566"/>
      <point x="327" y="1566" type="curve" smooth="yes"/>
      <point x="404" y="1566"/>
      <point x="437" y="1529"/>
    </contour>
  </outline>
</glyph>
<glyph name="ogonek" format="1">
  <advance width="680"/>
  <unicode hex="02DB"/>
  <outline>
    <contour>
      <point x="399" y="0" type="move" name="_ogonek"/>
    </contour>
    <contour>
      <point x="352" y="0" type="line"/>
      <point x="189" y="-90"/>
      <point x="139" y="-211"/>
      <point x="139" y="-324" type="curve" smooth="yes"/>
      <point x="139" y="-448"/>
      <point x="245" y="-508"/>
      <point x="359" y="-508" type="curve" smooth="yes"/>
      <point x="419" y="-508"/>
      <point x="481" y="-493"/>
      <point x="537" y="-456" type="curve"/>
      <point x="517" y="-375" type="line"/>
      <point x="489" y="-384"/>
      <point x="461" y="-389"/>
      <point x="434" y="-389" type="curve" smooth="yes"/>
      <point x="368" y="-389"/>
      <point x="312" y="-358"/>
      <point x="312" y="-277" type="curve" smooth="yes"/>
      <point x="312" y="-178"/>
      <point x="364" y="-48"/>
      <point x="455" y="0" type="curve"/>
    </contour>
  </outline>
</glyph>
<glyph name="tilde" format="1">
  <advance width="952"/>
  <unicode hex="02DC"/>
  <outline>
    <contour>
      <point x="473" y="1069" type="move" name="_top"/>
    </contour>
    <contour>
      <point x="559" y="1251" type="curve" smooth="yes"/>
      <point x="654" y="1251"/>
      <point x="734" y="1269"/>
      <point x="776" y="1414" type="curve"/>
      <point x="754" y="1454" type="line"/>
      <point x="673" y="1394"/>
      <point x="611" y="1376"/>
      <point x="565" y="1376" type="curve" smooth="yes"/>
      <point x="496" y="1376"/>
      <point x="458" y="1433"/>
      <point x="343" y="1433" type="curve" smooth="yes"/>
      <point x="268" y="1433"/>
      <point x="195" y="1411"/>
      <point x="159" y="1300" type="curve"/>
      <point x="178" y="1269" type="line"/>
      <point x="228" y="1311"/>
      <point x="274" y="1324"/>
      <point x="315" y="1324" type="curve" smooth="yes"/>
      <point x="388" y="1324"/>
      <point x="469" y="1251"/>
    </contour>
  </outline>
</glyph>
<glyph name="hungarumlaut" format="1">
  <advance width="1035"/>
  <unicode hex="02DD"/>
  <outline>
    <contour>
      <point x="288" y="1069" type="move" name="_top"/>
    </contour>
    <contour>
      <point x="58" y="1316" type="curve"/>
      <point x="30" y="1301"/>
      <point x="411" y="1455"/>
      <point x="425" y="1454" type="curve" smooth="yes"/>
      <point x="469" y="1469"/>
      <point x="489" y="1507"/>
      <point x="489" y="1540" type="curve" smooth="yes"/>
      <point x="489" y="1582"/>
      <point x="457" y="1623"/>
      <point x="396" y="1623" type="curve" smooth="yes"/>
      <point x="365" y="1623"/>
      <point x="339" y="1605"/>
      <point x="318" y="1588" type="curve" smooth="yes"/>
      <point x="289" y="1562"/>
      <point x="24" y="1283"/>
      <point x="47" y="1318" type="curve"/>
      <point x="52" y="1325"/>
      <point x="54" y="1313"/>
      <point x="51" y="1317" type="curve"/>
      <point x="49" y="1321"/>
      <point x="63" y="1319"/>
    </contour>
    <contour>
      <point x="463" y="1316" type="curve"/>
      <point x="435" y="1301"/>
      <point x="816" y="1455"/>
      <point x="830" y="1454" type="curve" smooth="yes"/>
      <point x="874" y="1469"/>
      <point x="894" y="1507"/>
      <point x="894" y="1540" type="curve" smooth="yes"/>
      <point x="894" y="1582"/>
      <point x="862" y="1623"/>
      <point x="801" y="1623" type="curve" smooth="yes"/>
      <point x="770" y="1623"/>
      <point x="744" y="1605"/>
      <point x="723" y="1588" type="curve" smooth="yes"/>
      <point x="694" y="1562"/>
      <point x="429" y="1283"/>
      <point x="452" y="1318" type="curve"/>
      <point x="458" y="1326"/>
      <point x="459" y="1313"/>
      <point x="456" y="1318" type="curve"/>
      <point x="454" y="1322"/>
      <point x="467" y="1318"/>
    </contour>
  </outline>
</glyph>
<glyph name="uni0307" format="1">
  <advance width="398"/>
  <unicode hex="0307"/>
  <outline>
    <contour>
      <point x="201" y="1069" type="move" name="_top"/>
    </contour>
    <contour>
      <point x="202" y="1389" type="curve" smooth="yes"/>
      <point x="288" y="1389"/>
      <point x="333" y="1454"/>
      <point x="333" y="1534" type="curve" smooth="yes"/>
      <point x="333" y="1613"/>
      <point x="281" y="1680"/>
      <point x="202" y="1680" type="curve" smooth="yes"/>
      <point x="116" y="1680"/>
      <point x="71" y="1615"/>
      <point x="71" y="1534" type="curve" smooth="yes"/>
      <point x="71" y="1456"/>
      <point x="124" y="1389"/>
    </contour>
  </outline>
</glyph>
<glyph name="dblgravecmb" format="1">
  <advance width="1036"/>
  <unicode hex="030F"/>
  <outline>
    <contour>
      <point x="667" y="1069" type="move" name="_top"/>
    </contour>
    <contour>
      <point x="484" y="1320" type="curve" smooth="yes"/>
      <point x="480" y="1321"/>
      <point x="494" y="1325"/>
      <point x="491" y="1322" type="curve"/>
      <point x="488" y="1319"/>
      <point x="490" y="1333"/>
      <point x="495" y="1328" type="curve"/>
      <point x="518" y="1306"/>
      <point x="253" y="1580"/>
      <point x="224" y="1608" type="curve" smooth="yes"/>
      <point x="203" y="1626"/>
      <point x="177" y="1643"/>
      <point x="146" y="1643" type="curve" smooth="yes"/>
      <point x="85" y="1643"/>
      <point x="53" y="1599"/>
      <point x="53" y="1554" type="curve" smooth="yes"/>
      <point x="53" y="1519"/>
      <point x="73" y="1479"/>
      <point x="117" y="1462" type="curve" smooth="yes"/>
      <point x="131" y="1458"/>
      <point x="512" y="1310"/>
    </contour>
    <contour>
      <point x="889" y="1320" type="curve" smooth="yes"/>
      <point x="884" y="1322"/>
      <point x="898" y="1325"/>
      <point x="896" y="1322" type="curve"/>
      <point x="893" y="1319"/>
      <point x="895" y="1333"/>
      <point x="900" y="1328" type="curve"/>
      <point x="923" y="1306"/>
      <point x="658" y="1580"/>
      <point x="629" y="1608" type="curve" smooth="yes"/>
      <point x="608" y="1626"/>
      <point x="582" y="1643"/>
      <point x="551" y="1643" type="curve" smooth="yes"/>
      <point x="490" y="1643"/>
      <point x="458" y="1599"/>
      <point x="458" y="1554" type="curve" smooth="yes"/>
      <point x="458" y="1519"/>
      <point x="478" y="1479"/>
      <point x="522" y="1462" type="curve" smooth="yes"/>
      <point x="536" y="1458"/>
      <point x="917" y="1310"/>
    </contour>
  </outline>
</glyph>
<glyph name="breveinvertedcomb" format="1">
  <advance width="769"/>
  <unicode hex="0311"/>
  <outline>
    <contour>
      <point x="398" y="1069" type="move" name="_top"/>
    </contour>
    <contour>
      <point x="114" y="1254" type="curve"/>
      <point x="234" y="1254" type="line"/>
      <point x="234" y="1373"/>
      <point x="279" y="1427"/>
      <point x="376" y="1427" type="curve" smooth="yes"/>
      <point x="473" y="1427"/>
      <point x="518" y="1373"/>
      <point x="518" y="1254" type="curve"/>
      <point x="637" y="1254" type="line"/>
      <point x="637" y="1446"/>
      <point x="555" y="1533"/>
      <point x="376" y="1533" type="curve" smooth="yes"/>
      <point x="197" y="1533"/>
      <point x="114" y="1446"/>
    </contour>
  </outline>
</glyph>
<glyph name="commaturnedabovecomb" format="1">
  <advance width="559"/>
  <unicode hex="0312"/>
  <outline>
    <contour>
      <point x="294" y="1077" type="move" name="_top"/>
    </contour>
    <contour>
      <point x="292" y="1219" type="curve" smooth="yes"/>
      <point x="389" y="1219"/>
      <point x="443" y="1323"/>
      <point x="443" y="1368" type="curve" smooth="yes"/>
      <point x="443" y="1474"/>
      <point x="399" y="1528"/>
      <point x="304" y="1532" type="curve"/>
      <point x="304" y="1627"/>
      <point x="353" y="1701"/>
      <point x="429" y="1704" type="curve"/>
      <point x="429" y="1756" type="line"/>
      <point x="252" y="1756"/>
      <point x="124" y="1597"/>
      <point x="124" y="1431" type="curve" smooth="yes"/>
      <point x="124" y="1300"/>
      <point x="191" y="1219"/>
    </contour>
  </outline>
</glyph>
<glyph name="commaaccent" format="1">
  <advance width="431"/>
  <unicode hex="0326"/>
  <outline>
    <contour>
      <point x="218" y="0" type="move" name="_bot"/>
    </contour>
    <contour>
      <point x="84" y="-681" type="line"/>
      <point x="257" y="-681"/>
      <point x="386" y="-518"/>
      <point x="386" y="-356" type="curve" smooth="yes"/>
      <point x="386" y="-225"/>
      <point x="327" y="-167"/>
      <point x="227" y="-167" type="curve" smooth="yes"/>
      <point x="131" y="-167"/>
      <point x="71" y="-232"/>
      <point x="71" y="-307" type="curve" smooth="yes"/>
      <point x="71" y="-387"/>
      <point x="113" y="-453"/>
      <point x="208" y="-457" type="curve"/>
      <point x="209" y="-553"/>
      <point x="160" y="-629"/>
      <point x="84" y="-632" type="curve"/>
    </contour>
  </outline>
</glyph>
<glyph name="Sigma" format="1">
  <advance width="1161"/>
  <unicode hex="03A3"/>
  <outline>
    <contour>
      <point x="119" y="0" type="line"/>
      <point x="1083" y="0" type="line"/>
      <point x="1083" y="186" type="line"/>
      <point x="306" y="186" type="line"/>
      <point x="798" y="725" type="line"/>
      <point x="798" y="827" type="line"/>
      <point x="323" y="1290" type="line"/>
      <point x="1035" y="1290" type="line"/>
      <point x="1035" y="1474" type="line"/>
      <point x="119" y="1474" type="line"/>
      <point x="119" y="1291" type="line"/>
      <point x="619" y="766" type="line"/>
      <point x="119" y="205" type="line"/>
    </contour>
  </outline>
</glyph>
<glyph name="Omega" format="1">
  <advance width="1736"/>
  <unicode hex="03A9"/>
  <outline>
    <contour>
      <point x="103" y="0" type="line"/>
      <point x="785" y="0" type="line"/>
      <point x="784" y="111" type="line"/>
      <point x="491" y="214"/>
      <point x="327" y="504"/>
      <point x="327" y="769" type="curve" smooth="yes"/>
      <point x="327" y="1132"/>
      <point x="608" y="1308"/>
      <point x="868" y="1308" type="curve" smooth="yes"/>
      <point x="1129" y="1308"/>
      <point x="1409" y="1132"/>
      <point x="1409" y="769" type="curve" smooth="yes"/>
      <point x="1409" y="504"/>
      <point x="1244" y="214"/>
      <point x="952" y="111" type="curve"/>
      <point x="951" y="0" type="line"/>
      <point x="1634" y="0" type="line"/>
      <point x="1634" y="120" type="line"/>
      <point x="1222" y="120" type="line"/>
      <point x="1487" y="285"/>
      <point x="1608" y="545"/>
      <point x="1608" y="767" type="curve" smooth="yes"/>
      <point x="1608" y="1237"/>
      <point x="1233" y="1473"/>
      <point x="868" y="1473" type="curve" smooth="yes"/>
      <point x="503" y="1473"/>
      <point x="128" y="1237"/>
      <point x="128" y="767" type="curve" smooth="yes"/>
      <point x="128" y="545"/>
      <point x="249" y="285"/>
      <point x="514" y="120" type="curve"/>
      <point x="103" y="120" type="line"/>
    </contour>
  </outline>
</glyph>
<glyph name="mu" format="1">
  <advance width="1110"/>
  <unicode hex="03BC"/>
  <outline>
    <contour>
      <point x="810" y="1067" type="line"/>
      <point x="810" y="406" type="line"/>
      <point x="810" y="236"/>
      <point x="859" y="105"/>
      <point x="548" y="105" type="curve" smooth="yes"/>
      <point x="328" y="105"/>
      <point x="299" y="139"/>
      <point x="292" y="295" type="curve"/>
      <point x="292" y="1067" type="line"/>
      <point x="148" y="1067" type="line"/>
      <point x="148" y="-354" type="line"/>
      <point x="292" y="-354" type="line"/>
      <point x="292" y="3" type="line"/>
      <point x="429" y="-42"/>
      <point x="746" y="-43"/>
      <point x="806" y="144" type="curve"/>
      <point x="821" y="-1" type="line"/>
      <point x="956" y="-1" type="line"/>
      <point x="956" y="1067" type="line"/>
    </contour>
  </outline>
</glyph>
